# Star prism OBJ  generated by create_star_obj.py
v 0.332 -0.3 0
v 0.104363192 -0.3 0.0758242975
v 0.102593642 -0.3 0.315750763
v -0.0398631923 -0.3 0.122686291
v -0.268593642 -0.3 0.195144704
v -0.129 -0.3 1.57979437e-17
v -0.268593642 -0.3 -0.195144704
v -0.0398631923 -0.3 -0.122686291
v 0.102593642 -0.3 -0.315750763
v 0.104363192 -0.3 -0.0758242975
v 0.332 0.3 0
v 0.104363192 0.3 0.0758242975
v 0.102593642 0.3 0.315750763
v -0.0398631923 0.3 0.122686291
v -0.268593642 0.3 0.195144704
v -0.129 0.3 1.57979437e-17
v -0.268593642 0.3 -0.195144704
v -0.0398631923 0.3 -0.122686291
v 0.102593642 0.3 -0.315750763
v 0.104363192 0.3 -0.0758242975
v 0 -0.3 0
v 0 0.3 0
f 21 2 1
f 21 3 2
f 21 4 3
f 21 5 4
f 21 6 5
f 21 7 6
f 21 8 7
f 21 9 8
f 21 10 9
f 21 1 10
f 22 11 12
f 22 12 13
f 22 13 14
f 22 14 15
f 22 15 16
f 22 16 17
f 22 17 18
f 22 18 19
f 22 19 20
f 22 20 11
f 1 11 12
f 1 12 2
f 2 12 13
f 2 13 3
f 3 13 14
f 3 14 4
f 4 14 15
f 4 15 5
f 5 15 16
f 5 16 6
f 6 16 17
f 6 17 7
f 7 17 18
f 7 18 8
f 8 18 19
f 8 19 9
f 9 19 20
f 9 20 10
f 10 20 11
f 10 11 1
