# Fixed Hexagonal Prism (CCW Outward Winding)
g hexagon

# Vertices (1-6: Top ring, 7-12: Bottom ring, 13-14: Cap centers)
v -17.700878 1.2 -9.874854
v -17.550878 1.2 -10.134661
v -17.250879 1.2 -10.134661
v -17.100879 1.2 -9.874854
v -17.250879 1.2 -9.615047
v -17.550878 1.2 -9.615047
v -17.700878 0.6 -9.874854
v -17.550878 0.6 -10.134661
v -17.250879 0.6 -10.134661
v -17.100879 0.6 -9.874854
v -17.250879 0.6 -9.615047
v -17.550878 0.6 -9.615047
v -17.400878 1.2 -9.874854
v -17.400878 0.6 -9.874854

# --- Sides (Normal points Out) ---
f 7 1 2 8
f 8 2 3 9
f 9 3 4 10
f 10 4 5 11
f 11 5 6 12
f 12 6 1 7

# --- Top Cap (Normal points Up) ---
f 13 1 6
f 13 6 5
f 13 5 4
f 13 4 3
f 13 3 2
f 13 2 1

# --- Bottom Cap (Normal points Down) ---
f 14 7 8
f 14 8 9
f 14 9 10
f 14 10 11
f 14 11 12
f 14 12 7