# Fixed High-Density Triangulated Cylinder
# Corrected winding order for outward-facing normals
g cylinder

# Vertices (1-16: Outer Shell, 17-18: Cap Centers)
v -20.8 0.0 -7.9
v -20.8 0.6 -7.9
v -20.85 0.0 -7.75
v -20.85 0.6 -7.75
v -21.0 0.0 -7.7
v -21.0 0.6 -7.7
v -21.15 0.0 -7.75
v -21.15 0.6 -7.75
v -21.2 0.0 -7.9
v -21.2 0.6 -7.9
v -21.15 0.0 -8.05
v -21.15 0.6 -8.05
v -21.0 0.0 -8.1
v -21.0 0.6 -8.1
v -20.85 0.0 -8.05
v -20.85 0.6 -8.05
v -21.0 0.0 -7.9
v -21.0 0.6 -7.9

# --- Sides (Counter-Clockwise from outside) ---
f 1 4 3
f 1 2 4
f 3 6 5
f 3 4 6
f 5 8 7
f 5 6 8
f 7 10 9
f 7 8 10
f 9 12 11
f 9 10 12
f 11 14 13
f 11 12 14
f 13 16 15
f 13 14 16
f 15 2 1
f 15 16 2

# --- Bottom Cap (Normals Point Down/Out) ---
f 17 1 3
f 17 3 5
f 17 5 7
f 17 7 9
f 17 9 11
f 17 11 13
f 17 13 15
f 17 15 1

# --- Top Cap (Normals Point Up/Out) ---
f 18 4 2
f 18 6 4
f 18 8 6
f 18 10 8
f 18 12 10
f 18 14 12
f 18 16 14
f 18 2 16