# Precise Star Particle: Height 0.6mm
v 0.332000 0.000000 -0.300000
v 0.104363 0.075824 -0.300000
v 0.102594 0.315751 -0.300000
v -0.039863 0.122686 -0.300000
v -0.268594 0.195145 -0.300000
v -0.129000 0.000000 -0.300000
v -0.268594 -0.195145 -0.300000
v -0.039863 -0.122686 -0.300000
v 0.102594 -0.315751 -0.300000
v 0.104363 -0.075824 -0.300000
v 0.332000 0.000000 0.300000
v 0.104363 0.075824 0.300000
v 0.102594 0.315751 0.300000
v -0.039863 0.122686 0.300000
v -0.268594 0.195145 0.300000
v -0.129000 0.000000 0.300000
v -0.268594 -0.195145 0.300000
v -0.039863 -0.122686 0.300000
v 0.102594 -0.315751 0.300000
v 0.104363 -0.075824 0.300000
v 0.000000 0.000000 -0.300000
v 0.000000 0.000000 0.300000
f 1 2 12
f 1 12 11
f 2 3 13
f 2 13 12
f 3 4 14
f 3 14 13
f 4 5 15
f 4 15 14
f 5 6 16
f 5 16 15
f 6 7 17
f 6 17 16
f 7 8 18
f 7 18 17
f 8 9 19
f 8 19 18
f 9 10 20
f 9 20 19
f 10 1 11
f 10 11 20
f 21 2 1
f 21 3 2
f 21 4 3
f 21 5 4
f 21 6 5
f 21 7 6
f 21 8 7
f 21 9 8
f 21 10 9
f 21 1 10
f 22 11 12
f 22 12 13
f 22 13 14
f 22 14 15
f 22 15 16
f 22 16 17
f 22 17 18
f 22 18 19
f 22 19 20
f 22 20 11
