# Rhino

mtllib Star600M-MM.mtl
usemtl Default
v 44825.204393301916 -150092.54997620781 -599.43141967018607
v 44825.204393301916 -150092.54997620781 -600
v 44825.280328652552 -150092.77713144411 -599.43141967018607
v 44825.280328652552 -150092.77713144411 -600
v 44825.280328652552 -150092.77713144411 -599.43141967018607
v 44825.280328652552 -150092.77713144411 -600
v 44825.519832638114 -150092.77915580838 -599.43141967018607
v 44825.519832638114 -150092.77915580838 -600
v 44825.519832638114 -150092.77915580838 -599.43141967018607
v 44825.519832638114 -150092.77915580838 -600
v 44825.327261369741 -150092.92156983644 -599.43141967018607
v 44825.327261369741 -150092.92156983644 -600
v 44825.327261369741 -150092.92156983644 -599.43141967018607
v 44825.327261369741 -150092.92156983644 -600
v 44825.399346813276 -150093.14997620782 -599.43141967018607
v 44825.399346813276 -150093.14997620782 -600
v 44825.399346813276 -150093.14997620782 -599.43141967018607
v 44825.399346813276 -150093.14997620782 -600
v 44825.204393301916 -150093.01083767912 -599.43141967018607
v 44825.204393301916 -150093.01083767912 -600
v 44825.204393301916 -150093.01083767912 -599.43141967018607
v 44825.204393301916 -150093.01083767912 -600
v 44825.009439790563 -150093.14997620782 -599.43141967018607
v 44825.009439790563 -150093.14997620782 -600
v 44825.009439790563 -150093.14997620782 -599.43141967018607
v 44825.009439790563 -150093.14997620782 -600
v 44825.081525234098 -150092.92156983644 -599.43141967018607
v 44825.081525234098 -150092.92156983644 -600
v 44825.081525234098 -150092.92156983644 -599.43141967018607
v 44825.081525234098 -150092.92156983644 -600
v 44824.888953965725 -150092.77915580838 -599.43141967018607
v 44824.888953965725 -150092.77915580838 -600
v 44824.888953965725 -150092.77915580838 -599.43141967018607
v 44824.888953965725 -150092.77915580838 -600
v 44825.128457951287 -150092.77713144411 -599.43141967018607
v 44825.128457951287 -150092.77713144411 -600
v 44825.128457951287 -150092.77713144411 -599.43141967018607
v 44825.128457951287 -150092.77713144411 -600
v 44825.204393301916 -150092.54997620781 -599.43141967018607
v 44825.204393301916 -150092.54997620781 -600
v 44825.204393301916 -150092.54997620781 -599.43141967018607
v 44825.280328652552 -150092.77713144411 -599.43141967018607
v 44825.519832638114 -150092.77915580838 -599.43141967018607
v 44825.327261369741 -150092.92156983644 -599.43141967018607
v 44825.399346813276 -150093.14997620782 -599.43141967018607
v 44825.204393301916 -150093.01083767912 -599.43141967018607
v 44825.009439790563 -150093.14997620782 -599.43141967018607
v 44825.081525234098 -150092.92156983644 -599.43141967018607
v 44824.888953965725 -150092.77915580838 -599.43141967018607
v 44825.128457951287 -150092.77713144411 -599.43141967018607
v 44825.204393301916 -150092.54997620781 -600
v 44825.280328652552 -150092.77713144411 -600
v 44825.519832638114 -150092.77915580838 -600
v 44825.327261369741 -150092.92156983644 -600
v 44825.399346813276 -150093.14997620782 -600
v 44825.204393301916 -150093.01083767912 -600
v 44825.009439790563 -150093.14997620782 -600
v 44825.081525234098 -150092.92156983644 -600
v 44824.888953965725 -150092.77915580838 -600
v 44825.128457951287 -150092.77713144411 -600
vt 0 0
vt 0 0.66074442863464355
vt 0.099999792873859406 0
vt 0.099999792873859406 0.66074442863464355
vt 0.099999792873859406 0
vt 0.099999792873859406 0.66074442863464355
vt 0.2000000923871994 0
vt 0.2000000923871994 0.66074442863464355
vt 0.2000000923871994 0
vt 0.2000000923871994 0.66074442863464355
vt 0.29999968409538269 0
vt 0.29999968409538269 0.66074442863464355
vt 0.29999968409538269 0
vt 0.29999968409538269 0.66074442863464355
vt 0.39999958872795105 0
vt 0.39999958872795105 0.66074442863464355
vt 0.39999958872795105 0
vt 0.39999958872795105 0.66074442863464355
vt 0.5 0
vt 0.5 0.66074442863464355
vt 0.5 0
vt 0.5 0.66074442863464355
vt 0.60000044107437134 0
vt 0.60000044107437134 0.66074442863464355
vt 0.60000044107437134 0
vt 0.60000044107437134 0.66074442863464355
vt 0.70000028610229492 0
vt 0.70000028610229492 0.66074442863464355
vt 0.70000028610229492 0
vt 0.70000028610229492 0.66074442863464355
vt 0.7999998927116394 0
vt 0.7999998927116394 0.66074442863464355
vt 0.7999998927116394 0
vt 0.7999998927116394 0.66074442863464355
vt 0.90000021457672119 0
vt 0.90000021457672119 0.66074442863464355
vt 0.90000021457672119 0
vt 0.90000021457672119 0.66074442863464355
vt 1 0
vt 1 0.66074442863464355
vt 0.13170094788074493 0.66074508428573608
vt 0.09999673068523407 0.78918427228927612
vt 0 0.79032891988754272
vt 0.080401569604873657 0.87085336446762085
vt 0.050304751843214035 1
vt 0.13170094788074493 0.92132759094238281
vt 0.21309714019298553 1
vt 0.18300032615661621 0.87085336446762085
vt 0.26340189576148987 0.79032891988754272
vt 0.1634051650762558 0.78918427228927612
vt 0.13170094788074493 1
vt 0.09999673068523407 0.87156075239181519
vt 0 0.87041616439819336
vt 0.080401569604873657 0.78989171981811523
vt 0.050304751843214035 0.66074508428573608
vt 0.13170094788074493 0.7394174337387085
vt 0.21309714019298553 0.66074508428573608
vt 0.18300032615661621 0.78989171981811523
vt 0.26340189576148987 0.87041616439819336
vt 0.1634051650762558 0.87156075239181519
vn 0.94841122627258301 0.31704282760620117 0
vn 0.94841122627258301 0.31704282760620117 0
vn 0.94841122627258301 0.31704282760620117 0
vn 0.94841122627258301 0.31704282760620117 0
vn 0.0084520177915692329 0.99996429681777954 0
vn 0.0084520177915692329 0.99996429681777954 0
vn 0.0084520177915692329 0.99996429681777954 0
vn 0.0084520177915692329 0.99996429681777954 0
vn 0.59460365772247314 -0.80401897430419922 0
vn 0.59460365772247314 -0.80401897430419922 0
vn 0.59460365772247314 -0.80401897430419922 0
vn 0.59460365772247314 -0.80401897430419922 0
vn 0.95363408327102661 0.30096855759620667 0
vn 0.95363408327102661 0.30096855759620667 0
vn 0.95363408327102661 0.30096855759620667 0
vn 0.95363408327102661 0.30096855759620667 0
vn -0.58092302083969116 -0.81395846605300903 0
vn -0.58092302083969116 -0.81395846605300903 0
vn -0.58092302083969116 -0.81395846605300903 0
vn -0.58092302083969116 -0.81395846605300903 0
vn 0.58092302083969116 -0.81395846605300903 0
vn 0.58092302083969116 -0.81395846605300903 0
vn 0.58092302083969116 -0.81395846605300903 0
vn 0.58092302083969116 -0.81395846605300903 0
vn -0.95363408327102661 0.30096855759620667 0
vn -0.95363408327102661 0.30096855759620667 0
vn -0.95363408327102661 0.30096855759620667 0
vn -0.95363408327102661 0.30096855759620667 0
vn -0.59460365772247314 -0.80401897430419922 0
vn -0.59460365772247314 -0.80401897430419922 0
vn -0.59460365772247314 -0.80401897430419922 0
vn -0.59460365772247314 -0.80401897430419922 0
vn -0.0084520177915692329 0.99996429681777954 0
vn -0.0084520177915692329 0.99996429681777954 0
vn -0.0084520177915692329 0.99996429681777954 0
vn -0.0084520177915692329 0.99996429681777954 0
vn -0.94841122627258301 0.31704282760620117 0
vn -0.94841122627258301 0.31704282760620117 0
vn -0.94841122627258301 0.31704282760620117 0
vn -0.94841122627258301 0.31704282760620117 0
vn 0 0 1
vn 0 0 1
vn 0 0 1
vn 0 0 1
vn 0 0 1
vn 0 0 1
vn 0 0 1
vn 0 0 1
vn 0 0 1
vn 0 0 1
vn 0 0 -1
vn 0 0 -1
vn 0 0 -1
vn 0 0 -1
vn 0 0 -1
vn 0 0 -1
vn 0 0 -1
vn 0 0 -1
vn 0 0 -1
vn 0 0 -1
f 1/1/1 3/3/3 4/4/4 2/2/2
f 5/5/5 7/7/7 8/8/8 6/6/6
f 9/9/9 11/11/11 12/12/12 10/10/10
f 13/13/13 15/15/15 16/16/16 14/14/14
f 17/17/17 19/19/19 20/20/20 18/18/18
f 21/21/21 23/23/23 24/24/24 22/22/22
f 25/25/25 27/27/27 28/28/28 26/26/26
f 29/29/29 31/31/31 32/32/32 30/30/30
f 33/33/33 35/35/35 36/36/36 34/34/34
f 37/37/37 39/39/39 40/40/40 38/38/38
f 44/44/44 46/46/46 45/45/45
f 42/42/42 44/44/44 43/43/43
f 46/46/46 44/44/44 42/42/42
f 42/42/42 50/50/50 46/46/46
f 46/46/46 50/50/50 48/48/48
f 50/50/50 42/42/42 41/41/41
f 48/48/48 50/50/50 49/49/49
f 48/48/48 47/47/47 46/46/46
f 54/54/54 55/55/55 56/56/56
f 52/52/52 53/53/53 54/54/54
f 56/56/56 52/52/52 54/54/54
f 52/52/52 56/56/56 60/60/60
f 56/56/56 58/58/58 60/60/60
f 60/60/60 51/51/51 52/52/52
f 58/58/58 59/59/59 60/60/60
f 58/58/58 56/56/56 57/57/57
