# star prism generated (units: mm)
# points=5 outer=0.332 inner=0.129 thickness=0.569
# scaled_to_max_dim=0.6 scale=0.9501164676851812
v 0.315438667 0 -0.270308135
v 0.0991571876 0.0720419137 -0.270308135
v 0.0974759089 0.3 -0.270308135
v -0.0378746754 0.116566265 -0.270308135
v -0.255195243 0.185410197 -0.270308135
v -0.122565024 1.50098865e-17 -0.270308135
v -0.255195243 -0.185410197 -0.270308135
v -0.0378746754 -0.116566265 -0.270308135
v 0.0974759089 -0.3 -0.270308135
v 0.0991571876 -0.0720419137 -0.270308135
v 0.315438667 0 0.270308135
v 0.0991571876 0.0720419137 0.270308135
v 0.0974759089 0.3 0.270308135
v -0.0378746754 0.116566265 0.270308135
v -0.255195243 0.185410197 0.270308135
v -0.122565024 1.50098865e-17 0.270308135
v -0.255195243 -0.185410197 0.270308135
v -0.0378746754 -0.116566265 0.270308135
v 0.0974759089 -0.3 0.270308135
v 0.0991571876 -0.0720419137 0.270308135
v 0 0 -0.270308135
v 0 0 0.270308135
f 21 2 1
f 21 3 2
f 21 4 3
f 21 5 4
f 21 6 5
f 21 7 6
f 21 8 7
f 21 9 8
f 21 10 9
f 21 1 10
f 22 11 12
f 22 12 13
f 22 13 14
f 22 14 15
f 22 15 16
f 22 16 17
f 22 17 18
f 22 18 19
f 22 19 20
f 22 20 11
f 1 2 12
f 1 12 11
f 2 3 13
f 2 13 12
f 3 4 14
f 3 14 13
f 4 5 15
f 4 15 14
f 5 6 16
f 5 16 15
f 6 7 17
f 6 17 16
f 7 8 18
f 7 18 17
f 8 9 19
f 8 19 18
f 9 10 20
f 9 20 19
f 10 1 11
f 10 11 20
