# Rhino

mtllib Hex600M.mtl
usemtl Default
v 43882.18409856224 600 -100069.80363250559
v 43732.186393340977 600 -99809.99602635717
v 43882.18409856224 0 -100069.80363250559
v 43732.186393340977 0 -99809.99602635717
v 43732.186393340977 600 -100329.611238654
v 43882.18409856224 600 -100069.80363250559
v 43732.186393340977 0 -100329.611238654
v 43882.18409856224 0 -100069.80363250559
v 43432.18716820133 600 -100329.611238654
v 43732.186393340977 600 -100329.611238654
v 43432.18716820133 0 -100329.611238654
v 43732.186393340977 0 -100329.611238654
v 43282.185648282946 600 -100069.80363250559
v 43432.18716820133 600 -100329.611238654
v 43282.185648282946 0 -100069.80363250559
v 43432.18716820133 0 -100329.611238654
v 43432.18716820133 600 -99809.99602635717
v 43282.185648282946 600 -100069.80363250559
v 43432.18716820133 0 -99809.99602635717
v 43282.185648282946 0 -100069.80363250559
v 43732.186393340977 600 -99809.99602635717
v 43432.18716820133 600 -99809.99602635717
v 43732.186393340977 0 -99809.99602635717
v 43432.18716820133 0 -99809.99602635717
v 43732.186393340977 600 -100329.611238654
v 43432.18716820133 600 -100329.611238654
v 43882.18409856224 600 -100069.80363250559
v 43282.185648282946 600 -100069.80363250559
v 43732.186393340977 600 -99809.99602635717
v 43432.18716820133 600 -99809.99602635717
v 43432.18716820133 0 -99809.99602635717
v 43282.185648282946 0 -100069.80363250559
v 43732.186393340977 0 -99809.99602635717
v 43432.18716820133 0 -100329.611238654
v 43882.18409856224 0 -100069.80363250559
v 43732.186393340977 0 -100329.611238654
vn 0.86602872610092163 0 0.49999427795410156
vn 0.86602872610092163 0 0.49999427795410156
vn 0.86602872610092163 0 0.49999427795410156
vn 0.86602872610092163 0 0.49999427795410156
vn 0.86602872610092163 0 -0.49999427795410156
vn 0.86602872610092163 0 -0.49999427795410156
vn 0.86602872610092163 0 -0.49999427795410156
vn 0.86602872610092163 0 -0.49999427795410156
vn 0 0 -1
vn 0 0 -1
vn 0 0 -1
vn 0 0 -1
vn -0.86602318286895752 0 -0.50000381469726562
vn -0.86602318286895752 0 -0.50000381469726562
vn -0.86602318286895752 0 -0.50000381469726562
vn -0.86602318286895752 0 -0.50000381469726562
vn -0.86602318286895752 0 0.50000381469726562
vn -0.86602318286895752 0 0.50000381469726562
vn -0.86602318286895752 0 0.50000381469726562
vn -0.86602318286895752 0 0.50000381469726562
vn 0 0 1
vn 0 0 1
vn 0 0 1
vn 0 0 1
vn 0 1 0
vn 0 1 0
vn 0 1 0
vn 0 1 0
vn 0 1 0
vn 0 1 0
vn 0 -1 0
vn 0 -1 0
vn 0 -1 0
vn 0 -1 0
vn 0 -1 0
vn 0 -1 0
f 1//1 2//2 3//3
f 3//3 2//2 4//4
f 5//5 6//6 7//7
f 7//7 6//6 8//8
f 9//9 10//10 11//11
f 11//11 10//10 12//12
f 13//13 14//14 15//15
f 15//15 14//14 16//16
f 17//17 18//18 19//19
f 19//19 18//18 20//20
f 21//21 22//22 23//23
f 23//23 22//22 24//24
f 25//25 26//26 27//27
f 27//27 26//26 28//28
f 27//27 28//28 29//29
f 29//29 28//28 30//30
f 31//31 32//32 33//33
f 33//33 32//32 34//34
f 33//33 34//34 35//35
f 35//35 34//34 36//36
