# Rhino

mtllib Cyl600M.mtl
usemtl Default
v 41681.719639320392 600 -50127.124662116184
v 41682.207920550987 600 -50109.998013178585
v 41682.207920550987 0 -50109.998013178585
v 41681.719639320392 0 -50092.871364240986
v 41681.719639320392 600 -50092.871364240986
v 41677.817204172723 600 -50058.841360257415
v 41677.817204172723 0 -50058.841360257415
v 41670.05811024276 600 -50025.478257716568
v 41670.05811024276 0 -50025.478257716568
v 41658.54535435258 600 -49993.216991694091
v 41658.54535435258 0 -49993.216991694091
v 41643.431524386746 600 -49962.478147447975
v 41643.431524386746 0 -49962.478147447975
v 41624.914984595183 600 -49933.662454439698
v 41624.914984595183 0 -49933.662454439698
v 41603.232246198968 600 -49907.145548576293
v 41603.232246198968 0 -49907.145548576293
v 41578.669411481642 600 -49883.273144234292
v 41578.669411481642 0 -49883.273144234292
v 41551.543100303687 600 -49862.356440976997
v 41551.543100303687 0 -49862.356440976997
v 41522.208079496704 600 -49844.668152395163
v 41522.208079496704 0 -49844.668152395163
v 41491.053448166313 600 -49830.438825520323
v 41491.053448166313 0 -49830.438825520323
v 41458.475934812392 600 -49819.853966763454
v 41458.475934812392 0 -49819.853966763454
v 41424.902785511702 600 -49813.051586948764
v 41424.902785511702 0 -49813.051586948764
v 41390.776505129477 600 -49810.120365676965
v 41390.776505129477 0 -49810.120365676965
v 41356.535783833831 600 -49811.098516275917
v 41356.535783833831 0 -49811.098516275917
v 41322.630755884224 600 -49815.97326216456
v 41322.630755884224 0 -49815.97326216456
v 41289.503926145873 600 -49824.681069217877
v 41289.503926145873 0 -49824.681069217877
v 41257.586355392683 600 -49837.108434131405
v 41257.586355392683 0 -49837.108434131405
v 41227.290030912955 600 -49853.093305852279
v 41227.290030912955 0 -49853.093305852279
v 41199.015495903674 600 -49872.427356842069
v 41199.015495903674 0 -49872.427356842069
v 41173.128961287781 600 -49894.858476227186
v 41173.128961287781 0 -49894.858476227186
v 41149.966120411314 600 -49920.094292060763
v 41149.966120411314 0 -49920.094292060763
v 41129.832149043395 600 -49947.805779266128
v 41129.832149043395 0 -49947.805779266128
v 41112.990261284896 600 -49977.631689006819
v 41112.990261284896 0 -49977.631689006819
v 41099.657894871321 600 -50009.183197848666
v 41099.657894871321 0 -50009.183197848666
v 41090.006711172791 600 -50042.048989055591
v 41090.006711172791 0 -50042.048989055591
v 41084.166409891193 600 -50075.800594655651
v 41084.166409891193 0 -50075.800594655651
v 41082.209470271693 600 -50109.998013178585
v 41082.209470271693 0 -50109.998013178585
v 41084.166409891193 600 -50144.195431701519
v 41084.166409891193 0 -50144.195431701519
v 41090.006711172791 600 -50177.947037301579
v 41090.006711172791 0 -50177.947037301579
v 41099.657894871321 600 -50210.812828508504
v 41099.657894871321 0 -50210.812828508504
v 41112.990261284896 600 -50242.364337350351
v 41112.990261284896 0 -50242.364337350351
v 41129.832149043395 600 -50272.190261992204
v 41129.832149043395 0 -50272.190261992204
v 41149.966120411314 600 -50299.901741746988
v 41149.966120411314 0 -50299.901741746988
v 41173.128961287781 600 -50325.137572481726
v 41173.128961287781 0 -50325.137572481726
v 41199.015495903674 600 -50347.568647163367
v 41199.015495903674 0 -50347.568647163367
v 41227.290030912955 600 -50366.902724230182
v 41227.290030912955 0 -50366.902724230182
v 41257.586355392683 600 -50382.887616440152
v 41257.586355392683 0 -50382.887616440152
v 41289.503926145873 600 -50395.314945963422
v 41289.503926145873 0 -50395.314945963422
v 41322.630755884224 600 -50404.022766986578
v 41322.630755884224 0 -50404.022766986578
v 41356.535783833831 600 -50408.897532665826
v 41356.535783833831 0 -50408.897532665826
v 41390.776505129477 600 -50409.875644847722
v 41390.776505129477 0 -50409.875644847722
v 41424.902785511702 600 -50406.944467348076
v 41424.902785511702 0 -50406.944467348076
v 41458.475934812392 600 -50400.142087533386
v 41458.475934812392 0 -50400.142087533386
v 41491.053448166313 600 -50389.557197111557
v 41491.053448166313 0 -50389.557197111557
v 41522.208079496704 600 -50375.327900039039
v 41522.208079496704 0 -50375.327900039039
v 41551.543100303687 600 -50357.639566753722
v 41551.543100303687 0 -50357.639566753722
v 41578.669411481642 600 -50336.722867221717
v 41578.669411481642 0 -50336.722867221717
v 41603.232246198968 600 -50312.850492682039
v 41603.232246198968 0 -50312.850492682039
v 41624.914984595183 600 -50286.333579368053
v 41624.914984595183 0 -50286.333579368053
v 41643.431524386746 600 -50257.517893810356
v 41643.431524386746 0 -50257.517893810356
v 41658.54535435258 600 -50226.779034663079
v 41658.54535435258 0 -50226.779034663079
v 41670.05811024276 600 -50194.517783541763
v 41670.05811024276 0 -50194.517783541763
v 41677.817204172723 600 -50161.154681000917
v 41677.817204172723 0 -50161.154681000917
v 41681.719639320392 0 -50127.124662116184
v 41682.207920550987 600 -50109.998013178585
v 41681.719639320392 600 -50127.124662116184
v 41382.20869541134 600 -50109.998013178585
v 41681.719639320392 600 -50092.871364240986
v 41658.54535435258 600 -49993.216991694091
v 41670.05811024276 600 -50025.478257716568
v 41677.817204172723 600 -50058.841360257415
v 41603.232246198968 600 -49907.145548576293
v 41624.914984595183 600 -49933.662454439698
v 41643.431524386746 600 -49962.478147447975
v 41522.208079496704 600 -49844.668152395163
v 41551.543100303687 600 -49862.356440976997
v 41578.669411481642 600 -49883.273144234292
v 41424.902785511702 600 -49813.051586948764
v 41458.475934812392 600 -49819.853966763454
v 41491.053448166313 600 -49830.438825520323
v 41322.630755884224 600 -49815.97326216456
v 41356.535783833831 600 -49811.098516275917
v 41390.776505129477 600 -49810.120365676965
v 41227.290030912955 600 -49853.093305852279
v 41257.586355392683 600 -49837.108434131405
v 41289.503926145873 600 -49824.681069217877
v 41149.966120411314 600 -49920.094292060763
v 41173.128961287781 600 -49894.858476227186
v 41199.015495903674 600 -49872.427356842069
v 41099.657894871321 600 -50009.183197848666
v 41112.990261284896 600 -49977.631689006819
v 41129.832149043395 600 -49947.805779266128
v 41082.209470271693 600 -50109.998013178585
v 41084.166409891193 600 -50075.800594655651
v 41090.006711172791 600 -50042.048989055591
v 41099.657894871321 600 -50210.812828508504
v 41090.006711172791 600 -50177.947037301579
v 41084.166409891193 600 -50144.195431701519
v 41149.966120411314 600 -50299.901741746988
v 41129.832149043395 600 -50272.190261992204
v 41112.990261284896 600 -50242.364337350351
v 41227.290030912955 600 -50366.902724230182
v 41199.015495903674 600 -50347.568647163367
v 41173.128961287781 600 -50325.137572481726
v 41322.630755884224 600 -50404.022766986578
v 41289.503926145873 600 -50395.314945963422
v 41257.586355392683 600 -50382.887616440152
v 41424.902785511702 600 -50406.944467348076
v 41390.776505129477 600 -50409.875644847722
v 41356.535783833831 600 -50408.897532665826
v 41522.208079496704 600 -50375.327900039039
v 41491.053448166313 600 -50389.557197111557
v 41458.475934812392 600 -50400.142087533386
v 41603.232246198968 600 -50312.850492682039
v 41578.669411481642 600 -50336.722867221717
v 41551.543100303687 600 -50357.639566753722
v 41658.54535435258 600 -50226.779034663079
v 41643.431524386746 600 -50257.517893810356
v 41624.914984595183 600 -50286.333579368053
v 41677.817204172723 600 -50161.154681000917
v 41670.05811024276 600 -50194.517783541763
v 41682.207920550987 0 -50109.998013178585
v 41681.719639320392 0 -50092.871364240986
v 41382.20869541134 0 -50109.998013178585
v 41681.719639320392 0 -50127.124662116184
v 41658.54535435258 0 -50226.779034663079
v 41670.05811024276 0 -50194.517783541763
v 41677.817204172723 0 -50161.154681000917
v 41603.232246198968 0 -50312.850492682039
v 41624.914984595183 0 -50286.333579368053
v 41643.431524386746 0 -50257.517893810356
v 41522.208079496704 0 -50375.327900039039
v 41551.543100303687 0 -50357.639566753722
v 41578.669411481642 0 -50336.722867221717
v 41424.902785511702 0 -50406.944467348076
v 41458.475934812392 0 -50400.142087533386
v 41491.053448166313 0 -50389.557197111557
v 41322.630755884224 0 -50404.022766986578
v 41356.535783833831 0 -50408.897532665826
v 41390.776505129477 0 -50409.875644847722
v 41227.290030912955 0 -50366.902724230182
v 41257.586355392683 0 -50382.887616440152
v 41289.503926145873 0 -50395.314945963422
v 41149.966120411314 0 -50299.901741746988
v 41173.128961287781 0 -50325.137572481726
v 41199.015495903674 0 -50347.568647163367
v 41099.657894871321 0 -50210.812828508504
v 41112.990261284896 0 -50242.364337350351
v 41129.832149043395 0 -50272.190261992204
v 41082.209470271693 0 -50109.998013178585
v 41084.166409891193 0 -50144.195431701519
v 41090.006711172791 0 -50177.947037301579
v 41099.657894871321 0 -50009.183197848666
v 41090.006711172791 0 -50042.048989055591
v 41084.166409891193 0 -50075.800594655651
v 41149.966120411314 0 -49920.094292060763
v 41129.832149043395 0 -49947.805779266128
v 41112.990261284896 0 -49977.631689006819
v 41227.290030912955 0 -49853.093305852279
v 41199.015495903674 0 -49872.427356842069
v 41173.128961287781 0 -49894.858476227186
v 41322.630755884224 0 -49815.97326216456
v 41289.503926145873 0 -49824.681069217877
v 41257.586355392683 0 -49837.108434131405
v 41424.902785511702 0 -49813.051586948764
v 41390.776505129477 0 -49810.120365676965
v 41356.535783833831 0 -49811.098516275917
v 41522.208079496704 0 -49844.668152395163
v 41491.053448166313 0 -49830.438825520323
v 41458.475934812392 0 -49819.853966763454
v 41603.232246198968 0 -49907.145548576293
v 41578.669411481642 0 -49883.273144234292
v 41551.543100303687 0 -49862.356440976997
v 41658.54535435258 0 -49993.216991694091
v 41643.431524386746 0 -49962.478147447975
v 41624.914984595183 0 -49933.662454439698
v 41677.817204172723 0 -50058.841360257415
v 41670.05811024276 0 -50025.478257716568
v 41681.719639320392 600 -50127.124662116184
v 41682.207920550987 600 -50109.998013178585
v 41682.207920550987 0 -50109.998013178585
v 41681.719639320392 0 -50127.124662116184
v 41681.719639320392 0 -50092.871364240986
v 41681.719639320392 600 -50092.871364240986
v 41677.817204172723 600 -50058.841360257415
v 41677.817204172723 0 -50058.841360257415
v 41670.05811024276 600 -50025.478257716568
v 41670.05811024276 0 -50025.478257716568
v 41658.54535435258 600 -49993.216991694091
v 41658.54535435258 0 -49993.216991694091
v 41643.431524386746 600 -49962.478147447975
v 41643.431524386746 0 -49962.478147447975
v 41624.914984595183 600 -49933.662454439698
v 41624.914984595183 0 -49933.662454439698
v 41603.232246198968 600 -49907.145548576293
v 41603.232246198968 0 -49907.145548576293
v 41578.669411481642 600 -49883.273144234292
v 41578.669411481642 0 -49883.273144234292
v 41551.543100303687 600 -49862.356440976997
v 41551.543100303687 0 -49862.356440976997
v 41522.208079496704 600 -49844.668152395163
v 41522.208079496704 0 -49844.668152395163
v 41491.053448166313 600 -49830.438825520323
v 41491.053448166313 0 -49830.438825520323
v 41458.475934812392 600 -49819.853966763454
v 41458.475934812392 0 -49819.853966763454
v 41424.902785511702 600 -49813.051586948764
v 41424.902785511702 0 -49813.051586948764
v 41390.776505129477 600 -49810.120365676965
v 41390.776505129477 0 -49810.120365676965
v 41356.535783833831 600 -49811.098516275917
v 41356.535783833831 0 -49811.098516275917
v 41322.630755884224 600 -49815.97326216456
v 41322.630755884224 0 -49815.97326216456
v 41289.503926145873 600 -49824.681069217877
v 41289.503926145873 0 -49824.681069217877
v 41257.586355392683 600 -49837.108434131405
v 41257.586355392683 0 -49837.108434131405
v 41227.290030912955 600 -49853.093305852279
v 41227.290030912955 0 -49853.093305852279
v 41199.015495903674 600 -49872.427356842069
v 41199.015495903674 0 -49872.427356842069
v 41173.128961287781 600 -49894.858476227186
v 41173.128961287781 0 -49894.858476227186
v 41149.966120411314 600 -49920.094292060763
v 41149.966120411314 0 -49920.094292060763
v 41129.832149043395 600 -49947.805779266128
v 41129.832149043395 0 -49947.805779266128
v 41112.990261284896 600 -49977.631689006819
v 41112.990261284896 0 -49977.631689006819
v 41099.657894871321 600 -50009.183197848666
v 41099.657894871321 0 -50009.183197848666
v 41090.006711172791 600 -50042.048989055591
v 41090.006711172791 0 -50042.048989055591
v 41084.166409891193 600 -50075.800594655651
v 41084.166409891193 0 -50075.800594655651
v 41082.209470271693 600 -50109.998013178585
v 41082.209470271693 0 -50109.998013178585
v 41084.166409891193 600 -50144.195431701519
v 41084.166409891193 0 -50144.195431701519
v 41090.006711172791 600 -50177.947037301579
v 41090.006711172791 0 -50177.947037301579
v 41099.657894871321 600 -50210.812828508504
v 41099.657894871321 0 -50210.812828508504
v 41112.990261284896 600 -50242.364337350351
v 41112.990261284896 0 -50242.364337350351
v 41129.832149043395 600 -50272.190261992204
v 41129.832149043395 0 -50272.190261992204
v 41149.966120411314 600 -50299.901741746988
v 41149.966120411314 0 -50299.901741746988
v 41173.128961287781 600 -50325.137572481726
v 41173.128961287781 0 -50325.137572481726
v 41199.015495903674 600 -50347.568647163367
v 41199.015495903674 0 -50347.568647163367
v 41227.290030912955 600 -50366.902724230182
v 41227.290030912955 0 -50366.902724230182
v 41257.586355392683 600 -50382.887616440152
v 41257.586355392683 0 -50382.887616440152
v 41289.503926145873 600 -50395.314945963422
v 41289.503926145873 0 -50395.314945963422
v 41322.630755884224 600 -50404.022766986578
v 41322.630755884224 0 -50404.022766986578
v 41356.535783833831 600 -50408.897532665826
v 41356.535783833831 0 -50408.897532665826
v 41390.776505129477 600 -50409.875644847722
v 41390.776505129477 0 -50409.875644847722
v 41424.902785511702 600 -50406.944467348076
v 41424.902785511702 0 -50406.944467348076
v 41458.475934812392 600 -50400.142087533386
v 41458.475934812392 0 -50400.142087533386
v 41491.053448166313 600 -50389.557197111557
v 41491.053448166313 0 -50389.557197111557
v 41522.208079496704 600 -50375.327900039039
v 41522.208079496704 0 -50375.327900039039
v 41551.543100303687 600 -50357.639566753722
v 41551.543100303687 0 -50357.639566753722
v 41578.669411481642 600 -50336.722867221717
v 41578.669411481642 0 -50336.722867221717
v 41603.232246198968 600 -50312.850492682039
v 41603.232246198968 0 -50312.850492682039
v 41624.914984595183 600 -50286.333579368053
v 41624.914984595183 0 -50286.333579368053
v 41643.431524386746 600 -50257.517893810356
v 41643.431524386746 0 -50257.517893810356
v 41658.54535435258 600 -50226.779034663079
v 41658.54535435258 0 -50226.779034663079
v 41670.05811024276 600 -50194.517783541763
v 41670.05811024276 0 -50194.517783541763
v 41677.817204172723 600 -50161.154681000917
v 41677.817204172723 0 -50161.154681000917
vn 0.9934888482093811 0 -0.11392957717180252
vn 0.99959385395050049 0 0.028498448431491852
vn 0.99959385395050049 0 0.028498448431491852
vn 0.9934888482093811 0 0.1139296293258667
vn 0.9934888482093811 0 0.1139296293258667
vn 0.9740065336227417 0 0.22651994228363037
vn 0.9740065336227417 0 0.22651994228363037
vn 0.94182628393173218 0 0.33610013127326965
vn 0.94182628393173218 0 0.33610013127326965
vn 0.89739197492599487 0 0.44123420119285583
vn 0.89739197492599487 0 0.44123420119285583
vn 0.84128248691558838 0 0.54059576988220215
vn 0.84128248691558838 0 0.54059576988220215
vn 0.77414202690124512 0 0.63301193714141846
vn 0.77414202690124512 0 0.63301193714141846
vn 0.69695639610290527 0 0.71711355447769165
vn 0.69695639610290527 0 0.71711355447769165
vn 0.61063307523727417 0 0.79191362857818604
vn 0.61063307523727417 0 0.79191362857818604
vn 0.51636791229248047 0 0.85636681318283081
vn 0.51636791229248047 0 0.85636681318283081
vn 0.41545084118843079 0 0.90961563587188721
vn 0.41545084118843079 0 0.90961563587188721
vn 0.30901125073432922 0 0.95105838775634766
vn 0.30901125073432922 0 0.95105838775634766
vn 0.19857864081859589 0 0.98008495569229126
vn 0.19857864081859589 0 0.98008495569229126
vn 0.085578270256519318 0 0.99633145332336426
vn 0.085578270256519318 0 0.99633145332336426
vn -0.028555231168866158 0 0.99959224462509155
vn -0.028555231168866158 0 0.99959224462509155
vn -0.14231309294700623 0 0.9898216724395752
vn -0.14231309294700623 0 0.9898216724395752
vn -0.25422626733779907 0 0.96714478731155396
vn -0.25422626733779907 0 0.96714478731155396
vn -0.36282604932785034 0 0.93185687065124512
vn -0.36282604932785034 0 0.93185687065124512
vn -0.46664774417877197 0 0.88444328308105469
vn -0.46664774417877197 0 0.88444328308105469
vn -0.56445157527923584 0 0.82546621561050415
vn -0.56445157527923584 0 0.82546621561050415
vn -0.65486592054367065 0 0.75574511289596558
vn -0.65486592054367065 0 0.75574511289596558
vn -0.7367175817489624 0 0.67620056867599487
vn -0.7367175817489624 0 0.67620056867599487
vn -0.80901145935058594 0 0.58779287338256836
vn -0.80901145935058594 0 0.58779287338256836
vn -0.8707658052444458 0 0.4916979968547821
vn -0.8707658052444458 0 0.4916979968547821
vn -0.9211384654045105 0 0.38923510909080505
vn -0.9211384654045105 0 0.38923510909080505
vn -0.95948570966720581 0 0.28175720572471619
vn -0.95948570966720581 0 0.28175720572471619
vn -0.98535698652267456 0 0.17050394415855408
vn -0.98535698652267456 0 0.17050394415855408
vn -0.99836665391921997 0 0.057131309062242508
vn -0.99836665391921997 0 0.057131309062242508
vn -0.99836665391921997 0 -0.057131309062242508
vn -0.99836665391921997 0 -0.057131309062242508
vn -0.98535698652267456 0 -0.17050394415855408
vn -0.98535698652267456 0 -0.17050394415855408
vn -0.95948570966720581 0 -0.28175720572471619
vn -0.95948570966720581 0 -0.28175720572471619
vn -0.9211384654045105 0 -0.38923510909080505
vn -0.9211384654045105 0 -0.38923510909080505
vn -0.87076592445373535 0 -0.49169781804084778
vn -0.87076592445373535 0 -0.49169781804084778
vn -0.80901139974594116 0 -0.58779293298721313
vn -0.80901139974594116 0 -0.58779293298721313
vn -0.7367178201675415 0 -0.67620033025741577
vn -0.7367178201675415 0 -0.67620033025741577
vn -0.65486514568328857 0 -0.75574576854705811
vn -0.65486514568328857 0 -0.75574576854705811
vn -0.56445205211639404 0 -0.8254658579826355
vn -0.56445205211639404 0 -0.8254658579826355
vn -0.46664822101593018 0 -0.88444298505783081
vn -0.46664822101593018 0 -0.88444298505783081
vn -0.36282512545585632 0 -0.93185722827911377
vn -0.36282512545585632 0 -0.93185722827911377
vn -0.25422665476799011 0 -0.9671446681022644
vn -0.25422665476799011 0 -0.9671446681022644
vn -0.14231365919113159 0 -0.98982161283493042
vn -0.14231365919113159 0 -0.98982161283493042
vn -0.02855411171913147 0 -0.99959224462509155
vn -0.02855411171913147 0 -0.99959224462509155
vn 0.085576996207237244 0 -0.99633157253265381
vn 0.085576996207237244 0 -0.99633157253265381
vn 0.19857864081859589 0 -0.98008495569229126
vn 0.19857864081859589 0 -0.98008495569229126
vn 0.30901211500167847 0 -0.95105808973312378
vn 0.30901211500167847 0 -0.95105808973312378
vn 0.41545012593269348 0 -0.90961593389511108
vn 0.41545012593269348 0 -0.90961593389511108
vn 0.51636886596679688 0 -0.85636627674102783
vn 0.51636886596679688 0 -0.85636627674102783
vn 0.61063301563262939 0 -0.79191368818283081
vn 0.61063301563262939 0 -0.79191368818283081
vn 0.69695591926574707 0 -0.71711397171020508
vn 0.69695591926574707 0 -0.71711397171020508
vn 0.77414208650588989 0 -0.63301187753677368
vn 0.77414208650588989 0 -0.63301187753677368
vn 0.8412824273109436 0 -0.54059582948684692
vn 0.8412824273109436 0 -0.54059582948684692
vn 0.89739209413528442 0 -0.4412340521812439
vn 0.89739209413528442 0 -0.4412340521812439
vn 0.9418262243270874 0 -0.33610028028488159
vn 0.9418262243270874 0 -0.33610028028488159
vn 0.9740065336227417 0 -0.22651994228363037
vn 0.9740065336227417 0 -0.22651994228363037
vn 0.9934888482093811 0 -0.11392957717180252
vn 0.9934888482093811 0 -0.11392957717180252
vn 0.9934888482093811 0 -0.11392957717180252
vn 0 1 0
vn 0 1 0
vn 0 1 0
vn 0 1 0
vn 0 1 0
vn 0 1 0
vn 0 1 0
vn 0 1 0
vn 0 1 0
vn 0 1 0
vn 0 1 0
vn 0 1 0
vn 0 1 0
vn 0 1 0
vn 0 1 0
vn 0 1 0
vn 0 1 0
vn 0 1 0
vn 0 1 0
vn 0 1 0
vn 0 1 0
vn 0 1 0
vn 0 1 0
vn 0 1 0
vn 0 1 0
vn 0 1 0
vn 0 1 0
vn 0 1 0
vn 0 1 0
vn 0 1 0
vn 0 1 0
vn 0 1 0
vn 0 1 0
vn 0 1 0
vn 0 1 0
vn 0 1 0
vn 0 1 0
vn 0 1 0
vn 0 1 0
vn 0 1 0
vn 0 1 0
vn 0 1 0
vn 0 1 0
vn 0 1 0
vn 0 1 0
vn 0 1 0
vn 0 1 0
vn 0 1 0
vn 0 1 0
vn 0 1 0
vn 0 1 0
vn 0 1 0
vn 0 1 0
vn 0 1 0
vn 0 1 0
vn 0 1 0
vn 0 1 0
vn 0 -1 0
vn 0 -1 0
vn 0 -1 0
vn 0 -1 0
vn 0 -1 0
vn 0 -1 0
vn 0 -1 0
vn 0 -1 0
vn 0 -1 0
vn 0 -1 0
vn 0 -1 0
vn 0 -1 0
vn 0 -1 0
vn 0 -1 0
vn 0 -1 0
vn 0 -1 0
vn 0 -1 0
vn 0 -1 0
vn 0 -1 0
vn 0 -1 0
vn 0 -1 0
vn 0 -1 0
vn 0 -1 0
vn 0 -1 0
vn 0 -1 0
vn 0 -1 0
vn 0 -1 0
vn 0 -1 0
vn 0 -1 0
vn 0 -1 0
vn 0 -1 0
vn 0 -1 0
vn 0 -1 0
vn 0 -1 0
vn 0 -1 0
vn 0 -1 0
vn 0 -1 0
vn 0 -1 0
vn 0 -1 0
vn 0 -1 0
vn 0 -1 0
vn 0 -1 0
vn 0 -1 0
vn 0 -1 0
vn 0 -1 0
vn 0 -1 0
vn 0 -1 0
vn 0 -1 0
vn 0 -1 0
vn 0 -1 0
vn 0 -1 0
vn 0 -1 0
vn 0 -1 0
vn 0 -1 0
vn 0 -1 0
vn 0 -1 0
vn 0 -1 0
vn 0.99959385395050049 0 -0.028498448431491852
vn 0.99959385395050049 0 -0.028498448431491852
vn 0.99959385395050049 0 -0.028498448431491852
vn 0.99959385395050049 0 -0.028498448431491852
vn 0.99959385395050049 0 0.028498448431491852
vn 0.99959385395050049 0 0.028498448431491852
vn 0.9934888482093811 0 0.1139296293258667
vn 0.9934888482093811 0 0.1139296293258667
vn 0.9740065336227417 0 0.22651994228363037
vn 0.9740065336227417 0 0.22651994228363037
vn 0.94182628393173218 0 0.33610013127326965
vn 0.94182628393173218 0 0.33610013127326965
vn 0.89739197492599487 0 0.44123420119285583
vn 0.89739197492599487 0 0.44123420119285583
vn 0.84128248691558838 0 0.54059576988220215
vn 0.84128248691558838 0 0.54059576988220215
vn 0.77414202690124512 0 0.63301193714141846
vn 0.77414202690124512 0 0.63301193714141846
vn 0.69695639610290527 0 0.71711355447769165
vn 0.69695639610290527 0 0.71711355447769165
vn 0.61063307523727417 0 0.79191362857818604
vn 0.61063307523727417 0 0.79191362857818604
vn 0.51636791229248047 0 0.85636681318283081
vn 0.51636791229248047 0 0.85636681318283081
vn 0.41545084118843079 0 0.90961563587188721
vn 0.41545084118843079 0 0.90961563587188721
vn 0.30901125073432922 0 0.95105838775634766
vn 0.30901125073432922 0 0.95105838775634766
vn 0.19857864081859589 0 0.98008495569229126
vn 0.19857864081859589 0 0.98008495569229126
vn 0.085578270256519318 0 0.99633145332336426
vn 0.085578270256519318 0 0.99633145332336426
vn -0.028555231168866158 0 0.99959224462509155
vn -0.028555231168866158 0 0.99959224462509155
vn -0.14231309294700623 0 0.9898216724395752
vn -0.14231309294700623 0 0.9898216724395752
vn -0.25422626733779907 0 0.96714478731155396
vn -0.25422626733779907 0 0.96714478731155396
vn -0.36282604932785034 0 0.93185687065124512
vn -0.36282604932785034 0 0.93185687065124512
vn -0.46664774417877197 0 0.88444328308105469
vn -0.46664774417877197 0 0.88444328308105469
vn -0.56445157527923584 0 0.82546621561050415
vn -0.56445157527923584 0 0.82546621561050415
vn -0.65486592054367065 0 0.75574511289596558
vn -0.65486592054367065 0 0.75574511289596558
vn -0.7367175817489624 0 0.67620056867599487
vn -0.7367175817489624 0 0.67620056867599487
vn -0.80901145935058594 0 0.58779287338256836
vn -0.80901145935058594 0 0.58779287338256836
vn -0.8707658052444458 0 0.4916979968547821
vn -0.8707658052444458 0 0.4916979968547821
vn -0.9211384654045105 0 0.38923510909080505
vn -0.9211384654045105 0 0.38923510909080505
vn -0.95948570966720581 0 0.28175720572471619
vn -0.95948570966720581 0 0.28175720572471619
vn -0.98535698652267456 0 0.17050394415855408
vn -0.98535698652267456 0 0.17050394415855408
vn -0.99836665391921997 0 0.057131309062242508
vn -0.99836665391921997 0 0.057131309062242508
vn -0.99836665391921997 0 -0.057131309062242508
vn -0.99836665391921997 0 -0.057131309062242508
vn -0.98535698652267456 0 -0.17050394415855408
vn -0.98535698652267456 0 -0.17050394415855408
vn -0.95948570966720581 0 -0.28175720572471619
vn -0.95948570966720581 0 -0.28175720572471619
vn -0.9211384654045105 0 -0.38923510909080505
vn -0.9211384654045105 0 -0.38923510909080505
vn -0.87076592445373535 0 -0.49169781804084778
vn -0.87076592445373535 0 -0.49169781804084778
vn -0.80901139974594116 0 -0.58779293298721313
vn -0.80901139974594116 0 -0.58779293298721313
vn -0.7367178201675415 0 -0.67620033025741577
vn -0.7367178201675415 0 -0.67620033025741577
vn -0.65486514568328857 0 -0.75574576854705811
vn -0.65486514568328857 0 -0.75574576854705811
vn -0.56445205211639404 0 -0.8254658579826355
vn -0.56445205211639404 0 -0.8254658579826355
vn -0.46664822101593018 0 -0.88444298505783081
vn -0.46664822101593018 0 -0.88444298505783081
vn -0.36282512545585632 0 -0.93185722827911377
vn -0.36282512545585632 0 -0.93185722827911377
vn -0.25422665476799011 0 -0.9671446681022644
vn -0.25422665476799011 0 -0.9671446681022644
vn -0.14231365919113159 0 -0.98982161283493042
vn -0.14231365919113159 0 -0.98982161283493042
vn -0.02855411171913147 0 -0.99959224462509155
vn -0.02855411171913147 0 -0.99959224462509155
vn 0.085576996207237244 0 -0.99633157253265381
vn 0.085576996207237244 0 -0.99633157253265381
vn 0.19857864081859589 0 -0.98008495569229126
vn 0.19857864081859589 0 -0.98008495569229126
vn 0.30901211500167847 0 -0.95105808973312378
vn 0.30901211500167847 0 -0.95105808973312378
vn 0.41545012593269348 0 -0.90961593389511108
vn 0.41545012593269348 0 -0.90961593389511108
vn 0.51636886596679688 0 -0.85636627674102783
vn 0.51636886596679688 0 -0.85636627674102783
vn 0.61063301563262939 0 -0.79191368818283081
vn 0.61063301563262939 0 -0.79191368818283081
vn 0.69695591926574707 0 -0.71711397171020508
vn 0.69695591926574707 0 -0.71711397171020508
vn 0.77414208650588989 0 -0.63301187753677368
vn 0.77414208650588989 0 -0.63301187753677368
vn 0.8412824273109436 0 -0.54059582948684692
vn 0.8412824273109436 0 -0.54059582948684692
vn 0.89739209413528442 0 -0.4412340521812439
vn 0.89739209413528442 0 -0.4412340521812439
vn 0.9418262243270874 0 -0.33610028028488159
vn 0.9418262243270874 0 -0.33610028028488159
vn 0.9740065336227417 0 -0.22651994228363037
vn 0.9740065336227417 0 -0.22651994228363037
f 227//227 228//228 229//229
f 3//3 2//2 231//231
f 2//2 232//232 231//231
f 4//4 5//5 233//233
f 4//4 233//233 234//234
f 7//7 6//6 235//235
f 7//7 235//235 236//236
f 9//9 8//8 237//237
f 9//9 237//237 238//238
f 11//11 10//10 239//239
f 11//11 239//239 240//240
f 13//13 12//12 241//241
f 13//13 241//241 242//242
f 15//15 14//14 243//243
f 15//15 243//243 244//244
f 17//17 16//16 245//245
f 17//17 245//245 246//246
f 19//19 18//18 247//247
f 19//19 247//247 248//248
f 21//21 20//20 249//249
f 21//21 249//249 250//250
f 23//23 22//22 251//251
f 23//23 251//251 252//252
f 25//25 24//24 253//253
f 25//25 253//253 254//254
f 27//27 26//26 255//255
f 27//27 255//255 256//256
f 29//29 28//28 257//257
f 29//29 257//257 258//258
f 31//31 30//30 259//259
f 31//31 259//259 260//260
f 33//33 32//32 261//261
f 33//33 261//261 262//262
f 35//35 34//34 263//263
f 35//35 263//263 264//264
f 37//37 36//36 265//265
f 37//37 265//265 266//266
f 39//39 38//38 267//267
f 39//39 267//267 268//268
f 41//41 40//40 269//269
f 41//41 269//269 270//270
f 43//43 42//42 271//271
f 43//43 271//271 272//272
f 45//45 44//44 273//273
f 45//45 273//273 274//274
f 47//47 46//46 275//275
f 47//47 275//275 276//276
f 49//49 48//48 277//277
f 49//49 277//277 278//278
f 51//51 50//50 279//279
f 51//51 279//279 280//280
f 53//53 52//52 281//281
f 53//53 281//281 282//282
f 55//55 54//54 283//283
f 55//55 283//283 284//284
f 57//57 56//56 285//285
f 57//57 285//285 286//286
f 59//59 58//58 287//287
f 59//59 287//287 288//288
f 61//61 60//60 289//289
f 61//61 289//289 290//290
f 63//63 62//62 291//291
f 63//63 291//291 292//292
f 65//65 64//64 293//293
f 65//65 293//293 294//294
f 67//67 66//66 295//295
f 67//67 295//295 296//296
f 69//69 68//68 297//297
f 69//69 297//297 298//298
f 71//71 70//70 299//299
f 71//71 299//299 300//300
f 73//73 72//72 301//301
f 73//73 301//301 302//302
f 75//75 74//74 303//303
f 75//75 303//303 304//304
f 77//77 76//76 305//305
f 77//77 305//305 306//306
f 79//79 78//78 307//307
f 79//79 307//307 308//308
f 81//81 80//80 309//309
f 81//81 309//309 310//310
f 83//83 82//82 311//311
f 83//83 311//311 312//312
f 85//85 84//84 313//313
f 85//85 313//313 314//314
f 87//87 86//86 315//315
f 87//87 315//315 316//316
f 89//89 88//88 317//317
f 89//89 317//317 318//318
f 91//91 90//90 319//319
f 91//91 319//319 320//320
f 93//93 92//92 321//321
f 93//93 321//321 322//322
f 95//95 94//94 323//323
f 95//95 323//323 324//324
f 97//97 96//96 325//325
f 97//97 325//325 326//326
f 99//99 98//98 327//327
f 99//99 327//327 328//328
f 101//101 100//100 329//329
f 101//101 329//329 330//330
f 103//103 102//102 331//331
f 103//103 331//331 332//332
f 105//105 104//104 333//333
f 105//105 333//333 334//334
f 107//107 106//106 335//335
f 107//107 335//335 336//336
f 109//109 108//108 337//337
f 109//109 337//337 338//338
f 111//111 110//110 1//1
f 111//111 1//1 112//112
f 230//230 227//227 229//229
f 113//113 114//114 115//115
f 113//113 115//115 116//116
f 117//117 118//118 115//115
f 115//115 118//118 119//119
f 115//115 119//119 116//116
f 120//120 121//121 115//115
f 115//115 121//121 122//122
f 115//115 122//122 117//117
f 123//123 124//124 115//115
f 115//115 124//124 125//125
f 115//115 125//125 120//120
f 126//126 127//127 115//115
f 115//115 127//127 128//128
f 115//115 128//128 123//123
f 129//129 130//130 115//115
f 115//115 130//130 131//131
f 115//115 131//131 126//126
f 132//132 133//133 115//115
f 115//115 133//133 134//134
f 115//115 134//134 129//129
f 135//135 136//136 115//115
f 115//115 136//136 137//137
f 115//115 137//137 132//132
f 138//138 139//139 115//115
f 115//115 139//139 140//140
f 115//115 140//140 135//135
f 141//141 142//142 115//115
f 115//115 142//142 143//143
f 115//115 143//143 138//138
f 144//144 145//145 115//115
f 115//115 145//145 146//146
f 115//115 146//146 141//141
f 147//147 148//148 115//115
f 115//115 148//148 149//149
f 115//115 149//149 144//144
f 150//150 151//151 115//115
f 115//115 151//151 152//152
f 115//115 152//152 147//147
f 153//153 154//154 115//115
f 115//115 154//154 155//155
f 115//115 155//155 150//150
f 156//156 157//157 115//115
f 115//115 157//157 158//158
f 115//115 158//158 153//153
f 159//159 160//160 115//115
f 115//115 160//160 161//161
f 115//115 161//161 156//156
f 162//162 163//163 115//115
f 115//115 163//163 164//164
f 115//115 164//164 159//159
f 165//165 166//166 115//115
f 115//115 166//166 167//167
f 115//115 167//167 162//162
f 114//114 168//168 115//115
f 115//115 168//168 169//169
f 115//115 169//169 165//165
f 170//170 171//171 172//172
f 170//170 172//172 173//173
f 174//174 175//175 172//172
f 172//172 175//175 176//176
f 172//172 176//176 173//173
f 177//177 178//178 172//172
f 172//172 178//178 179//179
f 172//172 179//179 174//174
f 180//180 181//181 172//172
f 172//172 181//181 182//182
f 172//172 182//182 177//177
f 183//183 184//184 172//172
f 172//172 184//184 185//185
f 172//172 185//185 180//180
f 186//186 187//187 172//172
f 172//172 187//187 188//188
f 172//172 188//188 183//183
f 189//189 190//190 172//172
f 172//172 190//190 191//191
f 172//172 191//191 186//186
f 192//192 193//193 172//172
f 172//172 193//193 194//194
f 172//172 194//194 189//189
f 195//195 196//196 172//172
f 172//172 196//196 197//197
f 172//172 197//197 192//192
f 198//198 199//199 172//172
f 172//172 199//199 200//200
f 172//172 200//200 195//195
f 201//201 202//202 172//172
f 172//172 202//202 203//203
f 172//172 203//203 198//198
f 204//204 205//205 172//172
f 172//172 205//205 206//206
f 172//172 206//206 201//201
f 207//207 208//208 172//172
f 172//172 208//208 209//209
f 172//172 209//209 204//204
f 210//210 211//211 172//172
f 172//172 211//211 212//212
f 172//172 212//212 207//207
f 213//213 214//214 172//172
f 172//172 214//214 215//215
f 172//172 215//215 210//210
f 216//216 217//217 172//172
f 172//172 217//217 218//218
f 172//172 218//218 213//213
f 219//219 220//220 172//172
f 172//172 220//220 221//221
f 172//172 221//221 216//216
f 222//222 223//223 172//172
f 172//172 223//223 224//224
f 172//172 224//224 219//219
f 171//171 225//225 172//172
f 172//172 225//225 226//226
f 172//172 226//226 222//222
