# Rhino

mtllib Star600M.mtl
usemtl Default
v 44362.99162225757 0 -149852.1219004344
v 44286.922747106444 0 -150093.14997620782
v 44492.649362466764 0 -149946.32267171849
v 44698.375977827076 0 -150093.14997620782
v 44622.30710267595 0 -149852.1219004344
v 44825.519832638114 0 -149701.8380929296
v 44572.780890044342 0 -149699.70186254574
v 44492.649362466764 0 -149459.99405940398
v 44412.517834889179 0 -149699.70186254574
v 44159.778892295406 0 -149701.8380929296
v 44492.649362466764 600 -149946.32267171849
v 44286.922747106444 600 -150093.14997620782
v 44362.99162225757 600 -149852.1219004344
v 44159.778892295406 600 -149701.8380929296
v 44412.517834889179 600 -149699.70186254574
v 44492.649362466764 600 -149459.99405940398
v 44572.780890044342 600 -149699.70186254574
v 44825.519832638114 600 -149701.8380929296
v 44622.30710267595 600 -149852.1219004344
v 44698.375977827076 600 -150093.14997620782
v 44159.778892295406 0 -149701.8380929296
v 44412.517834889179 0 -149699.70186254574
v 44412.517834889179 600 -149699.70186254574
v 44159.778892295406 600 -149701.8380929296
v 44492.649362466764 0 -149946.32267171849
v 44286.922747106444 0 -150093.14997620782
v 44286.922747106444 600 -150093.14997620782
v 44492.649362466764 600 -149946.32267171849
v 44825.519832638114 0 -149701.8380929296
v 44622.30710267595 0 -149852.1219004344
v 44622.30710267595 600 -149852.1219004344
v 44825.519832638114 600 -149701.8380929296
v 44412.517834889179 0 -149699.70186254574
v 44492.649362466764 0 -149459.99405940398
v 44492.649362466764 600 -149459.99405940398
v 44412.517834889179 600 -149699.70186254574
v 44286.922747106444 0 -150093.14997620782
v 44362.99162225757 0 -149852.1219004344
v 44362.99162225757 600 -149852.1219004344
v 44286.922747106444 600 -150093.14997620782
v 44622.30710267595 0 -149852.1219004344
v 44698.375977827076 0 -150093.14997620782
v 44698.375977827076 600 -150093.14997620782
v 44622.30710267595 600 -149852.1219004344
v 44492.649362466764 0 -149459.99405940398
v 44572.780890044342 0 -149699.70186254574
v 44572.780890044342 600 -149699.70186254574
v 44492.649362466764 600 -149459.99405940398
v 44362.99162225757 0 -149852.1219004344
v 44159.778892295406 0 -149701.8380929296
v 44159.778892295406 600 -149701.8380929296
v 44362.99162225757 600 -149852.1219004344
v 44698.375977827076 0 -150093.14997620782
v 44492.649362466764 0 -149946.32267171849
v 44492.649362466764 600 -149946.32267171849
v 44698.375977827076 600 -150093.14997620782
v 44572.780890044342 0 -149699.70186254574
v 44825.519832638114 0 -149701.8380929296
v 44825.519832638114 600 -149701.8380929296
v 44572.780890044342 600 -149699.70186254574
vn 0 -1 0
vn 0 -1 0
vn 0 -1 0
vn 0 -1 0
vn 0 -1 0
vn 0 -1 0
vn 0 -1 0
vn 0 -1 0
vn 0 -1 0
vn 0 -1 0
vn 0 1 0
vn 0 1 0
vn 0 1 0
vn 0 1 0
vn 0 1 0
vn 0 1 0
vn 0 1 0
vn 0 1 0
vn 0 1 0
vn 0 1 0
vn -0.0084520177915692329 0 0.99996429681777954
vn -0.0084520177915692329 0 0.99996429681777954
vn -0.0084520177915692329 0 0.99996429681777954
vn -0.0084520177915692329 0 0.99996429681777954
vn 0.58092302083969116 0 -0.81395846605300903
vn 0.58092302083969116 0 -0.81395846605300903
vn 0.58092302083969116 0 -0.81395846605300903
vn 0.58092302083969116 0 -0.81395846605300903
vn 0.59460365772247314 0 -0.80401897430419922
vn 0.59460365772247314 0 -0.80401897430419922
vn 0.59460365772247314 0 -0.80401897430419922
vn 0.59460365772247314 0 -0.80401897430419922
vn -0.94841122627258301 0 0.31704282760620117
vn -0.94841122627258301 0 0.31704282760620117
vn -0.94841122627258301 0 0.31704282760620117
vn -0.94841122627258301 0 0.31704282760620117
vn -0.95363408327102661 0 0.30096855759620667
vn -0.95363408327102661 0 0.30096855759620667
vn -0.95363408327102661 0 0.30096855759620667
vn -0.95363408327102661 0 0.30096855759620667
vn 0.95363408327102661 0 0.30096855759620667
vn 0.95363408327102661 0 0.30096855759620667
vn 0.95363408327102661 0 0.30096855759620667
vn 0.95363408327102661 0 0.30096855759620667
vn 0.94841122627258301 0 0.31704282760620117
vn 0.94841122627258301 0 0.31704282760620117
vn 0.94841122627258301 0 0.31704282760620117
vn 0.94841122627258301 0 0.31704282760620117
vn -0.59460365772247314 0 -0.80401897430419922
vn -0.59460365772247314 0 -0.80401897430419922
vn -0.59460365772247314 0 -0.80401897430419922
vn -0.59460365772247314 0 -0.80401897430419922
vn -0.58092302083969116 0 -0.81395846605300903
vn -0.58092302083969116 0 -0.81395846605300903
vn -0.58092302083969116 0 -0.81395846605300903
vn -0.58092302083969116 0 -0.81395846605300903
vn 0.0084520177915692329 0 0.99996429681777954
vn 0.0084520177915692329 0 0.99996429681777954
vn 0.0084520177915692329 0 0.99996429681777954
vn 0.0084520177915692329 0 0.99996429681777954
f 1//1 2//2 3//3
f 3//3 4//4 5//5
f 5//5 6//6 7//7
f 7//7 8//8 9//9
f 9//9 10//10 1//1
f 1//1 3//3 5//5
f 5//5 7//7 9//9
f 5//5 9//9 1//1
f 11//11 12//12 13//13
f 13//13 14//14 15//15
f 15//15 16//16 17//17
f 17//17 18//18 19//19
f 19//19 20//20 11//11
f 11//11 13//13 15//15
f 15//15 17//17 19//19
f 15//15 19//19 11//11
f 21//21 22//22 23//23
f 21//21 23//23 24//24
f 25//25 26//26 27//27
f 25//25 27//27 28//28
f 29//29 30//30 31//31
f 29//29 31//31 32//32
f 33//33 34//34 35//35
f 33//33 35//35 36//36
f 37//37 38//38 39//39
f 37//37 39//39 40//40
f 41//41 42//42 43//43
f 41//41 43//43 44//44
f 45//45 46//46 47//47
f 45//45 47//47 48//48
f 49//49 50//50 51//51
f 49//49 51//51 52//52
f 53//53 54//54 55//55
f 53//53 55//55 56//56
f 57//57 58//58 59//59
f 57//57 59//59 60//60
