# https://github.com/mikedh/trimesh
v -14.52350107 -21.12701072 4.92028407
v -14.52350107 -20.68256627 4.92028407
v -13.80913967 -20.68256627 2.51790748
v -13.56501854 -20.68256627 -0.04410063
v -13.83867814 -20.68256627 -2.66588549
v -14.63982814 -20.68256627 -5.19983184
v -15.93440161 -20.68256627 -7.51860278
v -17.62941402 -20.68256627 -9.49072073
v -19.59367963 -20.68256627 -11.03439054
v -21.75502013 -21.12701072 -12.15330991
v -21.75502013 -20.68256627 -12.15330991
v -26.67605760 -21.12701072 -13.11186450
v -14.13048214 -21.12701072 3.80841681
v -13.83093685 -21.12701072 2.62681306
v -13.63853878 -21.12701072 1.38645131
v -13.56534491 -21.12701072 0.10147808
v -13.62093013 -21.12701072 -1.21107778
v -13.81158277 -21.12701072 -2.53186436
v -14.13966115 -21.12701072 -3.84002366
v -14.60320366 -21.12701072 -5.11420927
v -15.19586096 -21.12701072 -6.33370864
v -15.90717400 -21.12701072 -7.47954876
v -16.72317504 -21.12701072 -8.53546883
v -17.62724303 -21.12701072 -9.48864978
v -18.60110134 -21.12701072 -10.33014402
v -19.62585872 -21.12701072 -11.05498058
v -20.68296517 -21.12701072 -11.66197436
v -22.88942591 -21.12701072 -12.55314953
v -24.09612888 -21.12701072 -12.85552701
v -25.36339028 -21.12701072 -13.04598807
v -26.67235364 -20.68256627 -13.11186450
v -27.85414907 -21.12701072 -13.05882919
v -29.06179533 -21.12701072 -12.89297971
v -30.28368758 -21.12701072 -12.60576183
v -31.50218836 -21.12701072 -12.19131108
v -32.69792005 -21.12701072 -11.64714367
v -33.85058508 -21.12701072 -10.97469477
v -34.93996598 -21.12701072 -10.17960589
v -35.94701300 -21.12701072 -9.27170879
v -36.85491010 -21.12701072 -8.26466177
v -37.64999898 -21.12701072 -7.17528087
v -38.32244788 -21.12701072 -6.02261584
v -38.86661529 -21.12701072 -4.82688415
v -39.28106604 -21.12701072 -3.60838338
v -39.56828392 -21.12701072 -2.38649112
v -39.73413340 -21.12701072 -1.17884486
v -39.78716871 -21.12701072 -0.00075339
v -39.73413340 -21.12701072 1.17733809
v -39.56828392 -21.12701072 2.38498435
v -39.28106604 -21.12701072 3.60687660
v -38.86661529 -21.12701072 4.82537737
v -38.32244788 -21.12701072 6.02110907
v -37.64999898 -21.12701072 7.17377410
v -36.85491010 -21.12701072 8.26315500
v -35.94701300 -21.12701072 9.27020202
v -34.93996598 -21.12701072 10.17809912
v -33.85058508 -21.12701072 10.97318799
v -32.69792005 -21.12701072 11.64563689
v -31.50218836 -21.12701072 12.18980430
v -30.28368758 -21.12701072 12.60425506
v -29.06179533 -21.12701072 12.89147294
v -27.85414907 -21.12701072 13.05732241
v -26.67605760 -21.12701072 13.11035772
v -25.69849331 -21.12701072 13.07386294
v -24.71435377 -21.12701072 12.96277048
v -23.73214170 -21.12701072 12.77557565
v -22.76065444 -21.12701072 12.51207417
v -21.80873531 -21.12701072 12.17341637
v -20.88501145 -21.12701072 11.76211232
v -19.99763488 -21.12701072 11.28197248
v -19.15404595 -21.12701072 10.73798817
v -18.36076693 -21.12701072 10.13616797
v -17.62324523 -21.12701072 9.48332915
v -16.33131662 -21.12701072 8.05452836
v -15.29772016 -21.12701072 6.51343686
v -26.67235364 -20.68256627 -13.11186365
v -29.22157859 -20.68256627 -12.86238499
v -31.70955784 -20.68256627 -12.10716140
v -33.97932349 -20.68256627 -10.88944222
v -36.04991573 -20.68256627 -9.16765148
v -37.66731601 -20.68256627 -7.14872380
v -38.82861412 -20.68256627 -4.92179085
v -39.53100585 -20.68256627 -2.57981193
v -39.78716786 -20.68256627 -0.00638813
v -39.52016703 -20.68256627 2.63175076
v -38.71928998 -20.68256627 5.18208209
v -37.41869862 -20.68256627 7.51568881
v -35.71283128 -20.68256627 9.49861253
v -33.73525322 -20.68256627 11.04773057
v -31.59709506 -20.68256627 12.15180314
v -29.21758439 -20.68256627 12.86166744
v -26.64144833 -20.68256627 13.11031195
v -24.00403255 -20.68256627 12.83519259
v -21.45581775 -20.68256627 12.02631316
v -19.12663438 -20.68256627 10.71873582
v -17.14981841 -20.68256627 9.00768727
v -15.60761345 -20.68256627 7.02710365
v 26.65727574 -21.12701072 -13.11186450
v 24.11643983 -20.68256627 -12.86331069
v 21.62068516 -20.68256627 -12.10587542
v 19.25846185 -20.68256627 -10.82474495
v 17.20190600 -20.68256627 -9.08355012
v 15.57342021 -20.68256627 -7.00427732
v 14.43170675 -20.68256627 -4.73749265
v 13.76102194 -20.68256627 -2.36462825
v 13.54640538 -20.68256627 0.07843147
v 13.81895448 -20.68256627 2.65984494
v 14.62146845 -20.68256627 5.19930036
v 15.93302918 -20.68256627 7.54191019
v 17.69322205 -20.68256627 9.56726521
v 19.78052606 -20.68256627 11.16220031
v 22.04514737 -20.68256627 12.27236792
v 24.34000821 -21.12701072 12.90395548
v 24.34000821 -20.68256627 12.90395548
v 25.55894132 -21.12701072 -13.06577872
v 24.44341194 -21.12701072 -12.92360241
v 23.32299297 -21.12701072 -12.68080795
v 22.21109857 -21.12701072 -12.33496410
v 21.12178718 -21.12701072 -11.88602170
v 20.06922574 -21.12701072 -11.33648659
v 19.06712342 -21.12701072 -10.69144078
v 18.12812806 -21.12701072 -9.95840601
v 17.26332093 -21.12701072 -9.14705550
v 16.48177932 -21.12701072 -8.26879521
v 15.79027812 -21.12701072 -7.33625347
v 15.19313050 -21.12701072 -6.36271899
v 14.69221497 -21.12701072 -5.36158899
v 14.28709751 -21.12701072 -4.34585421
v 13.97528586 -21.12701072 -3.32766955
v 13.75256857 -21.12701072 -2.31802133
v 13.59655254 -21.12701072 -1.14910251
v 13.54634773 -21.12701072 0.06884468
v 13.61308628 -21.12701072 1.32226416
v 13.80565559 -21.12701072 2.59483275
v 14.12992181 -21.12701072 3.86791718
v 14.58806187 -21.12701072 5.12128598
v 15.17809551 -21.12701072 6.33404182
v 15.89371237 -21.12701072 7.48569766
v 16.72444493 -21.12701072 8.55728850
v 17.65614998 -21.12701072 9.53239803
v 18.67181906 -21.12701072 10.39798420
v 19.75255162 -21.12701072 11.14491973
v 20.87861973 -21.12701072 11.76820481
v 22.03051250 -21.12701072 12.26685865
v 23.18983460 -21.12701072 12.64353796
v 26.65357294 -20.68256627 -13.11186450
v 25.47531976 -21.12701072 13.05697315
v 26.65727574 -21.12701072 13.11035772
v 27.83536615 -21.12701072 13.05732241
v 29.04301453 -21.12701072 12.89147294
v 30.26490784 -21.12701072 12.60425506
v 31.48340692 -21.12701072 12.18980430
v 32.67913989 -21.12701072 11.64563689
v 33.83180238 -21.12701072 10.97318799
v 34.92118497 -21.12701072 10.17809912
v 35.92823114 -21.12701072 9.27020202
v 36.83612909 -21.12701072 8.26315500
v 37.63121373 -21.12701072 7.17377410
v 38.30366517 -21.12701072 6.02110907
v 38.84783428 -21.12701072 4.82537737
v 39.26228333 -21.12701072 3.60687660
v 39.54950121 -21.12701072 2.38498435
v 39.71535408 -21.12701072 1.17733809
v 39.76838685 -21.12701072 -0.00075339
v 39.71535408 -21.12701072 -1.17884486
v 39.54950121 -21.12701072 -2.38649112
v 39.26228333 -21.12701072 -3.60838338
v 38.84783428 -21.12701072 -4.82688415
v 38.30366517 -21.12701072 -6.02261584
v 37.63121373 -21.12701072 -7.17528087
v 36.83612909 -21.12701072 -8.26466177
v 35.92823114 -21.12701072 -9.27170879
v 34.92118497 -21.12701072 -10.17960589
v 33.83180238 -21.12701072 -10.97469477
v 32.67913989 -21.12701072 -11.64714367
v 31.48340692 -21.12701072 -12.19131108
v 30.26490784 -21.12701072 -12.60576183
v 29.04301453 -21.12701072 -12.89297971
v 27.83536615 -21.12701072 -13.05882919
v 26.83425056 -20.68256627 13.10916330
v 29.38782248 -20.68256627 12.82287112
v 31.89422778 -20.68256627 12.01904489
v 34.20717537 -20.68256627 10.71839758
v 36.20978632 -20.68256627 8.97982726
v 37.79263815 -20.68256627 6.92058247
v 38.90242683 -20.68256627 4.68513723
v 39.56198629 -20.68256627 2.31651456
v 39.76822409 -20.68256627 -0.06675099
v 39.50469463 -20.68256627 -2.61706308
v 38.72334290 -20.68256627 -5.13021150
v 37.44406637 -20.68256627 -7.45369613
v 35.72273933 -20.68256627 -9.47274418
v 33.67474536 -20.68256627 -11.07578679
v 31.44397821 -20.68256627 -12.20684622
v 29.08221267 -20.68256627 -12.88566397
v 26.65357294 -20.68256627 -13.11186365
v -0.00939093 41.09632370 9.55480217
v -1.74814859 41.09631692 9.39527577
v -3.52674017 41.09631014 8.88389017
v -5.23828463 41.09628979 7.99720363
v -6.76618957 41.09626945 6.75604483
v -8.00734795 41.09623554 5.22813989
v -8.89403448 41.09620841 3.51659607
v -9.40541924 41.09617451 1.73800470
v -9.56494649 41.09614060 -0.00075339
v -9.40541924 41.09610669 -1.73951147
v -8.89403448 41.09606600 -3.51810284
v -8.00734795 41.09603887 -5.22964667
v -6.76618957 41.09600496 -6.75755160
v -5.23828463 41.09598462 -7.99871040
v -3.52674017 41.09596427 -8.88539694
v -1.74814859 41.09595749 -9.39678254
v -0.00939093 41.09595071 -9.55630894
v 1.72936673 41.09595749 -9.39678254
v 3.50796001 41.09596427 -8.88539694
v 5.21950108 41.09598462 -7.99871040
v 6.74740771 41.09600496 -6.75755160
v 7.98856778 41.09603887 -5.22964667
v 8.87525263 41.09606600 -3.51810284
v 9.38663907 41.09610669 -1.73951147
v 9.54616463 41.09614060 -0.00075339
v 9.38663907 41.09617451 1.73800470
v 8.87525263 41.09620841 3.51659607
v 7.98856778 41.09623554 5.22813989
v 6.74740771 41.09626945 6.75604483
v 5.21950108 41.09628979 7.99720363
v 3.50796001 41.09631014 8.88389017
v 1.72936673 41.09631692 9.39527577
v -0.00939093 41.09521151 -10.00075339
v -3.80849541 41.09521151 -9.25098651
v -7.15372382 41.09521151 -6.99778937
v -9.32552930 41.09521151 -3.63524817
v -10.00939093 41.09521151 -0.00075339
v -9.25962320 41.09521151 3.79835067
v -7.00642733 41.09521151 7.14357950
v -3.64388529 41.09521151 9.31538583
v -0.00939093 41.09521151 9.99924661
v 3.78971185 41.09521151 9.24947973
v 7.13494026 41.09521151 6.99628259
v 9.30674744 41.09521151 3.63374139
v 9.99060907 41.09521151 -0.00075339
v 9.24084304 41.09521151 -3.79985744
v 6.98764547 41.09521151 -7.14508627
v 3.62510343 41.09521151 -9.31689261
v -0.00939093 14.83853494 -9.55630894
v -3.63964673 27.96909592 -8.83986472
v -6.83619689 27.96909592 -6.68680974
v -8.91147867 27.96909592 -3.47371524
v -9.56494649 27.96909592 -0.00075339
v -8.84850226 27.96909592 3.62950157
v -6.69544813 27.96909592 6.82605342
v -3.48235236 27.96909592 8.90133520
v -0.00939093 32.34347879 -9.55630894
v -0.00939093 23.59100686 -9.55630894
v -3.48235236 34.53437641 8.90133520
v -1.72583855 27.96909592 9.39937699
v -1.72583855 34.53437641 9.39937699
v -6.69544813 34.53437641 6.82605342
v -5.17633734 27.96909592 8.03736222
v -5.17633734 34.53437641 8.03736222
v -8.84850226 34.53437641 3.62950157
v -7.94549560 27.96909592 5.32154615
v -7.94549560 34.53437641 5.32154615
v -9.56494649 34.53437641 -0.00075339
v -9.39471774 27.96909592 1.79487950
v -9.39471774 34.53437641 1.79487950
v -8.91147867 34.53437641 -3.47371524
v -9.40952046 27.96909592 -1.71720164
v -9.40952046 34.53437641 -1.71720164
v -6.83619689 34.53437641 -6.68680974
v -8.04750569 27.96909592 -5.16770065
v -8.04750569 34.53437641 -5.16770065
v -3.63964673 34.53437641 -8.83986472
v -5.33169046 27.96909592 -7.93685890
v -5.33169046 34.53437641 -7.93685890
v -1.80502319 27.96909592 -9.38607935
v -1.80502319 34.53437641 -9.38607935
v -1.56494649 14.93421094 -9.42884380
v -3.20317755 15.23181836 -9.00682384
v -4.71616278 15.66201449 -8.31669848
v -6.07267082 16.15022453 -7.38623448
v -7.24976094 16.63708502 -6.23659154
v -8.22292581 17.07315747 -4.88424278
v -8.95375569 17.41784673 -3.36333951
v -9.40987650 17.63854647 -1.71578332
v -9.56494649 17.71486415 -0.00075339
v -9.40987650 17.63854647 1.71427654
v -8.95375569 17.41784673 3.36183274
v -8.22292581 17.07315747 4.88273601
v -7.24976094 16.63708502 6.23508476
v -6.07267082 16.15022453 7.38472771
v -4.71616278 15.66201449 8.31519171
v -3.20317755 15.23181836 9.00531707
v -1.56494649 14.93421094 9.42733703
v -3.63964673 21.40381543 -8.83986472
v -1.80502319 21.40381543 -9.38607935
v -1.80502319 18.12117518 -9.38607935
v -0.89591640 21.40381543 -9.51509580
v -0.89591640 18.12117518 -9.51509580
v -6.83619689 21.40381543 -6.68680974
v -5.33169046 21.40381543 -7.93685890
v -8.91147867 21.40381543 -3.47371524
v -8.04750569 21.40381543 -5.16770065
v -9.56494649 21.40381543 -0.00075339
v -9.40952046 21.40381543 -1.71720164
v -8.84850226 21.40381543 3.62950157
v -9.39471774 21.40381543 1.79487950
v -6.69544813 21.40381543 6.82605342
v -7.94549560 21.40381543 5.32154615
v -3.48235236 21.40381543 8.90133520
v -5.17633734 21.40381543 8.03736222
v -1.72583855 21.40381543 9.39937699
v -0.85704888 21.40381543 9.51713076
v -1.72583855 18.12117518 9.39937699
v -0.85704888 18.12117518 9.51713076
v -0.00939093 14.83853494 9.55480217
v -0.00939093 23.59112893 9.55480217
v -0.00939093 32.34372632 9.55480217
v 3.62086488 27.96909592 8.83835794
v 6.81741503 27.96909592 6.68530296
v 8.89269851 27.96909592 3.47220846
v 9.54616463 27.96909592 -0.00075339
v 8.82972040 27.96909592 -3.63100834
v 6.67666457 27.96909592 -6.82756020
v 3.46357050 27.96909592 -8.90284198
v 3.46357050 34.53437641 -8.90284198
v 1.70705669 27.96909592 -9.40088377
v 1.70705669 34.53437641 -9.40088377
v 6.67666457 34.53437641 -6.82756020
v 5.15755718 27.96909592 -8.03886899
v 5.15755718 34.53437641 -8.03886899
v 8.82972040 34.53437641 -3.63100834
v 7.92671543 27.96909592 -5.32305292
v 7.92671543 34.53437641 -5.32305292
v 9.54616463 34.53437641 -0.00075339
v 9.37593418 27.96909592 -1.79638628
v 9.37593418 34.53437641 -1.79638628
v 8.89269851 34.53437641 3.47220846
v 9.39073860 27.96909592 1.71569487
v 9.39073860 34.53437641 1.71569487
v 6.81741503 34.53437641 6.68530296
v 8.02872553 27.96909592 5.16619387
v 8.02872553 34.53437641 5.16619387
v 3.62086488 34.53437641 8.83835794
v 5.31290860 27.96909592 7.93535213
v 5.31290860 34.53437641 7.93535213
v 1.78624302 27.96909592 9.38457257
v 1.78624302 34.53437641 9.38457257
v 1.54616463 14.93421094 9.42733703
v 3.18439569 15.23181836 9.00531707
v 4.69737923 15.66201449 8.31519171
v 6.05388896 16.15022453 7.38472771
v 7.23097908 16.63708502 6.23508476
v 8.20414396 17.07315747 4.88273601
v 8.93497213 17.41784673 3.36183274
v 9.39109464 17.63854647 1.71427654
v 9.54616463 17.71486415 -0.00075339
v 9.39109464 17.63854647 -1.71578332
v 8.93497213 17.41784673 -3.36333951
v 8.20414396 17.07315747 -4.88424278
v 7.23097908 16.63708502 -6.23659154
v 6.05388896 16.15022453 -7.38623448
v 4.69737923 15.66201449 -8.31669848
v 3.18439569 15.23181836 -9.00682384
v 1.54616463 14.93421094 -9.42884380
v 3.62086488 21.40381543 8.83835794
v 1.78624302 21.40381543 9.38457257
v 1.78624302 18.12117518 9.38457257
v 0.87713454 21.40381543 9.51358903
v 0.87713454 18.12117518 9.51358903
v 6.81741503 21.40381543 6.68530296
v 5.31290860 21.40381543 7.93535213
v 8.89269851 21.40381543 3.47220846
v 8.02872553 21.40381543 5.16619387
v 9.54616463 21.40381543 -0.00075339
v 9.39073860 21.40381543 1.71569487
v 8.82972040 21.40381543 -3.63100834
v 9.37593418 21.40381543 -1.79638628
v 6.67666457 21.40381543 -6.82756020
v 7.92671543 21.40381543 -5.32305292
v 3.46357050 21.40381543 -8.90284198
v 5.15755718 21.40381543 -8.03886899
v 1.70705669 21.40381543 -9.40088377
v 0.83826702 21.40381543 -9.51863754
v 1.70705669 18.12117518 -9.40088377
v 0.83826702 18.12117518 -9.51863754
v -0.00939093 27.72702032 -10.00075339
v -3.80849541 27.72702032 -9.25098651
v -7.15372382 27.72702032 -6.99778937
v -9.25962320 27.72702032 3.79835067
v -7.00642733 27.72702032 7.14357950
v -3.64388529 27.72702032 9.31538583
v -0.00939093 14.35882574 9.99924661
v -0.00939093 27.72702032 9.99924661
v 3.78971185 27.72702032 9.24947973
v 7.13494026 27.72702032 6.99628259
v 9.24084304 27.72702032 -3.79985744
v 6.98764547 27.72702032 -7.14508627
v 3.62510343 27.72702032 -9.31689261
v -0.00939093 14.35882574 -10.00075339
v -3.34272426 14.81350035 -9.42884380
v -5.35215928 15.46294832 -8.45384957
v -7.08045959 16.17932473 -7.07182120
v -9.22580294 17.20337259 -3.88118594
v -10.00939093 17.60282395 -0.00075339
v -9.22580294 17.20337259 3.87967917
v -7.08045959 16.17932473 7.07031442
v -5.35215928 15.46294832 8.45234279
v -3.34272426 14.81350035 9.42733703
v 3.32394240 14.81350035 9.42733703
v 5.33337573 15.46294832 8.45234279
v 7.06167773 16.17932473 7.07031442
v 9.20701939 17.20337259 3.87967917
v 9.99060907 17.60282395 -0.00075339
v 9.20701939 17.20337259 -3.88118594
v 7.06167773 16.17932473 -7.07182120
v 5.33337573 15.46294832 -8.45384957
v 3.32394240 14.81350035 -9.42884380
v -3.80849541 21.04292472 -9.25098651
v -1.88854132 27.72702032 -9.82260618
v -0.00939093 21.04292472 -10.00075339
v -1.88854132 21.04292472 -9.82260618
v -7.15372382 21.04292472 -6.99778937
v -5.57923888 27.72702032 -8.30598003
v -5.57923888 21.04292472 -8.30598003
v -7.00642733 21.04292472 7.14357950
v -8.31461757 27.72702032 5.56909499
v -9.25962320 21.04292472 3.79835067
v -8.31461757 21.04292472 5.56909499
v -3.64388529 21.04292472 9.31538583
v -5.41666157 27.72702032 8.41122798
v -5.41666157 21.04292472 8.41122798
v -0.00939093 21.04292472 9.99924661
v -1.80567423 27.72702032 9.83659216
v -1.80567423 21.04292472 9.83659216
v 3.78971185 21.04292472 9.24947973
v 1.86975946 27.72702032 9.82109940
v 1.86975946 21.04292472 9.82109940
v 7.13494026 21.04292472 6.99628259
v 5.56045703 27.72702032 8.30447326
v 5.56045703 21.04292472 8.30447326
v 6.98764547 21.04292472 -7.14508627
v 8.29583571 27.72702032 -5.57060177
v 9.24084304 21.04292472 -3.79985744
v 8.29583571 21.04292472 -5.57060177
v 3.62510343 21.04292472 -9.31689261
v 5.39787971 27.72702032 -8.41273476
v 5.39787971 21.04292472 -8.41273476
v 1.78689067 27.72702032 -9.83809893
v 1.78689067 21.04292472 -9.83809893
v -10.00939093 27.72702032 -0.00075339
v 9.99060907 27.72702032 -0.00075339
v -0.00939093 14.51699495 -9.55630894
v -2.32413228 14.73598910 -9.27170879
v -3.82200283 15.09274636 -8.76267644
v -5.19535318 15.54234489 -8.02661364
v -6.42322116 16.02271870 -7.08397228
v -7.48585340 16.48670456 -5.95147937
v -8.36227247 16.89494838 -4.64183657
v -9.01826137 17.21366040 -3.18648697
v -9.42640855 17.41623269 -1.62243047
v -9.56494649 17.48597892 -0.00075339
v -9.42640855 17.41623269 1.62092369
v -9.01826137 17.21366040 3.18498020
v -8.36227247 16.89494838 4.64032980
v -7.48585340 16.48670456 5.94997259
v -6.42322116 16.02271870 7.08246551
v -5.19535318 15.54234489 8.02510687
v -3.82200283 15.09274636 8.76116966
v -2.32413228 14.73598910 9.27020202
v -0.00939093 14.51699495 9.55480217
v 2.30535042 14.73598910 9.27020202
v 3.80322097 15.09274636 8.76116966
v 5.17657302 15.54234489 8.02510687
v 6.40444099 16.02271870 7.08246551
v 7.46707324 16.48670456 5.94997259
v 8.34349061 16.89494838 4.64032980
v 8.99947951 17.21366040 3.18498020
v 9.40762838 17.41623269 1.62092369
v 9.54616463 17.48597892 -0.00075339
v 9.40762838 17.41623269 -1.62243047
v 8.99947951 17.21366040 -3.18648697
v 8.34349061 16.89494838 -4.64183657
v 7.46707324 16.48670456 -5.95147937
v 6.40444099 16.02271870 -7.08397228
v 5.17657302 15.54234489 -8.02661364
v 3.80322097 15.09274636 -8.76267644
v 2.30535042 14.73598910 -9.27170879
v -0.00939093 14.01911423 -10.00075339
v 1.92030674 14.18322759 -9.81279986
v 3.73885940 14.61460712 -9.27170879
v 5.51633539 15.24330314 -8.33540067
v 7.06167773 15.91161437 -7.07182120
v 8.27966818 16.49454758 -5.59496624
v 9.20576139 16.96359597 -3.88417963
v 9.79053583 17.26752732 -1.99179478
v 9.99060907 17.37327072 -0.00075339
v 9.79053583 17.26752732 1.99028801
v 9.20576139 16.96359597 3.88267286
v 8.27966818 16.49454758 5.59345946
v 7.06167773 15.91161437 7.07031442
v 5.51633539 15.24330314 8.33389390
v 3.73885940 14.61460712 9.27020202
v 1.92030674 14.18322759 9.81129309
v -0.00939093 14.01911423 9.99924661
v -1.93909030 14.18322759 9.81129309
v -3.75764126 14.61460712 9.27020202
v -5.53511725 15.24330314 8.33389390
v -7.08045959 15.91161437 7.07031442
v -8.29845004 16.49454758 5.59345946
v -9.22454155 16.96359597 3.88267286
v -9.80931599 17.26752732 1.99028801
v -10.00939093 17.37327072 -0.00075339
v -9.80931599 17.26752732 -1.99179478
v -9.22454155 16.96359597 -3.88417963
v -8.29845004 16.49454758 -5.59496624
v -7.08045959 15.91161437 -7.07182120
v -5.53511725 15.24330314 -8.33540067
v -3.75764126 14.61460712 -9.27170879
v -1.93909030 14.18322759 -9.81279986
v -26.67605760 -21.12701072 -13.33408672
v -31.74152967 -21.12701072 -12.33439698
v -36.20183478 -21.12701072 -9.33013469
v -39.09757656 -21.12701072 -4.84674643
v -40.00939093 -21.12701072 -0.00075339
v -39.00970119 -21.12701072 5.06471869
v -36.00543890 -21.12701072 9.52502379
v -31.52205064 -21.12701072 12.42076557
v -26.67605760 -21.12701072 13.33257995
v -21.61058552 -21.12701072 12.33289021
v -17.15028042 -21.12701072 9.32862792
v -14.25453863 -21.12701072 4.84523965
v -13.34272426 -21.12701072 -0.00075339
v -14.34241400 -21.12701072 -5.06622546
v -17.34667629 -21.12701072 -9.52653057
v -21.83006455 -21.12701072 -12.42227235
v -24.51585112 -10.61299552 -13.33408672
v -29.17098087 -8.61580313 -12.33439698
v -33.26996654 -6.85721498 -9.33013469
v -35.93113030 -5.71549474 -4.84674643
v -36.76908111 -5.35598749 -0.00075339
v -35.85037400 -5.75014067 5.06471869
v -33.08948007 -6.93464825 9.52502379
v -28.96928151 -8.70233827 12.42076557
v -24.51585112 -10.61299552 13.33257995
v -19.86072158 -12.61018705 12.33289021
v -15.76173570 -14.36877648 9.32862792
v -13.10057152 -15.51049672 4.84523965
v -12.26262071 -15.87000312 -0.00075339
v -13.18132781 -15.47584995 -5.06622546
v -15.94222174 -14.29134236 -9.52653057
v -20.06242073 -12.52365192 -12.42227235
v -18.67845577 -2.08555259 -13.33408672
v -22.22474161 1.53147215 -12.33439698
v -25.34735605 4.71637307 -9.33013469
v -27.37463569 6.78409158 -4.84674643
v -28.01298798 7.43517733 -0.00075339
v -27.31311532 6.72134405 5.06471869
v -25.20986132 4.57613633 9.52502379
v -22.07108645 1.37475252 12.42076557
v -18.67845577 -2.08555259 13.33257995
v -15.13216993 -5.70257732 12.33289021
v -12.00955539 -8.88747824 9.32862792
v -9.98227606 -10.95519590 4.84523965
v -9.34392293 -11.60628165 -0.00075339
v -10.04379611 -10.89244837 -5.06622546
v -12.14705064 -8.74724065 -9.52653057
v -15.28582424 -5.54585600 -12.42227235
v -10.09251742 3.55986198 -13.33408672
v -12.00785996 8.24926085 -12.33439698
v -13.69437832 12.37842141 -9.33013469
v -14.78930833 15.05917703 -4.84674643
v -15.13408067 15.90329663 -0.00075339
v -14.75608147 14.97782734 5.06471869
v -13.62011803 12.19660786 9.52502379
v -11.92487080 8.04607821 12.42076557
v -10.09251742 3.55986198 13.33257995
v -8.17717488 -1.12953859 12.33289021
v -6.49065653 -5.25869915 9.32862792
v -5.39572651 -7.93945477 4.84523965
v -5.05095418 -8.78357437 -0.00075339
v -5.42895338 -7.85810423 -5.06622546
v -6.56491766 -5.07688559 -9.52653057
v -8.26016404 -0.92635425 -12.42227235
v -0.00939093 5.53965595 -13.33408672
v -0.00939093 10.60512972 -12.33439698
v -0.00939093 10.38565069 12.42076557
v -0.00939093 5.53965595 13.33257995
v -0.00939093 0.47418388 12.33289021
v -0.00939093 -3.98612123 9.32862792
v -0.00939093 -6.88186301 4.84523965
v -0.00939093 -7.79367738 -0.00075339
v -0.00939093 -6.79398764 -5.06622546
v -0.00939093 -3.78972536 -9.52653057
v -0.00939093 0.69366291 -12.42227235
v 10.50462342 3.37944884 -13.33408672
v 12.50181580 8.03457986 -12.33439698
v 14.26040481 12.13356532 -9.33013469
v 15.40212505 14.79472865 -4.84674643
v 15.76163229 15.63268031 -0.00075339
v 15.36747742 14.71397236 5.06471869
v 14.18297154 11.95307758 9.52502379
v 12.41528152 7.83287901 12.42076557
v 10.50462342 3.37944884 13.33257995
v 8.50743104 -1.27568049 12.33289021
v 6.74884203 -5.37466595 9.32862792
v 5.60712179 -8.03583013 4.84523965
v 5.24761794 -8.87378094 -0.00075339
v 5.64176942 -7.95507383 -5.06622546
v 6.82627869 -5.19417990 -9.52653057
v 8.59396872 -1.07398134 -12.42227235
v 19.03206890 -2.45794672 -13.33408672
v 22.64909024 1.08833997 -12.33439698
v 25.83399286 4.21095451 -9.33013469
v 27.90171137 6.23823383 -4.84674643
v 28.55279711 6.87658697 -0.00075339
v 27.83896383 6.17671379 5.06471869
v 25.69375442 4.07345926 9.52502379
v 22.49237231 0.93468566 12.42076557
v 19.03206890 -2.45794672 13.33257995
v 15.41504416 -6.00423172 12.33289021
v 12.23014154 -9.12684626 9.32862792
v 10.16242304 -11.15412643 4.84523965
v 9.51133729 -11.79247872 -0.00075339
v 10.22517057 -11.09260554 -5.06622546
v 12.37037999 -8.98935185 -9.52653057
v 15.57176209 -5.85057741 -12.42227235
v 24.67748176 -11.04388422 -13.33408672
v 29.36688064 -9.12854168 -12.33439698
v 33.49604120 -7.44202333 -9.33013469
v 36.17680021 -6.34709332 -4.84674643
v 37.02091642 -6.00232098 -0.00075339
v 36.09544712 -6.38032018 5.06471869
v 33.31423103 -7.51628362 9.52502379
v 29.16369799 -9.21153000 12.42076557
v 24.67748176 -11.04388422 13.33257995
v 19.98808289 -12.95922677 12.33289021
v 15.85891894 -14.64574469 9.32862792
v 13.17816332 -15.74067471 4.84523965
v 12.33404372 -16.08544747 -0.00075339
v 13.25951641 -15.70744742 -5.06622546
v 16.04073589 -14.57148398 -9.52653057
v 20.19126554 -12.87623760 -12.42227235
v 26.65727574 -21.12701072 -13.33408672
v 31.72274611 -21.12701072 -12.33439698
v 36.18305292 -21.12701072 -9.33013469
v 39.07879131 -21.12701072 -4.84674643
v 39.99060907 -21.12701072 -0.00075339
v 38.99092103 -21.12701072 5.06471869
v 35.98665535 -21.12701072 9.52502379
v 31.50327047 -21.12701072 12.42076557
v 26.65727574 -21.12701072 13.33257995
v 21.59180197 -21.12701072 12.33289021
v 17.13149856 -21.12701072 9.32862792
v 14.23575678 -21.12701072 4.84523965
v 13.32394240 -21.12701072 -0.00075339
v 14.32363045 -21.12701072 -5.06622546
v 17.32789613 -21.12701072 -9.52653057
v 21.81128100 -21.12701072 -12.42227235
v -0.00939093 12.96612215 -11.07438891
v -6.98253377 14.38732916 -9.33013469
v -12.90059237 10.43496710 -11.07438891
v -6.12317402 10.01059304 -12.33439698
v -6.57806226 12.32734855 -11.07438891
v -14.33347150 13.94313563 -7.21044730
v -6.94469536 14.19461065 9.52502379
v -14.27965036 13.81136412 7.42571112
v 13.34723071 10.00510327 11.21522121
v 6.33271112 9.74086174 12.42076557
v -0.00939093 12.74934901 11.21522121
v 7.23502096 14.13251077 9.52502379
v 6.80842252 12.05619648 11.21522121
v -6.08088683 9.79522371 12.42076557
v -12.81862724 10.23429028 11.21522121
v -6.53629726 12.11463764 11.21522121
v 14.87068855 13.55603372 7.42571112
v 14.92681038 13.68684223 -7.21044730
v 7.27454462 14.32489019 -9.33013469
v 13.43269688 10.20431185 -11.07438891
v 6.37688362 9.95584790 -12.33439698
v 6.85204570 12.26853101 -11.07438891
v 15.18226285 -21.12701072 -6.34100065
v 16.47044034 -21.12701072 -8.25350166
v 13.69261170 -21.12701072 -1.86881763
v 28.88975865 -21.12701072 12.91251989
v 24.23061626 -21.12701072 -12.87749035
v 18.75865513 -21.12701072 -10.45063250
v 13.83117846 -21.12701072 2.69504739
v 13.77825759 -21.12701072 2.41378065
v 24.54345534 -21.12701072 -12.93635367
v 16.17821419 -21.12701072 7.85268679
v 20.17626784 -21.12701072 11.37944901
v 20.38733080 -21.12701072 -11.50256664
v 23.35259841 -21.12701072 12.68038963
v 24.79861281 -21.12701072 12.96576629
v 28.54774137 -21.12701072 -12.96099661
v 29.83139887 -21.12701072 -12.70766172
v 18.49348450 -21.12701072 10.24600158
v 34.91289775 -21.12701072 -10.18565346
v 33.15681458 -21.12701072 -11.36847494
v 38.15753344 -21.12701072 -6.27311175
v 37.14115567 -21.12701072 -7.84673202
v 15.11931187 -21.12701072 6.21322231
v 39.51046584 -21.12701072 -2.55257181
v 34.50325691 -21.12701072 10.48312740
v 32.92963495 -21.12701072 11.49950093
v 29.20909458 -21.12701072 12.85243333
v 39.36418492 -21.12701072 3.17336953
v 39.61752151 -21.12701072 1.88971076
v 36.84217835 -21.12701072 8.25487032
v 38.02499899 -21.12701072 6.49878419
v 13.99001228 -21.12701072 -3.37575127
v 39.57055156 -21.12701072 -2.23323460
v -39.52924431 -21.12701072 -2.55257181
v -38.17631191 -21.12701072 -6.27311175
v -29.85018051 -21.12701072 -12.70766172
v -34.93168131 -21.12701072 -10.18565346
v -37.15993838 -21.12701072 -7.84673202
v -39.58933088 -21.12701072 -2.23323460
v -39.38296593 -21.12701072 3.17336953
v -36.86095767 -21.12701072 8.25487032
v -29.22787602 -21.12701072 12.85243333
v -32.94841596 -21.12701072 11.49950093
v -24.27770974 -21.12701072 -12.88281736
v -23.98598310 -21.12701072 -12.82792641
v -20.41222593 -21.12701072 -11.50651528
v -18.70847235 -21.12701072 -10.40609040
v -16.38025325 -21.12701072 -8.09172205
v -15.19515397 -21.12701072 -6.33225397
v -13.95549604 -21.12701072 -3.10569380
v -13.72807311 -21.12701072 -1.95333479
v -15.19355349 -21.12701072 6.29908775
v -28.56652174 -21.12701072 -12.96099661
v -28.90853881 -21.12701072 12.91251989
v -13.80189683 -21.12701072 2.43959768
v -13.85493553 -21.12701072 2.72147901
v -18.45230610 -21.12701072 10.20561411
v -16.22441524 -21.12701072 7.89513929
v -23.40745162 -21.12701072 12.68750870
v -33.17559517 -21.12701072 -11.36847494
v -39.63630082 -21.12701072 1.88971076
v -38.04377915 -21.12701072 6.49878419
v -34.52203623 -21.12701072 10.48312740
v -24.91963322 -21.12701072 12.98594349
v -20.26555845 -21.12701072 11.42694030
v -24.51585112 -10.61299552 -13.11186450
v -29.09339544 -8.64909018 -12.12883651
v -33.12406454 -6.91981077 -9.17464509
v -35.74087608 -5.79711909 -4.76597996
v -36.56486087 -5.44360516 -0.00075339
v -35.66146596 -5.83118857 4.98029435
v -32.94658660 -6.99595382 9.36626033
v -28.89505767 -8.73418252 12.21374026
v -24.51585112 -10.61299552 13.11035772
v -19.93830701 -12.57690085 12.12732974
v -15.90763769 -14.30618026 9.17313832
v -13.29082658 -15.42887195 4.76447319
v -12.46684180 -15.78238630 -0.00075339
v -13.37023671 -15.39480246 -4.98180112
v -16.08511606 -14.23003679 -9.36776711
v -20.13664457 -12.49180767 -12.21524703
v -18.67845577 -2.08555259 -13.11186450
v -22.16563711 1.47118807 -12.12883651
v -25.23620764 4.60300705 -9.17464509
v -27.22969939 6.63626443 -4.76597996
v -27.85741244 7.27649779 -0.00075339
v -27.16920433 6.57456297 4.98029435
v -25.10100459 4.46510829 9.36626033
v -22.01454289 1.31707939 12.21374026
v -18.67845577 -2.08555259 13.11035772
v -15.19127400 -5.64229324 12.12732974
v -12.12070380 -8.77411222 9.17313832
v -10.12721252 -10.80736875 4.76447319
v -9.49949815 -11.44760296 -0.00075339
v -10.18770683 -10.74566730 -4.98180112
v -12.25590684 -8.63621261 -9.36776711
v -15.34236822 -5.48818456 -12.21524703
v -10.09251742 3.55986198 -13.11186450
v -11.97593688 8.17110533 -12.12883651
v -13.63434685 12.23144537 -9.17464509
v -14.71102820 14.86752325 -4.76597996
v -15.05005475 15.69757425 -0.00075339
v -14.67835489 14.78752650 4.98029435
v -13.56132422 12.05266322 9.36626033
v -11.89433288 7.97130675 12.21374026
v -10.09251742 3.55986198 13.11035772
v -8.20909796 -1.05138137 12.12732974
v -6.55068799 -5.11172310 9.17313832
v -5.47400749 -7.74780014 4.76447319
v -5.13498094 -8.57785029 -0.00075339
v -5.50667995 -7.66780509 -4.98180112
v -6.62371147 -4.93293926 -9.36776711
v -8.29070366 -0.85158449 -12.21524703
v -0.00939093 5.53965595 -13.11186450
v -0.00939093 10.52070454 -12.12883651
v -0.00939093 10.30488422 12.21374026
v -0.00939093 5.53965595 13.11035772
v -0.00939093 0.55860906 12.12732974
v -0.00939093 -3.82735862 9.17313832
v -0.00939093 -6.67483685 4.76447319
v -0.00939093 -7.57145516 -0.00075339
v -0.00939093 -6.58842632 -4.98180112
v -0.00939093 -3.63423490 -9.36776711
v -0.00939093 0.77442938 -12.21524703
v 10.50462342 3.37944884 -13.11186450
v 12.46853130 7.95699400 -12.12883651
v 14.19780986 11.98766417 -9.17464509
v 15.32050070 14.60447529 -4.76597996
v 15.67401632 15.42846007 -0.00075339
v 15.28643291 14.52506516 4.98029435
v 14.12166511 11.81018411 9.36626033
v 12.38343812 7.75865687 12.21374026
v 10.50462342 3.37944884 13.11035772
v 8.54071893 -1.19809463 12.12732974
v 6.81144037 -5.22876310 9.17313832
v 5.68874953 -7.84557507 4.76447319
v 5.33523391 -8.66955985 -0.00075339
v 5.72281732 -7.76616494 -4.98180112
v 6.88758173 -5.05128643 -9.36776711
v 8.62581211 -0.99975750 -12.21524703
v 19.03206890 -2.45794672 -13.11186450
v 22.58880786 1.02923589 -12.12883651
v 25.72062684 4.09980610 -9.17464509
v 27.75388422 6.09329738 -4.76597996
v 28.39411927 6.72101005 -0.00075339
v 27.69218106 6.03280306 4.98029435
v 25.58272808 3.96460305 9.36626033
v 22.43470087 0.87814167 12.21374026
v 19.03206890 -2.45794672 13.11035772
v 15.47532655 -5.94512764 12.12732974
v 12.34350756 -9.01569785 9.17313832
v 10.31025018 -11.00918998 4.76447319
v 9.67001852 -11.63690265 -0.00075339
v 10.37195334 -10.94869481 -4.98180112
v 12.48140633 -8.88049481 -9.36776711
v 15.62943353 -5.79403342 -12.21524703
v 24.67748176 -11.04388422 -13.11186450
v 29.28872512 -9.16046391 -12.12883651
v 33.34906854 -7.50205480 -9.17464509
v 35.98514303 -6.42537260 -4.76597996
v 36.81519403 -6.08634604 -0.00075339
v 35.90514629 -6.45804675 4.98029435
v 33.17028301 -7.57507743 9.36626033
v 29.08892653 -9.24206961 12.21374026
v 24.67748176 -11.04388422 13.11035772
v 20.06623841 -12.92730368 12.12732974
v 16.00589499 -14.58571365 9.17313832
v 13.36982050 -15.66239458 4.76447319
v 12.53976950 -16.00142113 -0.00075339
v 13.44981385 -15.62972127 -4.98180112
v 16.18468052 -14.51269060 -9.36776711
v 20.26603699 -12.84569883 -12.21524703
v -22.35150824 -11.54156404 -12.89860681
v -26.13042380 -15.76019112 -13.11186450
v -21.46269988 -16.71922043 -12.21524703
v -23.82348611 -16.23417404 -12.89860681
v -24.99115498 -15.99426476 -13.06017535
v -26.53929846 -18.42976819 -13.11186450
v -24.19625006 -18.66798120 -12.89860681
v -25.38219652 -18.54740837 -13.06017535
v -26.78004163 -9.64158879 -12.87829398
v -31.00955284 -14.75772683 -12.12883651
v -28.54378721 -15.26434236 -12.87829398
v -22.64181009 -16.47696087 -12.61887761
v -21.79851023 -18.91175455 -12.21524703
v -22.99607721 -18.79000044 -12.61887761
v -18.00062560 -13.40822511 -11.02979510
v -17.14424217 -17.60648934 -9.36776711
v -19.18595207 -17.18700022 -11.02979510
v -14.50887552 -14.90629148 -7.30344368
v -14.25049675 -18.20103746 -4.98180112
v -15.46415371 -17.95167981 -7.30344368
v -12.68149142 -15.69029485 -2.46452881
v -13.28758239 -18.39887741 -0.00075339
v -13.51637437 -18.35186995 -2.46452881
v -12.66282399 -15.69830402 2.35437331
v -14.16585455 -18.21842803 4.76447319
v -13.49647691 -18.35595804 2.35437331
v -14.38024732 -14.96147744 7.08877883
v -16.95507049 -17.64535644 9.17313832
v -15.32705010 -17.97984902 7.08877883
v -27.32193067 -15.51538462 -13.05531627
v -28.99043845 -18.18056567 -12.87829398
v -27.74945608 -18.30673382 -13.05531627
v -27.13958411 -18.36873833 -13.09797307
v -27.85668118 -19.71506082 -13.05531627
v -26.64184587 -19.77665705 -13.11186450
v -27.24445183 -19.74610291 -13.09797307
v -25.96517011 -18.48813878 -13.09915817
v -25.48027133 -19.83555269 -13.06017535
v -26.06549829 -19.80587975 -13.09915817
v -0.00939093 12.84234625 -10.88982792
v -6.95194498 14.23154031 -9.17464509
v -12.85379112 10.32038376 -10.88982792
v -6.10690816 9.92774799 -12.12883651
v -6.55421447 12.20589198 -10.88982792
v 13.38389588 10.09056605 -10.88982792
v 7.24259271 14.16937600 -9.17464509
v 6.35989211 9.87315205 -12.12883651
v 6.82713658 12.14729145 -10.88982792
v -14.26278855 13.77008401 -7.09028560
v -14.96941799 15.50014925 -2.35588009
v -14.96173773 15.48134364 2.46302204
v -6.91473727 14.04203632 9.36626033
v -14.20986429 13.64050637 7.30193691
v -0.00939093 12.62918774 11.02828833
v -6.06532626 9.71597295 12.21374026
v -12.77319166 10.12305032 11.02828833
v -6.51314629 11.99672789 11.02828833
v 13.29985386 9.89467372 11.02828833
v 6.31645882 9.66174661 12.21374026
v 7.20372688 13.98020432 9.36626033
v 6.78423903 11.93849357 11.02828833
v 14.79792108 13.38642380 7.30193691
v 15.58192445 15.21380960 2.46302204
v 15.58993361 15.23247618 -2.35588009
v 14.85310704 13.51505539 -7.09028560
v 21.26992290 -16.94887537 12.12732974
v 22.39662171 -11.97547992 12.87678720
v 26.15764534 -15.98918443 13.11035772
v 23.74003263 -16.46387646 12.87678720
v 24.07986620 -18.78444518 12.87678720
v 24.96404182 -16.22354587 13.05380950
v 26.53207568 -18.54597955 13.11035772
v 25.32138910 -18.66371298 13.05380950
v 26.85775927 -10.15337027 12.89710004
v 30.83359274 -15.07107539 12.21374026
v 28.46864659 -15.53542577 12.89710004
v 21.57441373 -19.02808862 12.12732974
v 22.50226339 -16.70690955 12.57001688
v 22.82438321 -18.90653478 12.57001688
v 16.96613397 -17.79391283 9.17313832
v 17.91695998 -13.80515708 10.88832115
v 18.99177891 -17.39618296 10.88832115
v 14.17200555 -18.34253242 4.76447319
v 14.46725973 -15.21415493 7.08877883
v 15.33524408 -18.11413336 7.08877883
v 13.29218717 -18.51528247 -0.00075339
v 12.73719449 -15.92078479 2.35437331
v 13.50144959 -18.47419437 2.35437331
v 14.25679695 -18.32588381 -4.98180112
v 12.75600010 -15.91310411 -2.46452881
v 13.52138096 -18.47028070 -2.46452881
v 17.15563796 -17.75670428 -9.36776711
v 14.59683737 -15.16123109 -7.30344368
v 15.47259014 -18.08716599 -7.30344368
v 21.48170133 -16.90729348 -12.21524703
v 18.11429342 -13.72455846 -11.02979510
v 19.20094300 -17.35511393 -11.02979510
v 26.15764534 -15.98918443 -13.11186450
v 22.49720426 -11.93439817 -12.89860681
v 23.84664748 -16.44294309 -12.89860681
v 24.18800694 -18.77392912 -12.89860681
v 22.66288758 -16.67537090 -12.61887761
v 21.78922018 -19.00719955 -12.21524703
v 22.98730978 -18.89069107 -12.61887761
v 26.53207568 -18.54597955 -13.11186450
v 25.01637269 -16.21327077 -13.06017535
v 25.37446934 -18.65855127 -13.06017535
v 31.04537117 -15.02949349 -12.12883651
v 26.95834182 -10.11228768 -12.87829398
v 28.57526144 -15.51449283 -12.87829398
v 28.98428176 -18.30751414 -12.87829398
v 27.35125225 -15.75482342 -13.05531627
v 27.74275886 -18.42824634 -13.05531627
v 27.84092374 -19.77604182 -13.05531627
v 27.13262092 -18.48757929 -13.09797307
v 26.62595792 -19.83497773 -13.11186450
v 27.22862923 -19.80574316 -13.09797307
v 25.95769756 -18.60183520 -13.09915817
v 25.46425545 -19.89132971 -13.06017535
v 26.04954530 -19.86293830 -13.09915817
v 31.48973423 -18.06387069 -12.12883651
v 29.81303067 -15.27145974 -12.57152365
v 30.23976814 -18.18542433 -12.57152365
v 35.34915670 -14.18445624 -9.17464509
v 31.43800355 -8.28261052 -10.88982792
v 33.32351516 -14.58218633 -10.88982792
v 33.80047778 -17.83916192 -10.88982792
v 32.20647685 -14.80151277 -11.57236967
v 32.66746183 -17.94934246 -11.57236967
v 35.85511102 -17.63935889 -9.17464509
v 34.37711081 -14.37531487 -10.08723088
v 34.86915589 -17.73523813 -10.08723088
v 38.14328512 -13.63583708 -4.76597996
v 34.88770380 -6.87361309 -7.09028560
v 36.98004999 -13.86423572 -7.09028560
v 37.50933330 -17.47849311 -7.09028560
v 36.21906366 -14.01365317 -8.17182476
v 36.73746237 -17.55355448 -8.17182476
v 38.68921747 -17.36375507 -4.76597996
v 37.62314352 -13.73796670 -5.94850178
v 38.16162958 -17.41506062 -5.94850178
v 39.02310690 -13.46308639 -0.00075339
v 36.61776565 -6.16698366 -2.35588009
v 38.81384448 -13.50417492 -2.35588009
v 39.36937291 -17.29761373 -2.35588009
v 38.53935582 -13.55806981 -3.56223953
v 39.09095765 -17.32468833 -3.56223953
v 39.58162605 -17.27697282 -0.00075339
v 38.97238669 -13.47304529 -1.16382004
v 39.53018020 -17.28197559 -1.16382004
v 38.05849373 -13.65248526 4.98029435
v 36.59896682 -6.17466391 2.46302204
v 38.79391311 -13.50808880 2.46302204
v 39.34915670 -17.29957957 2.46302204
v 38.96761916 -13.47398201 1.21564241
v 39.52534486 -17.28244564 1.21564241
v 38.60321893 -17.37211858 4.98029435
v 38.49288772 -13.56719372 3.72442650
v 39.04382494 -17.32927147 3.72442650
v 35.15965611 -14.22166480 9.36626033
v 34.75812616 -6.92653735 7.30193691
v 36.84270054 -13.89120308 7.30193691
v 37.37002395 -17.49204037 7.30193691
v 37.51245287 -13.75969860 6.16357487
v 38.04935880 -17.42597829 6.16357487
v 35.66289097 -17.65805091 9.36626033
v 36.05514358 -14.04583820 8.37565466
v 36.57119582 -17.56972286 8.37565466
v 31.24067011 -8.36320999 11.02828833
v 33.11434768 -14.62325536 11.02828833
v 33.58831957 -17.85979329 11.02828833
v 34.17562697 -14.41487667 10.25277394
v 34.66478306 -17.75511249 10.25277394
v 31.27493117 -18.08475955 12.21374026
v 31.99395922 -14.84324090 11.68366010
v 32.45189922 -17.97030486 11.68366010
v 28.87614442 -18.31802999 12.89710004
v 29.65240310 -15.30299838 12.61737083
v 30.07683818 -18.20126804 12.61737083
v 27.29892138 -15.76509809 13.05866858
v 27.68968201 -18.43340784 13.05866858
v -17.80473496 -13.49226798 10.88832115
v -21.25129445 -16.76265542 12.12732974
v -18.97715589 -17.22989946 10.88832115
v -17.92540740 -17.44599146 10.08572410
v -17.22032334 -19.37720972 9.17313832
v -19.27405971 -19.16841035 10.88832115
v -18.20584869 -19.27701330 10.08572410
v -20.09222581 -17.00079764 11.57086289
v -21.58379575 -18.93358416 12.12732974
v -20.40658399 -19.05326901 11.57086289
v -22.25166066 -11.58440224 12.87678720
v -26.13042380 -15.76019112 13.11035772
v -23.71706051 -16.25603988 12.87678720
v -22.48146565 -16.50990502 12.57001688
v -24.08815849 -18.67897071 12.87678720
v -22.83322270 -18.80655750 12.57001688
v -24.93891694 -16.00499762 13.05380950
v -26.53929846 -18.42976819 13.11035772
v -25.32914087 -18.55280256 13.05380950
v -26.68019430 -9.68442615 12.89710004
v -30.79814783 -14.80116182 12.21374026
v -28.43736160 -15.28620820 12.89710004
v -27.26969268 -15.52611748 13.05866858
v -28.88234689 -18.19155518 12.89710004
v -27.69640042 -18.31212801 13.05866858
v -29.61903762 -15.04342180 12.61737083
v -31.28008693 -17.94778183 12.21374026
v -30.08251974 -18.06953594 12.61737083
v -31.03107621 -7.81776592 11.02828833
v -35.11660596 -13.91389290 9.36626033
v -33.07489522 -14.33338202 11.02828833
v -31.95647345 -14.56317260 11.68366010
v -33.59247207 -17.71268627 11.02828833
v -32.45654381 -17.82817369 11.68366010
v -34.13430446 -14.11571624 10.25277394
v -35.66614193 -17.50186025 9.36626033
v -34.66846465 -17.60329220 10.25277394
v -34.52282629 -6.31969870 7.30193691
v -38.01035054 -13.31934521 4.98029435
v -36.79669443 -13.56870264 7.30193691
v -36.01051923 -13.73022964 8.37565466
v -37.37252892 -17.32837544 7.30193691
v -36.57404751 -17.40955559 8.37565466
v -37.46527014 -13.43133709 6.16357487
v -38.60518306 -17.20305374 4.98029435
v -38.05156961 -17.25933875 6.16357487
v -36.35021124 -5.53569534 2.46302204
v -38.97326490 -13.12150484 -0.00075339
v -38.74447377 -13.16851208 2.46302204
v -38.44397989 -13.23025168 3.72442650
v -39.35079701 -17.12724892 2.46302204
v -39.04560004 -17.15827767 3.72442650
v -38.91787380 -13.13288535 1.21564241
v -39.58316972 -17.10362408 -0.00075339
v -39.52691141 -17.10934358 1.21564241
v -36.36887868 -5.52768617 -2.35588009
v -38.09499358 -13.30195443 -4.76597996
v -38.76437038 -13.16442442 -2.35588009
v -38.92263369 -13.13190709 -1.16382004
v -39.37100558 -17.12519450 -2.35588009
v -39.53174590 -17.10885191 -1.16382004
v -38.49036492 -13.22072172 -3.56223953
v -38.69115023 -17.19431384 -4.76597996
v -39.09271070 -17.15348810 -3.56223953
v -34.65145534 -6.26451275 -7.09028560
v -35.30577680 -13.87502622 -9.17464509
v -36.93379804 -13.54053322 -7.09028560
v -37.57575988 -13.40863625 -5.94850178
v -37.51177808 -17.31421825 -7.09028560
v -38.16378953 -17.24792941 -5.94850178
v -36.17415110 -13.69661029 -8.17182476
v -35.85827382 -17.48232645 -9.17464509
v -36.74024115 -17.39265903 -8.17182476
v -31.22696685 -7.73372306 -10.88982792
v -33.28369182 -14.29048278 -10.88982792
v -34.33543989 -14.07439078 -10.08723088
v -33.80453745 -17.69112603 -10.88982792
v -34.87274847 -17.58252308 -10.08723088
v -32.16862190 -14.51958460 -11.57236967
v -31.49480098 -17.92595222 -12.12883651
v -32.67201317 -17.80626737 -11.57236967
v -29.77938206 -15.01047722 -12.57152365
v -30.24537404 -18.05297889 -12.57152365
f 56 55 54
f 56 54 53
f 56 53 52
f 56 52 51
f 56 51 50
f 56 50 49
f 56 49 48
f 56 48 47
f 56 47 46
f 56 46 45
f 56 45 44
f 56 44 43
f 56 43 42
f 56 42 41
f 56 41 40
f 56 40 39
f 56 39 38
f 56 38 37
f 56 37 36
f 56 36 35
f 56 35 34
f 56 34 33
f 56 33 32
f 56 32 12
f 56 12 30
f 56 30 29
f 56 29 28
f 56 28 10
f 56 10 27
f 56 27 26
f 56 26 25
f 56 25 24
f 56 24 23
f 56 23 22
f 56 22 21
f 56 21 20
f 56 20 19
f 56 19 18
f 56 18 17
f 56 17 16
f 56 16 15
f 56 15 14
f 56 14 13
f 56 13 1
f 56 1 75
f 56 75 74
f 56 74 73
f 56 73 72
f 56 72 71
f 56 71 70
f 56 70 69
f 56 69 68
f 56 68 67
f 56 67 66
f 56 66 65
f 56 65 64
f 56 64 63
f 56 63 62
f 56 62 61
f 56 61 60
f 56 60 59
f 56 59 58
f 56 58 57
f 89 90 91
f 89 91 92
f 89 92 93
f 89 93 94
f 89 94 95
f 89 95 96
f 89 96 97
f 89 97 2
f 89 2 3
f 89 3 4
f 89 4 5
f 89 5 6
f 89 6 7
f 89 7 8
f 89 8 9
f 89 9 11
f 89 11 76
f 89 76 77
f 89 77 78
f 89 78 79
f 89 79 80
f 89 80 81
f 89 81 82
f 89 82 83
f 89 83 84
f 89 84 85
f 89 85 86
f 89 86 87
f 89 87 88
f 179 178 177
f 179 177 176
f 179 176 175
f 179 175 174
f 179 174 173
f 179 173 172
f 179 172 171
f 179 171 170
f 179 170 169
f 179 169 168
f 179 168 167
f 179 167 166
f 179 166 165
f 179 165 164
f 179 164 163
f 179 163 162
f 179 162 161
f 179 161 160
f 179 160 159
f 179 159 158
f 179 158 157
f 179 157 156
f 179 156 155
f 179 155 154
f 179 154 153
f 179 153 152
f 179 152 151
f 179 151 150
f 179 150 149
f 179 149 148
f 179 148 147
f 179 147 113
f 179 113 145
f 179 145 144
f 179 144 143
f 179 143 142
f 179 142 141
f 179 141 140
f 179 140 139
f 179 139 138
f 179 138 137
f 179 137 136
f 179 136 135
f 179 135 134
f 179 134 133
f 179 133 132
f 179 132 131
f 179 131 130
f 179 130 129
f 179 129 128
f 179 128 127
f 179 127 126
f 179 126 125
f 179 125 124
f 179 124 123
f 179 123 122
f 179 122 121
f 179 121 120
f 179 120 119
f 179 119 118
f 179 118 117
f 179 117 116
f 179 116 115
f 179 115 98
f 194 195 196
f 194 196 99
f 194 99 100
f 194 100 101
f 194 101 102
f 194 102 103
f 194 103 104
f 194 104 105
f 194 105 106
f 194 106 107
f 194 107 108
f 194 108 109
f 194 109 110
f 194 110 111
f 194 111 112
f 194 112 114
f 194 114 180
f 194 180 181
f 194 181 182
f 194 182 183
f 194 183 184
f 194 184 185
f 194 185 186
f 194 186 187
f 194 187 188
f 194 188 189
f 194 189 190
f 194 190 191
f 194 191 192
f 194 192 193
f 201 202 203
f 201 203 204
f 201 204 234
f 201 234 235
f 201 235 236
f 201 236 199
f 201 199 200
f 233 234 204
f 233 204 205
f 233 205 206
f 197 198 199
f 197 199 236
f 197 236 237
f 197 237 238
f 197 238 227
f 197 227 228
f 232 233 206
f 232 206 207
f 232 207 208
f 231 232 208
f 231 208 209
f 231 209 210
f 230 231 210
f 230 210 211
f 230 211 212
f 229 230 212
f 229 212 213
f 229 213 214
f 229 214 215
f 229 215 244
f 226 227 238
f 226 238 239
f 226 239 224
f 226 224 225
f 223 224 239
f 223 239 240
f 223 240 241
f 223 241 221
f 223 221 222
f 220 221 241
f 220 241 242
f 220 242 218
f 220 218 219
f 244 215 216
f 244 216 217
f 244 217 218
f 244 218 242
f 244 242 243
f 246 295 297
f 246 297 296
f 246 296 276
f 246 276 277
f 246 277 273
f 296 297 299
f 296 299 298
f 296 298 276
f 247 300 301
f 247 301 274
f 247 274 275
f 247 275 270
f 274 301 295
f 274 295 246
f 274 246 273
f 274 273 275
f 248 302 303
f 248 303 271
f 248 271 272
f 248 272 267
f 271 303 300
f 271 300 247
f 271 247 270
f 271 270 272
f 249 286 285
f 249 285 305
f 249 305 268
f 249 268 269
f 249 269 206
f 249 206 205
f 268 305 302
f 268 302 248
f 268 248 267
f 268 267 269
f 250 306 307
f 250 307 265
f 250 265 266
f 250 266 261
f 265 307 304
f 265 304 249
f 265 249 264
f 265 264 266
f 251 308 309
f 251 309 262
f 251 262 263
f 251 263 258
f 262 309 306
f 262 306 250
f 262 250 261
f 262 261 263
f 252 310 311
f 252 311 259
f 252 259 260
f 252 260 255
f 259 311 308
f 259 308 251
f 259 251 258
f 259 258 260
f 256 314 310
f 256 310 252
f 256 252 255
f 256 255 257
f 313 315 314
f 313 314 312
f 313 312 256
f 276 254 253
f 276 253 213
f 276 213 277
f 315 313 317
f 315 317 316
f 318 317 256
f 318 256 257
f 318 257 198
f 318 198 197
f 319 366 368
f 319 368 367
f 319 367 347
f 319 347 348
f 319 348 344
f 367 368 370
f 367 370 369
f 367 369 347
f 320 371 372
f 320 372 345
f 320 345 346
f 320 346 341
f 345 372 366
f 345 366 319
f 345 319 344
f 345 344 346
f 321 373 374
f 321 374 342
f 321 342 343
f 321 343 338
f 342 374 371
f 342 371 320
f 342 320 341
f 342 341 343
f 322 357 356
f 322 356 376
f 322 376 339
f 322 339 340
f 322 340 222
f 322 222 221
f 339 376 373
f 339 373 321
f 339 321 338
f 339 338 340
f 323 377 378
f 323 378 336
f 323 336 337
f 323 337 332
f 336 378 375
f 336 375 322
f 336 322 335
f 336 335 337
f 324 379 380
f 324 380 333
f 324 333 334
f 324 334 329
f 333 380 377
f 333 377 323
f 333 323 332
f 333 332 334
f 325 381 382
f 325 382 330
f 325 330 331
f 325 331 326
f 330 382 379
f 330 379 324
f 330 324 329
f 330 329 331
f 327 385 381
f 327 381 325
f 327 325 326
f 327 326 328
f 384 386 385
f 384 385 383
f 384 383 327
f 347 317 318
f 347 318 197
f 347 197 348
f 386 384 254
f 386 254 245
f 253 254 327
f 253 327 328
f 253 328 214
f 253 214 213
f 420 422 419
f 420 419 388
f 420 388 230
f 387 400 422
f 387 422 420
f 387 420 229
f 424 425 423
f 424 423 389
f 424 389 231
f 388 419 425
f 388 425 424
f 388 424 230
f 427 429 426
f 427 426 391
f 427 391 235
f 390 428 429
f 390 429 427
f 390 427 234
f 431 432 430
f 431 430 392
f 431 392 236
f 391 426 432
f 391 432 431
f 391 431 235
f 434 435 393
f 434 393 433
f 434 433 394
f 434 394 237
f 392 430 435
f 392 435 434
f 392 434 236
f 437 438 436
f 437 436 395
f 437 395 238
f 394 393 438
f 394 438 437
f 394 437 237
f 440 441 439
f 440 439 396
f 440 396 239
f 395 436 441
f 395 441 440
f 395 440 238
f 443 445 442
f 443 442 398
f 443 398 243
f 397 444 445
f 397 445 443
f 397 443 242
f 447 448 446
f 447 446 399
f 447 399 244
f 398 442 448
f 398 448 447
f 398 447 243
f 449 450 400
f 449 400 421
f 449 421 387
f 449 387 229
f 399 446 450
f 399 450 449
f 399 449 244
f 407 408 432
f 407 432 426
f 451 405 428
f 451 428 390
f 451 390 234
f 451 234 233
f 452 414 444
f 452 444 397
f 452 397 242
f 452 242 241
f 416 417 448
f 416 448 442
f 456 457 517
f 456 517 518
f 508 509 467
f 508 467 468
f 485 486 492
f 485 492 493
f 502 474 475
f 502 475 501
f 657 682 127
f 657 127 128
f 657 128 712
f 124 683 658
f 124 658 687
f 124 687 122
f 124 122 123
f 684 131 132
f 684 132 133
f 684 133 689
f 684 689 656
f 149 685 652
f 149 652 695
f 149 695 147
f 149 147 148
f 118 119 693
f 118 693 659
f 118 659 686
f 118 686 117
f 688 135 136
f 688 136 703
f 688 703 655
f 115 690 644
f 115 644 696
f 115 696 179
f 691 139 140
f 691 140 698
f 691 698 654
f 653 692 143
f 653 143 144
f 653 144 145
f 653 145 694
f 177 697 645
f 177 645 700
f 177 700 175
f 177 175 176
f 173 699 646
f 173 646 702
f 173 702 171
f 173 171 172
f 169 701 647
f 169 647 704
f 169 704 167
f 169 167 168
f 152 153 706
f 152 706 651
f 152 651 707
f 152 707 151
f 650 705 155
f 650 155 156
f 650 156 157
f 650 157 710
f 161 708 649
f 161 649 711
f 161 711 159
f 161 159 160
f 709 163 164
f 709 164 165
f 709 165 713
f 709 713 648
f 39 40 718
f 39 718 523
f 39 523 717
f 39 717 38
f 43 44 714
f 43 714 524
f 43 524 715
f 43 715 42
f 716 34 35
f 716 35 36
f 716 36 740
f 716 740 522
f 12 32 733
f 12 733 521
f 12 521 724
f 12 724 30
f 47 48 741
f 47 741 525
f 47 525 719
f 47 719 46
f 51 52 742
f 51 742 526
f 51 526 720
f 51 720 50
f 55 56 743
f 55 743 527
f 55 527 721
f 55 721 54
f 59 60 722
f 59 722 528
f 59 528 723
f 59 723 58
f 10 28 725
f 10 725 536
f 10 536 726
f 10 726 27
f 24 25 727
f 24 727 535
f 24 535 728
f 24 728 23
f 20 729 534
f 20 534 730
f 20 730 19
f 16 17 731
f 16 731 533
f 16 533 735
f 16 735 15
f 732 1 13
f 732 13 736
f 732 736 532
f 67 68 69
f 67 69 745
f 67 745 530
f 67 530 739
f 62 63 64
f 62 64 744
f 62 744 529
f 62 529 734
f 531 737 72
f 531 72 73
f 531 73 74
f 531 74 738
f 884 886 32
f 884 32 888
f 884 888 885
f 885 888 12
f 885 12 31
f 885 31 887
f 885 887 858
f 854 858 887
f 854 887 891
f 854 891 889
f 889 891 30
f 889 30 890
f 889 890 860
f 837 950 967
f 837 967 964
f 950 957 968
f 950 968 146
f 950 146 969
f 950 969 967
f 966 965 967
f 966 967 969
f 966 969 179
f 968 950 970
f 968 970 972
f 968 972 98
f 968 98 146
f 909 904 507
f 909 507 506
f 890 29 859
f 890 859 860
f 31 12 891
f 31 891 887
f 98 179 969
f 98 969 146
f 971 953 116
f 971 116 115
f 2 1 13
f 3 13 14
f 4 15 16
f 5 17 18
f 4 16 17
f 3 14 15
f 3 2 13
f 5 4 17
f 3 15 4
f 6 19 20
f 7 6 21
f 7 21 22
f 20 21 6
f 5 19 6
f 19 5 18
f 7 22 23
f 8 24 25
f 8 23 24
f 9 26 27
f 11 10 28
f 11 27 10
f 9 25 26
f 8 7 23
f 11 9 27
f 8 25 9
f 31 29 30
f 30 12 31
f 31 11 28
f 31 28 29
f 146 98 115
f 99 115 116
f 100 117 118
f 100 118 119
f 99 116 117
f 101 120 121
f 101 121 122
f 102 123 124
f 103 124 125
f 102 122 123
f 100 119 120
f 99 146 115
f 100 99 117
f 102 101 122
f 103 102 124
f 100 120 101
f 104 126 127
f 104 127 128
f 105 104 128
f 105 128 129
f 130 105 129
f 103 126 104
f 125 126 103
f 106 105 130
f 106 130 131
f 106 131 132
f 107 133 134
f 107 134 135
f 106 132 133
f 108 136 137
f 109 137 138
f 110 139 140
f 110 140 141
f 109 138 139
f 108 135 136
f 106 133 107
f 111 141 142
f 107 135 108
f 109 108 137
f 110 109 139
f 141 111 110
f 112 143 144
f 112 144 145
f 112 111 143
f 114 112 145
f 114 145 113
f 142 143 111
f 278 245 299
f 279 278 297
f 280 279 295
f 254 298 299
f 254 299 245
f 279 297 295
f 297 278 299
f 295 301 280
f 300 282 281
f 305 284 302
f 302 284 283
f 303 283 282
f 300 281 301
f 303 302 283
f 282 300 303
f 284 305 285
f 280 301 281
f 277 212 211
f 277 211 273
f 212 277 213
f 210 275 273
f 210 273 211
f 209 270 275
f 209 275 210
f 276 298 254
f 270 209 208
f 270 208 272
f 272 208 207
f 272 207 267
f 206 269 267
f 206 267 207
f 304 287 286
f 306 289 288
f 308 291 290
f 309 290 289
f 307 288 287
f 306 288 307
f 309 289 306
f 309 308 290
f 308 311 291
f 293 292 310
f 294 314 315
f 293 314 294
f 316 294 315
f 314 293 310
f 310 292 311
f 291 311 292
f 264 205 204
f 264 204 266
f 261 203 202
f 261 202 263
f 263 202 201
f 263 201 258
f 266 204 203
f 266 203 261
f 200 260 258
f 200 258 201
f 260 200 199
f 260 199 255
f 198 257 255
f 198 255 199
f 256 317 313
f 287 304 307
f 349 316 370
f 350 349 368
f 351 350 366
f 317 369 370
f 317 370 316
f 350 368 366
f 368 349 370
f 366 372 351
f 371 353 352
f 376 355 373
f 373 355 354
f 374 354 353
f 371 352 372
f 374 373 354
f 353 371 374
f 355 376 356
f 351 372 352
f 348 228 227
f 348 227 344
f 228 348 197
f 226 346 344
f 226 344 227
f 225 346 226
f 347 369 317
f 224 343 341
f 343 224 223
f 343 223 338
f 224 341 225
f 222 340 338
f 222 338 223
f 346 225 341
f 375 358 357
f 377 360 359
f 379 362 361
f 380 361 360
f 378 359 358
f 377 359 378
f 380 360 377
f 380 379 361
f 379 382 362
f 364 363 381
f 365 385 386
f 364 385 365
f 245 365 386
f 385 364 381
f 381 363 382
f 362 382 363
f 335 221 220
f 335 220 337
f 218 334 332
f 334 218 217
f 334 217 329
f 337 220 219
f 337 219 332
f 332 219 218
f 216 331 329
f 216 329 217
f 215 326 331
f 215 331 216
f 214 328 326
f 214 326 215
f 327 254 384
f 358 375 378
f 401 422 400
f 403 425 402
f 402 419 401
f 404 423 403
f 402 425 419
f 403 423 425
f 419 422 401
f 389 423 404
f 407 429 406
f 409 430 408
f 435 430 409
f 405 406 428
f 428 406 429
f 405 451 404
f 426 429 407
f 432 408 430
f 435 409 393
f 230 229 420
f 231 230 424
f 233 232 451
f 389 232 231
f 389 404 451
f 451 232 389
f 234 427 235
f 236 235 431
f 434 237 236
f 411 436 410
f 396 439 413
f 439 412 413
f 412 441 411
f 410 436 438
f 412 439 441
f 452 413 414
f 441 436 411
f 444 414 415
f 416 445 415
f 418 446 417
f 450 418 400
f 416 442 445
f 418 450 446
f 446 448 417
f 444 415 445
f 238 237 437
f 239 238 440
f 241 240 452
f 396 240 239
f 396 413 452
f 396 452 240
f 243 242 443
f 244 243 447
f 244 449 229
f 410 438 393
f 278 454 453
f 453 245 278
f 278 279 454
f 280 455 279
f 454 279 455
f 456 280 281
f 455 280 456
f 456 281 457
f 281 282 457
f 282 458 457
f 282 283 458
f 459 458 283
f 284 459 283
f 285 461 460
f 284 285 460
f 461 285 286
f 462 461 286
f 459 284 460
f 292 469 468
f 468 291 292
f 467 291 468
f 292 293 469
f 294 471 470
f 470 293 294
f 471 294 316
f 469 293 470
f 287 464 463
f 286 287 463
f 288 464 287
f 288 465 464
f 286 463 462
f 466 290 467
f 291 467 290
f 465 289 466
f 290 466 289
f 288 289 465
f 349 472 471
f 471 316 349
f 349 350 472
f 351 473 350
f 472 350 473
f 474 351 352
f 473 351 474
f 474 352 475
f 352 353 475
f 353 476 475
f 353 354 476
f 477 476 354
f 355 477 354
f 356 479 478
f 355 356 478
f 479 356 357
f 480 479 357
f 477 355 478
f 363 487 486
f 486 362 363
f 485 362 486
f 363 364 487
f 365 453 488
f 488 364 365
f 453 365 245
f 487 364 488
f 358 482 481
f 357 358 481
f 359 482 358
f 359 483 482
f 357 481 480
f 484 361 485
f 362 485 361
f 483 360 484
f 361 484 360
f 359 360 483
f 515 516 459
f 458 459 516
f 457 458 517
f 516 517 458
f 513 514 461
f 460 461 514
f 514 515 460
f 459 460 515
f 453 454 520
f 519 520 454
f 520 489 453
f 490 453 489
f 456 518 455
f 519 455 518
f 454 455 519
f 463 512 513
f 513 462 463
f 462 513 461
f 464 512 463
f 465 511 464
f 512 464 511
f 466 510 465
f 511 465 510
f 510 466 509
f 467 509 466
f 507 508 469
f 468 469 508
f 506 507 470
f 469 470 507
f 470 471 506
f 491 488 490
f 488 491 487
f 492 487 491
f 487 492 486
f 484 485 493
f 494 483 484
f 483 494 495
f 494 484 493
f 482 483 495
f 496 481 482
f 480 481 497
f 496 497 481
f 479 480 497
f 496 482 495
f 502 503 473
f 472 473 503
f 473 474 502
f 506 471 505
f 504 505 471
f 503 504 472
f 471 472 504
f 477 478 499
f 498 499 478
f 478 479 498
f 497 498 479
f 476 501 475
f 500 476 477
f 499 500 477
f 501 476 500
f 490 488 453
f 554 553 537
f 554 537 538
f 555 554 538
f 555 538 539
f 556 555 539
f 556 539 540
f 557 556 540
f 557 540 541
f 558 557 541
f 558 541 542
f 559 558 542
f 559 542 543
f 560 559 543
f 560 543 544
f 561 560 544
f 561 544 545
f 562 561 545
f 562 545 546
f 563 562 546
f 563 546 547
f 564 563 547
f 564 547 548
f 565 564 548
f 565 548 549
f 566 565 549
f 566 549 550
f 567 566 550
f 567 550 551
f 568 567 551
f 568 551 552
f 553 568 552
f 553 552 537
f 570 569 553
f 570 553 554
f 662 555 571
f 554 662 570
f 555 662 554
f 665 556 572
f 555 665 571
f 556 665 555
f 573 572 556
f 573 556 557
f 574 573 557
f 574 557 558
f 667 559 575
f 558 667 574
f 559 667 558
f 674 560 576
f 559 674 575
f 560 674 559
f 577 576 560
f 577 560 561
f 578 577 561
f 578 561 562
f 579 578 562
f 579 562 563
f 580 579 563
f 580 563 564
f 581 580 564
f 581 564 565
f 582 581 565
f 582 565 566
f 583 582 566
f 583 566 567
f 584 583 567
f 584 567 568
f 569 584 568
f 569 568 553
f 663 569 570
f 585 663 586
f 569 663 585
f 661 664 662
f 661 662 571
f 664 663 570
f 664 570 662
f 660 586 663
f 660 663 664
f 587 670 675
f 587 675 673
f 673 675 674
f 673 674 576
f 675 666 575
f 675 575 674
f 673 588 587
f 577 673 576
f 588 673 577
f 589 588 577
f 589 577 578
f 590 589 578
f 590 578 579
f 591 590 579
f 591 579 580
f 592 591 580
f 592 580 581
f 593 592 581
f 593 581 582
f 594 593 582
f 594 582 583
f 595 594 583
f 595 583 584
f 585 595 584
f 585 584 569
f 680 585 586
f 596 680 597
f 585 680 596
f 598 679 681
f 598 681 678
f 681 680 586
f 681 586 660
f 679 597 680
f 679 680 681
f 676 671 602
f 603 668 672
f 603 672 669
f 669 672 670
f 669 670 587
f 668 602 671
f 668 671 672
f 669 604 603
f 588 669 587
f 604 669 588
f 605 604 588
f 605 588 589
f 606 605 589
f 606 589 590
f 607 606 590
f 607 590 591
f 608 607 591
f 608 591 592
f 609 608 592
f 609 592 593
f 610 609 593
f 610 593 594
f 611 610 594
f 611 594 595
f 596 611 595
f 596 595 585
f 613 612 596
f 613 596 597
f 679 613 597
f 614 679 598
f 613 679 614
f 677 614 598
f 615 677 599
f 614 677 615
f 616 615 599
f 616 599 600
f 617 616 600
f 617 600 601
f 676 617 601
f 618 676 602
f 617 676 618
f 668 618 602
f 619 668 603
f 618 668 619
f 620 619 603
f 620 603 604
f 621 620 604
f 621 604 605
f 622 621 605
f 622 605 606
f 623 622 606
f 623 606 607
f 624 623 607
f 624 607 608
f 625 624 608
f 625 608 609
f 626 625 609
f 626 609 610
f 627 626 610
f 627 610 611
f 612 627 611
f 612 611 596
f 629 628 612
f 629 612 613
f 630 629 613
f 630 613 614
f 631 630 614
f 631 614 615
f 632 631 615
f 632 615 616
f 633 632 616
f 633 616 617
f 634 633 617
f 634 617 618
f 635 634 618
f 635 618 619
f 636 635 619
f 636 619 620
f 637 636 620
f 637 620 621
f 638 637 621
f 638 621 622
f 639 638 622
f 639 622 623
f 640 639 623
f 640 623 624
f 641 640 624
f 641 624 625
f 642 641 625
f 642 625 626
f 643 642 626
f 643 626 627
f 628 643 627
f 628 627 612
f 522 538 537
f 522 537 521
f 523 539 538
f 523 538 522
f 539 523 524
f 539 524 540
f 525 541 540
f 525 540 524
f 526 542 541
f 526 541 525
f 542 526 527
f 542 527 543
f 665 661 571
f 401 664 661
f 403 661 665
f 661 402 401
f 661 403 402
f 664 401 400
f 572 403 665
f 404 572 573
f 406 573 574
f 573 405 404
f 574 407 406
f 573 406 405
f 404 403 572
f 574 667 407
f 528 544 543
f 528 543 527
f 529 545 544
f 529 544 528
f 531 547 546
f 531 546 530
f 530 546 545
f 530 545 529
f 532 548 547
f 532 547 531
f 533 549 548
f 533 548 532
f 535 551 550
f 535 550 534
f 521 537 552
f 521 552 536
f 536 552 551
f 536 551 535
f 534 550 549
f 534 549 533
f 666 667 575
f 666 409 408
f 409 666 675
f 667 666 408
f 408 407 667
f 393 409 675
f 664 400 660
f 681 400 418
f 678 418 417
f 418 678 681
f 678 677 598
f 416 678 417
f 681 660 400
f 677 678 416
f 599 416 415
f 415 414 600
f 600 414 413
f 412 601 413
f 599 415 600
f 599 677 416
f 600 413 601
f 629 645 644
f 629 644 628
f 630 646 645
f 630 645 629
f 646 630 631
f 646 631 647
f 412 676 601
f 633 649 648
f 633 648 632
f 647 631 632
f 647 632 648
f 649 633 634
f 649 634 650
f 411 676 412
f 672 393 670
f 410 393 672
f 675 670 393
f 410 672 671
f 671 676 411
f 411 410 671
f 636 652 651
f 636 651 635
f 637 653 652
f 637 652 636
f 639 655 654
f 639 654 638
f 641 657 656
f 641 656 640
f 640 656 655
f 640 655 639
f 638 654 653
f 638 653 637
f 635 651 650
f 635 650 634
f 643 659 658
f 643 658 642
f 628 644 659
f 628 659 643
f 657 641 642
f 657 642 658
f 1115 863 861
f 747 862 1115
f 861 747 1115
f 862 1113 1116
f 862 1116 1115
f 1115 1116 883
f 1115 883 863
f 863 883 884
f 863 884 882
f 885 858 854
f 882 884 885
f 854 882 885
f 882 854 746
f 861 863 882
f 746 861 882
f 1109 1108 1107
f 748 1099 1109
f 1107 748 1109
f 1099 1105 1111
f 1099 1111 1109
f 1109 1111 1110
f 1109 1110 1108
f 1108 1110 1114
f 1108 1114 1112
f 1112 1114 1113
f 1112 1113 862
f 1112 862 747
f 1107 1108 1112
f 747 1107 1112
f 1101 1100 1098
f 749 1090 1101
f 1098 749 1101
f 1090 1096 1103
f 1090 1103 1101
f 1101 1103 1102
f 1101 1102 1100
f 1100 1102 1106
f 1100 1106 1104
f 1104 1106 1105
f 1104 1105 1099
f 1104 1099 748
f 1098 1100 1104
f 748 1098 1104
f 1092 1091 1089
f 750 1081 1092
f 1089 750 1092
f 1081 1087 1094
f 1081 1094 1092
f 1092 1094 1093
f 1092 1093 1091
f 1091 1093 1097
f 1091 1097 1095
f 1095 1097 1096
f 1095 1096 1090
f 1095 1090 749
f 1089 1091 1095
f 749 1089 1095
f 1083 1082 1080
f 751 1072 1083
f 1080 751 1083
f 1072 1078 1085
f 1072 1085 1083
f 1083 1085 1084
f 1083 1084 1082
f 1082 1084 1088
f 1082 1088 1086
f 1086 1088 1087
f 1086 1087 1081
f 1086 1081 750
f 1080 1082 1086
f 750 1080 1086
f 1074 1073 1071
f 752 1063 1074
f 1071 752 1074
f 1063 1069 1076
f 1063 1076 1074
f 1074 1076 1075
f 1074 1075 1073
f 1073 1075 1079
f 1073 1079 1077
f 1077 1079 1078
f 1077 1078 1072
f 1077 1072 751
f 1071 1073 1077
f 751 1071 1077
f 1065 1064 1062
f 753 1054 1065
f 1062 753 1065
f 1054 1060 1067
f 1054 1067 1065
f 1065 1067 1066
f 1065 1066 1064
f 1064 1066 1070
f 1064 1070 1068
f 1068 1070 1069
f 1068 1069 1063
f 1068 1063 752
f 1062 1064 1068
f 752 1062 1068
f 1056 1055 1053
f 754 1045 1056
f 1053 754 1056
f 1045 1051 1058
f 1045 1058 1056
f 1056 1058 1057
f 1056 1057 1055
f 1055 1057 1061
f 1055 1061 1059
f 1059 1061 1060
f 1059 1060 1054
f 1059 1054 753
f 1053 1055 1059
f 753 1053 1059
f 1047 1046 1044
f 755 1035 1047
f 1044 755 1047
f 1035 1042 1049
f 1035 1049 1047
f 1047 1049 1048
f 1047 1048 1046
f 1046 1048 1052
f 1046 1052 1050
f 1050 1052 1051
f 1050 1051 1045
f 1050 1045 754
f 1044 1046 1050
f 754 1044 1050
f 1037 1036 1034
f 756 880 1037
f 1034 756 1037
f 880 1038 1040
f 880 1040 1037
f 1037 1040 1039
f 1037 1039 1036
f 1036 1039 1043
f 1036 1043 1041
f 1041 1043 1042
f 1041 1042 1035
f 1041 1035 755
f 1034 1036 1041
f 755 1034 1041
f 757 877 881
f 757 881 879
f 879 881 880
f 879 880 756
f 758 874 878
f 758 878 876
f 876 878 877
f 876 877 757
f 759 871 875
f 759 875 873
f 873 875 874
f 873 874 758
f 760 868 872
f 760 872 870
f 870 872 871
f 870 871 759
f 761 855 869
f 761 869 867
f 867 869 868
f 867 868 760
f 857 856 853
f 746 854 857
f 853 746 857
f 889 860 857
f 857 854 889
f 857 860 859
f 857 859 856
f 856 859 866
f 856 866 864
f 864 866 865
f 864 865 855
f 864 855 761
f 853 856 864
f 761 853 864
f 861 746 762
f 763 747 861
f 762 763 861
f 1107 747 763
f 764 748 1107
f 763 764 1107
f 1098 748 764
f 765 749 1098
f 764 765 1098
f 1089 749 765
f 766 750 1089
f 765 766 1089
f 1080 750 766
f 767 751 1080
f 766 767 1080
f 1071 751 767
f 768 752 1071
f 767 768 1071
f 1062 752 768
f 769 753 1062
f 768 769 1062
f 1053 753 769
f 770 754 1053
f 769 770 1053
f 1044 754 770
f 771 755 1044
f 770 771 1044
f 1034 755 771
f 772 756 1034
f 771 772 1034
f 879 756 772
f 773 757 879
f 772 773 879
f 876 757 773
f 774 758 876
f 773 774 876
f 873 758 774
f 775 759 873
f 774 775 873
f 870 759 775
f 776 760 870
f 775 776 870
f 867 760 776
f 777 761 867
f 776 777 867
f 853 761 777
f 762 746 853
f 777 762 853
f 779 763 762
f 779 762 778
f 894 780 764
f 763 779 894
f 764 763 894
f 901 781 765
f 764 780 901
f 765 764 901
f 902 782 766
f 765 781 902
f 766 765 902
f 903 783 767
f 766 782 903
f 767 766 903
f 905 784 768
f 767 783 905
f 768 767 905
f 908 785 769
f 768 784 908
f 769 768 908
f 786 770 769
f 786 769 785
f 787 771 770
f 787 770 786
f 788 772 771
f 788 771 787
f 789 773 772
f 789 772 788
f 790 774 773
f 790 773 789
f 791 775 774
f 791 774 790
f 792 776 775
f 792 775 791
f 793 777 776
f 793 776 792
f 778 762 777
f 778 777 793
f 895 779 778
f 794 795 895
f 778 794 895
f 893 780 894
f 893 894 896
f 896 894 779
f 896 779 895
f 892 896 895
f 892 895 795
f 796 907 909
f 796 909 906
f 907 785 908
f 907 908 909
f 909 908 784
f 909 784 904
f 907 796 797
f 786 785 907
f 797 786 907
f 798 787 786
f 798 786 797
f 799 788 787
f 799 787 798
f 800 789 788
f 800 788 799
f 801 790 789
f 801 789 800
f 802 791 790
f 802 790 801
f 803 792 791
f 803 791 802
f 804 793 792
f 804 792 803
f 794 778 793
f 794 793 804
f 899 795 794
f 805 806 899
f 794 805 899
f 807 898 900
f 807 900 897
f 900 892 795
f 900 795 899
f 897 900 899
f 897 899 806
f 812 911 913
f 812 913 910
f 911 796 906
f 911 906 913
f 910 913 912
f 910 912 811
f 911 812 813
f 797 796 911
f 813 797 911
f 814 798 797
f 814 797 813
f 815 799 798
f 815 798 814
f 816 800 799
f 816 799 815
f 817 801 800
f 817 800 816
f 818 802 801
f 818 801 817
f 819 803 802
f 819 802 818
f 820 804 803
f 820 803 819
f 805 794 804
f 805 804 820
f 822 806 805
f 822 805 821
f 897 806 822
f 823 807 897
f 822 823 897
f 917 807 823
f 824 808 917
f 823 824 917
f 916 808 824
f 825 809 916
f 824 825 916
f 915 809 825
f 826 810 915
f 825 826 915
f 914 810 826
f 827 811 914
f 826 827 914
f 910 811 827
f 828 812 910
f 827 828 910
f 829 813 812
f 829 812 828
f 830 814 813
f 830 813 829
f 831 815 814
f 831 814 830
f 832 816 815
f 832 815 831
f 833 817 816
f 833 816 832
f 834 818 817
f 834 817 833
f 835 819 818
f 835 818 834
f 836 820 819
f 836 819 835
f 821 805 820
f 821 820 836
f 961 838 822
f 821 837 961
f 822 821 961
f 977 839 823
f 822 838 977
f 823 822 977
f 986 840 824
f 823 839 986
f 824 823 986
f 995 841 825
f 824 840 995
f 825 824 995
f 1004 842 826
f 825 841 1004
f 826 825 1004
f 1013 843 827
f 826 842 1013
f 827 826 1013
f 1021 844 828
f 827 843 1021
f 828 827 1021
f 926 845 829
f 828 844 926
f 829 828 926
f 919 846 830
f 829 845 919
f 830 829 919
f 933 847 831
f 830 846 933
f 831 830 933
f 936 848 832
f 831 847 936
f 832 831 936
f 939 849 833
f 832 848 939
f 833 832 939
f 942 850 834
f 833 849 942
f 834 833 942
f 945 851 835
f 834 850 945
f 835 834 945
f 948 852 836
f 835 851 948
f 836 835 948
f 951 837 821
f 836 852 951
f 821 836 951
f 973 960 974
f 973 974 975
f 975 974 962
f 975 962 963
f 974 960 838
f 961 962 974
f 838 961 974
f 964 962 961
f 961 837 964
f 963 962 964
f 963 964 965
f 967 965 964
f 982 976 983
f 982 983 984
f 984 983 978
f 984 978 979
f 983 976 839
f 977 978 983
f 839 977 983
f 980 978 977
f 838 960 980
f 977 838 980
f 979 978 980
f 979 980 981
f 981 980 960
f 981 960 973
f 991 985 992
f 991 992 993
f 993 992 987
f 993 987 988
f 992 985 840
f 986 987 992
f 840 986 992
f 989 987 986
f 839 976 989
f 986 839 989
f 988 987 989
f 988 989 990
f 990 989 976
f 990 976 982
f 1000 994 1001
f 1000 1001 1002
f 1002 1001 996
f 1002 996 997
f 1001 994 841
f 995 996 1001
f 841 995 1001
f 998 996 995
f 840 985 998
f 995 840 998
f 997 996 998
f 997 998 999
f 999 998 985
f 999 985 991
f 1009 1003 1010
f 1009 1010 1011
f 1011 1010 1005
f 1011 1005 1006
f 1010 1003 842
f 1004 1005 1010
f 842 1004 1010
f 1007 1005 1004
f 841 994 1007
f 1004 841 1007
f 1006 1005 1007
f 1006 1007 1008
f 1008 1007 994
f 1008 994 1000
f 1018 1012 1019
f 1018 1019 1020
f 1020 1019 1014
f 1020 1014 1015
f 1019 1012 843
f 1013 1014 1019
f 843 1013 1019
f 1016 1014 1013
f 842 1003 1016
f 1013 842 1016
f 1015 1014 1016
f 1015 1016 1017
f 1017 1016 1003
f 1017 1003 1009
f 1026 927 1027
f 1026 1027 1028
f 1028 1027 1022
f 1028 1022 1023
f 1027 927 844
f 1021 1022 1027
f 844 1021 1027
f 1024 1022 1021
f 843 1012 1024
f 1021 843 1024
f 1023 1022 1024
f 1023 1024 1025
f 1025 1024 1012
f 1025 1012 1018
f 924 920 1032
f 924 1032 1033
f 1033 1032 928
f 1033 928 1029
f 1032 920 845
f 926 928 1032
f 845 926 1032
f 1030 928 926
f 844 927 1030
f 926 844 1030
f 1029 928 1030
f 1029 1030 1031
f 1031 1030 927
f 1031 927 1026
f 929 918 930
f 929 930 931
f 931 930 921
f 931 921 922
f 930 918 846
f 919 921 930
f 846 919 930
f 923 921 919
f 845 920 923
f 919 845 923
f 922 921 923
f 922 923 925
f 925 923 920
f 925 920 924
f 932 847 933
f 932 933 934
f 934 933 846
f 934 846 918
f 935 848 936
f 935 936 937
f 937 936 847
f 937 847 932
f 938 849 939
f 938 939 940
f 940 939 848
f 940 848 935
f 941 850 942
f 941 942 943
f 943 942 849
f 943 849 938
f 944 851 945
f 944 945 946
f 946 945 850
f 946 850 941
f 947 852 948
f 947 948 949
f 949 948 851
f 949 851 944
f 972 970 959
f 972 959 971
f 958 959 970
f 950 958 970
f 959 958 952
f 959 952 953
f 958 950 837
f 951 952 958
f 837 951 958
f 954 952 951
f 852 947 954
f 951 852 954
f 953 952 954
f 953 954 956
f 956 954 947
f 956 947 955
f 12 888 32
f 34 33 883
f 34 883 1116
f 33 32 886
f 35 34 1116
f 35 1116 1113
f 37 36 1114
f 37 1114 1110
f 38 37 1110
f 38 1110 1111
f 36 35 1113
f 36 1113 1114
f 883 886 884
f 883 33 886
f 39 38 1111
f 39 1111 1105
f 40 39 1105
f 40 1105 1106
f 42 41 1102
f 42 1102 1103
f 43 42 1103
f 43 1103 1096
f 41 40 1106
f 41 1106 1102
f 45 44 1097
f 45 1097 1093
f 47 46 1094
f 47 1094 1087
f 48 47 1087
f 48 1087 1088
f 46 45 1093
f 46 1093 1094
f 44 43 1096
f 44 1096 1097
f 50 49 1084
f 50 1084 1085
f 49 48 1088
f 49 1088 1084
f 51 50 1085
f 51 1085 1078
f 52 51 1078
f 52 1078 1079
f 54 53 1075
f 54 1075 1076
f 55 54 1076
f 55 1076 1069
f 53 52 1079
f 53 1079 1075
f 893 901 780
f 516 781 901
f 902 781 515
f 517 901 893
f 519 893 896
f 519 896 520
f 892 520 896
f 518 893 519
f 515 514 902
f 517 516 901
f 893 518 517
f 515 781 516
f 514 782 902
f 512 903 782
f 903 512 511
f 513 512 782
f 783 511 510
f 903 511 783
f 905 783 510
f 905 904 784
f 508 904 905
f 905 509 508
f 509 905 510
f 507 904 508
f 513 782 514
f 56 55 1069
f 56 1069 1070
f 57 56 1070
f 57 1070 1066
f 59 58 1067
f 59 1067 1060
f 58 57 1066
f 58 1066 1067
f 61 60 1061
f 61 1061 1057
f 63 62 1058
f 63 1058 1051
f 64 63 1051
f 64 1051 1052
f 62 61 1057
f 62 1057 1058
f 60 59 1060
f 60 1060 1061
f 1048 66 65
f 68 67 1049
f 68 1049 1042
f 69 68 1042
f 69 1042 1043
f 67 66 1048
f 67 1048 1049
f 1039 71 70
f 73 72 1040
f 73 1040 1038
f 1038 74 73
f 72 71 1039
f 72 1039 1040
f 70 69 1043
f 65 64 1052
f 1 75 881
f 1 881 877
f 878 14 13
f 878 15 14
f 13 1 877
f 874 17 16
f 875 19 18
f 871 20 19
f 18 17 875
f 16 15 874
f 872 22 21
f 868 24 23
f 868 25 24
f 23 22 872
f 869 27 26
f 28 10 865
f 28 865 866
f 29 28 866
f 29 866 859
f 10 27 865
f 26 25 869
f 21 20 871
f 75 74 881
f 1052 1048 65
f 881 1038 880
f 881 74 1038
f 1043 1039 70
f 890 30 29
f 891 12 30
f 878 13 877
f 875 17 874
f 871 19 875
f 874 15 878
f 872 868 23
f 27 869 865
f 865 869 855
f 868 869 25
f 872 21 871
f 906 909 506
f 489 520 892
f 490 489 892
f 898 491 900
f 490 900 491
f 490 892 900
f 898 493 492
f 917 898 807
f 493 898 917
f 898 492 491
f 917 494 493
f 966 963 965
f 973 975 177
f 973 177 176
f 981 973 176
f 981 176 175
f 975 963 178
f 975 178 177
f 984 979 174
f 984 174 173
f 990 982 172
f 990 172 171
f 988 990 171
f 988 171 170
f 982 984 173
f 982 173 172
f 979 981 175
f 979 175 174
f 808 495 494
f 499 810 500
f 496 495 916
f 912 503 502
f 501 914 502
f 501 500 914
f 912 502 914
f 504 503 912
f 915 499 498
f 916 809 496
f 991 993 169
f 991 169 168
f 808 494 917
f 496 809 497
f 499 915 810
f 915 498 809
f 810 914 500
f 914 811 912
f 497 809 498
f 808 916 495
f 993 988 170
f 993 170 169
f 963 966 178
f 178 966 179
f 999 991 168
f 999 168 167
f 167 166 997
f 167 997 999
f 1002 997 166
f 1002 166 165
f 1008 1000 164
f 1008 164 163
f 1006 1008 163
f 1006 163 162
f 1000 1002 165
f 1000 165 164
f 1009 1011 161
f 1009 161 160
f 1015 1017 159
f 1015 159 158
f 1020 1015 158
f 1020 158 157
f 1017 1009 160
f 1017 160 159
f 1011 1006 162
f 1011 162 161
f 157 156 1018
f 157 1018 1020
f 506 505 906
f 504 906 505
f 913 504 912
f 1025 1018 156
f 1025 156 155
f 913 906 504
f 1028 1023 154
f 1028 154 153
f 1026 1028 153
f 1026 153 152
f 1023 1025 155
f 1023 155 154
f 1029 1031 151
f 1029 151 150
f 1033 1029 150
f 1033 150 149
f 1031 1026 152
f 1031 152 151
f 924 1033 149
f 924 149 148
f 925 924 148
f 925 148 147
f 931 922 113
f 931 113 145
f 929 931 145
f 929 145 144
f 922 925 147
f 922 147 113
f 934 929 142
f 934 918 929
f 932 934 141
f 932 141 140
f 935 937 137
f 935 137 136
f 940 935 135
f 940 135 134
f 937 932 139
f 937 139 138
f 941 943 129
f 941 129 128
f 944 946 124
f 944 124 123
f 949 944 122
f 949 122 121
f 946 941 127
f 946 127 126
f 938 940 133
f 938 133 132
f 955 947 949
f 953 956 117
f 953 117 116
f 120 955 949
f 953 971 959
f 971 115 972
f 956 955 118
f 956 118 117
f 943 938 131
f 943 131 130
f 929 143 142
f 932 140 139
f 934 142 141
f 937 138 137
f 935 136 135
f 929 144 143
f 943 130 129
f 938 132 131
f 941 128 127
f 946 126 125
f 946 125 124
f 944 123 122
f 949 121 120
f 955 120 119
f 972 115 98
f 955 119 118
f 940 134 133
f 114 113 147
f 180 147 148
f 181 149 150
f 181 150 151
f 180 148 149
f 182 152 153
f 183 153 154
f 184 155 156
f 185 157 158
f 184 156 157
f 183 154 155
f 182 151 152
f 180 114 147
f 181 180 149
f 183 182 153
f 184 183 155
f 181 151 182
f 186 159 160
f 186 160 161
f 186 185 159
f 187 186 161
f 187 161 162
f 163 187 162
f 157 185 184
f 159 185 158
f 188 163 164
f 188 164 165
f 189 166 167
f 190 167 168
f 189 165 166
f 191 169 170
f 191 170 171
f 192 172 173
f 193 174 175
f 193 173 174
f 192 171 172
f 190 168 169
f 188 165 189
f 175 176 194
f 189 167 190
f 191 190 169
f 193 192 173
f 191 171 192
f 175 194 193
f 195 177 178
f 195 178 179
f 195 194 177
f 179 146 195
f 179 98 146
f 176 177 194
f 187 163 188
f 76 12 32
f 77 33 34
f 77 32 33
f 78 35 36
f 79 37 38
f 79 36 37
f 78 34 35
f 80 39 40
f 81 41 42
f 81 40 41
f 82 43 44
f 83 45 46
f 84 46 47
f 83 44 45
f 82 42 43
f 80 38 39
f 77 76 32
f 79 78 36
f 77 34 78
f 81 80 40
f 83 82 44
f 81 42 82
f 79 38 80
f 85 48 49
f 86 50 51
f 85 49 50
f 85 84 48
f 87 86 52
f 87 52 53
f 50 86 85
f 51 52 86
f 46 84 83
f 47 48 84
f 88 54 55
f 89 56 57
f 88 55 56
f 90 58 59
f 91 60 61
f 90 59 60
f 89 57 58
f 92 62 63
f 93 64 65
f 92 63 64
f 93 66 67
f 94 68 69
f 94 69 70
f 94 67 68
f 93 65 66
f 91 61 62
f 88 87 54
f 89 58 90
f 56 89 88
f 70 71 95
f 91 90 60
f 93 92 64
f 94 93 67
f 91 62 92
f 70 95 94
f 96 72 73
f 97 74 75
f 96 73 74
f 96 95 72
f 2 97 75
f 2 75 1
f 74 97 96
f 71 72 95
f 53 54 87
f 195 146 99
f 99 196 195

