# Syringe Gel-Particle Simulation
# t=28.883 s   particles_active=18 (of 300)

o particle_0001
v -0.5371 7.4200 -0.5800
v -0.4698 7.4199 -0.4378
v -0.5802 7.4200 -0.3213
v -0.4276 7.4198 -0.3485
v -0.4004 7.4200 -0.1961
v -0.3292 7.4198 -0.3437
v -0.1690 7.4200 -0.3728
v -0.3110 7.4200 -0.4407
v -0.2478 7.4199 -0.5802
v -0.3920 7.4200 -0.5042
v -0.5376 7.8220 -0.5800
v -0.4712 7.8229 -0.4346
v -0.5802 7.8222 -0.3175
v -0.4281 7.8223 -0.3415
v -0.3809 7.8210 -0.1905
v -0.3287 7.8218 -0.3438
v -0.1690 7.8207 -0.3786
v -0.3132 7.8234 -0.4397
v -0.2534 7.8188 -0.5801
v -0.3947 7.8218 -0.5013
v -0.3872 7.4196 -0.4162
v -0.3888 7.8213 -0.4130
f 18 8 20
f 3 2 4
f 4 2 12
f 2 3 12
f 2 4 14
f 4 2 21
f 5 4 6
f 4 5 15
f 5 6 15
f 7 6 8
f 8 6 18
f 7 8 18
f 14 16 22
f 8 10 20
f 10 8 21
f 9 8 10
f 10 8 18
f 8 9 18
f 6 4 21
f 2 1 10
f 10 1 20
f 11 2 12
f 11 12 20
f 13 4 14
f 4 12 14
f 12 13 14
f 12 3 13
f 3 4 13
f 12 2 14
f 15 6 16
f 14 15 16
f 14 4 15
f 6 8 16
f 8 6 21
f 6 7 17
f 17 7 18
f 16 6 17
f 6 16 18
f 16 17 18
f 16 8 18
f 20 12 22
f 9 10 20
f 10 18 20
f 2 10 21
f 1 2 11
f 1 11 20
f 18 9 19
f 19 9 20
f 18 19 20
f 12 14 22
f 18 20 22
f 16 18 22

o particle_0002
v -0.2592 7.6836 0.1732
v -0.4146 7.6481 0.1743
v -0.5223 7.7717 0.1838
v -0.5165 7.6161 0.1824
v -0.5800 7.4734 0.2723
v -0.4985 7.5452 0.1761
v -0.5801 7.4198 0.1788
v -0.4261 7.4812 0.1792
v -0.2783 7.4199 0.1800
v -0.3561 7.5585 0.1782
v -0.2101 7.6024 0.5600
v -0.3655 7.6517 0.5704
v -0.4372 7.7984 0.5737
v -0.4571 7.6463 0.5803
v -0.5803 7.7241 0.5802
v -0.5165 7.5679 0.5768
v -0.5800 7.4200 0.5801
v -0.4389 7.4953 0.5798
v -0.2963 7.4199 0.5800
v -0.3561 7.5588 0.5801
v -0.4344 7.5717 0.1739
v -0.4301 7.5790 0.5739
f 40 30 42
f 25 24 26
f 26 24 34
f 24 25 34
f 24 26 36
f 26 24 43
f 27 26 28
f 26 27 37
f 27 28 37
f 29 28 30
f 30 28 40
f 29 30 40
f 36 38 44
f 30 32 42
f 32 30 43
f 31 30 32
f 32 30 40
f 30 31 40
f 28 26 43
f 24 23 32
f 32 23 42
f 33 24 34
f 33 34 42
f 35 26 36
f 26 34 36
f 34 35 36
f 34 25 35
f 25 26 35
f 34 24 36
f 37 28 38
f 36 37 38
f 36 26 37
f 28 30 38
f 30 28 43
f 28 29 39
f 39 29 40
f 38 28 39
f 28 38 40
f 38 39 40
f 38 30 40
f 42 34 44
f 31 32 42
f 32 40 42
f 24 32 43
f 23 24 33
f 23 33 42
f 40 31 41
f 41 31 42
f 40 41 42
f 34 36 44
f 40 42 44
f 38 40 44

o particle_0003
v 0.1732 7.6825 0.2577
v 0.1744 7.6482 0.4134
v 0.1836 7.7725 0.5201
v 0.1823 7.6167 0.5155
v 0.2720 7.4740 0.5800
v 0.1761 7.5454 0.4983
v 0.1788 7.4198 0.5800
v 0.1792 7.4812 0.4260
v 0.1799 7.4199 0.2780
v 0.1782 7.5583 0.3557
v 0.5604 7.6027 0.2096
v 0.5706 7.6516 0.3651
v 0.5737 7.7987 0.4358
v 0.5803 7.6465 0.4569
v 0.5802 7.7240 0.5803
v 0.5769 7.5679 0.5161
v 0.5801 7.4200 0.5800
v 0.5798 7.4951 0.4386
v 0.5800 7.4199 0.2957
v 0.5802 7.5586 0.3557
v 0.1740 7.5718 0.4339
v 0.5741 7.5790 0.4298
f 62 52 64
f 47 46 48
f 48 46 56
f 46 47 56
f 46 48 58
f 48 46 65
f 49 48 50
f 48 49 59
f 49 50 59
f 51 50 52
f 52 50 62
f 51 52 62
f 58 60 66
f 52 54 64
f 54 52 65
f 53 52 54
f 54 52 62
f 52 53 62
f 50 48 65
f 46 45 54
f 54 45 64
f 55 46 56
f 55 56 64
f 57 48 58
f 48 56 58
f 56 57 58
f 56 47 57
f 47 48 57
f 56 46 58
f 59 50 60
f 58 59 60
f 58 48 59
f 50 52 60
f 52 50 65
f 50 51 61
f 61 51 62
f 60 50 61
f 50 60 62
f 60 61 62
f 60 52 62
f 64 56 66
f 53 54 64
f 54 62 64
f 46 54 65
f 45 46 55
f 45 55 64
f 62 53 63
f 63 53 64
f 62 63 64
f 56 58 66
f 62 64 66
f 60 62 66

o particle_0004
v 0.3897 7.7922 -0.1812
v 0.4414 7.6446 -0.1777
v 0.5802 7.7008 -0.1762
v 0.4988 7.5591 -0.1783
v 0.5800 7.4200 -0.1801
v 0.4279 7.4813 -0.1773
v 0.2713 7.4197 -0.1760
v 0.3493 7.5424 -0.1761
v 0.1950 7.5669 -0.1801
v 0.3438 7.6368 -0.1786
v 0.3648 7.7862 -0.5801
v 0.4392 7.6475 -0.5804
v 0.5802 7.7039 -0.5791
v 0.5027 7.5612 -0.5793
v 0.5800 7.4200 -0.5801
v 0.4328 7.4819 -0.5786
v 0.2764 7.4198 -0.5791
v 0.3594 7.5387 -0.5810
v 0.2122 7.5160 -0.5800
v 0.3407 7.6263 -0.5803
v 0.4158 7.5743 -0.1774
v 0.4213 7.5735 -0.5795
f 84 74 86
f 69 68 70
f 70 68 78
f 68 69 78
f 68 70 80
f 70 68 87
f 71 70 72
f 70 71 81
f 71 72 81
f 73 72 74
f 74 72 84
f 73 74 84
f 80 82 88
f 74 76 86
f 76 74 87
f 75 74 76
f 76 74 84
f 74 75 84
f 72 70 87
f 68 67 76
f 76 67 86
f 77 68 78
f 77 78 86
f 79 70 80
f 70 78 80
f 78 79 80
f 78 69 79
f 69 70 79
f 78 68 80
f 81 72 82
f 80 81 82
f 80 70 81
f 72 74 82
f 74 72 87
f 72 73 83
f 83 73 84
f 82 72 83
f 72 82 84
f 82 83 84
f 82 74 84
f 86 78 88
f 75 76 86
f 76 84 86
f 68 76 87
f 67 68 77
f 67 77 86
f 84 75 85
f 85 75 86
f 84 85 86
f 78 80 88
f 84 86 88
f 82 84 88

o particle_0005
v 0.2605 7.6201 -0.0516
v 0.1886 7.5529 0.0696
v 0.2317 7.4199 0.0085
v 0.1483 7.4870 0.1341
v 0.0700 7.4199 0.2621
v 0.1100 7.5539 0.1976
v 0.0341 7.6269 0.3131
v 0.1208 7.6500 0.1748
v 0.1458 7.8014 0.1293
v 0.1754 7.6500 0.0863
v -0.0806 7.6137 -0.2644
v -0.1537 7.5468 -0.1439
v -0.1065 7.4198 -0.2095
v -0.1912 7.4802 -0.0787
v -0.2735 7.4197 0.0528
v -0.2321 7.5466 -0.0166
v -0.3077 7.6154 0.1013
v -0.2210 7.6417 -0.0366
v -0.1966 7.7914 -0.0817
v -0.1660 7.6422 -0.1256
v 0.1494 7.5799 0.1315
v -0.1921 7.5723 -0.0805
f 106 96 108
f 91 90 92
f 92 90 100
f 90 91 100
f 90 92 102
f 92 90 109
f 93 92 94
f 92 93 103
f 93 94 103
f 95 94 96
f 96 94 106
f 95 96 106
f 102 104 110
f 96 98 108
f 98 96 109
f 97 96 98
f 98 96 106
f 96 97 106
f 94 92 109
f 90 89 98
f 98 89 108
f 99 90 100
f 99 100 108
f 101 92 102
f 92 100 102
f 100 101 102
f 100 91 101
f 91 92 101
f 100 90 102
f 103 94 104
f 102 103 104
f 102 92 103
f 94 96 104
f 96 94 109
f 94 95 105
f 105 95 106
f 104 94 105
f 94 104 106
f 104 105 106
f 104 96 106
f 108 100 110
f 97 98 108
f 98 106 108
f 90 98 109
f 89 90 99
f 89 99 108
f 106 97 107
f 107 97 108
f 106 107 108
f 100 102 110
f 106 108 110
f 104 106 110

o particle_0006
v 0.5800 7.4200 0.1646
v 0.5802 7.5698 0.1106
v 0.5800 7.6619 0.2414
v 0.5801 7.6659 0.0799
v 0.5800 7.8176 0.0276
v 0.5801 7.6655 -0.0223
v 0.5800 7.6592 -0.1839
v 0.5800 7.5693 -0.0517
v 0.5801 7.4199 -0.1059
v 0.5800 7.5083 0.0294
v 0.1784 7.4200 0.1654
v 0.1776 7.5699 0.1111
v 0.1789 7.6608 0.2425
v 0.1780 7.6667 0.0807
v 0.1783 7.8189 0.0289
v 0.1779 7.6664 -0.0217
v 0.1787 7.6587 -0.1836
v 0.1775 7.5698 -0.0510
v 0.1807 7.4200 -0.1044
v 0.1780 7.5089 0.0302
v 0.5802 7.5956 0.0296
v 0.1782 7.5964 0.0300
f 128 118 130
f 113 112 114
f 114 112 122
f 112 113 122
f 112 114 124
f 114 112 131
f 115 114 116
f 114 115 125
f 115 116 125
f 117 116 118
f 118 116 128
f 117 118 128
f 124 126 132
f 118 120 130
f 120 118 131
f 119 118 120
f 120 118 128
f 118 119 128
f 116 114 131
f 112 111 120
f 120 111 130
f 121 112 122
f 121 122 130
f 123 114 124
f 114 122 124
f 122 123 124
f 122 113 123
f 113 114 123
f 122 112 124
f 125 116 126
f 124 125 126
f 124 114 125
f 116 118 126
f 118 116 131
f 116 117 127
f 127 117 128
f 126 116 127
f 116 126 128
f 126 127 128
f 126 118 128
f 130 122 132
f 119 120 130
f 120 128 130
f 112 120 131
f 111 112 121
f 111 121 130
f 128 119 129
f 129 119 130
f 128 129 130
f 122 124 132
f 128 130 132
f 126 128 132

o particle_0007
v 0.2241 7.6610 -0.5800
v 0.0623 7.6655 -0.5801
v 0.0101 7.8172 -0.5800
v -0.0404 7.6647 -0.5801
v -0.2025 7.6509 -0.5800
v -0.0674 7.5683 -0.5803
v -0.1235 7.4200 -0.5800
v 0.0131 7.5071 -0.5800
v 0.1490 7.4200 -0.5801
v 0.0935 7.5692 -0.5800
v 0.2254 7.6567 -0.1790
v 0.0634 7.6650 -0.1780
v 0.0143 7.8176 -0.1788
v -0.0390 7.6659 -0.1779
v -0.2007 7.6613 -0.1784
v -0.0698 7.5695 -0.1780
v -0.1250 7.4200 -0.1783
v 0.0110 7.5078 -0.1781
v 0.1466 7.4200 -0.1807
v 0.0923 7.5690 -0.1775
v 0.0123 7.5951 -0.5803
v 0.0113 7.5954 -0.1783
f 150 140 152
f 135 134 136
f 136 134 144
f 134 135 144
f 134 136 146
f 136 134 153
f 137 136 138
f 136 137 147
f 137 138 147
f 139 138 140
f 140 138 150
f 139 140 150
f 146 148 154
f 140 142 152
f 142 140 153
f 141 140 142
f 142 140 150
f 140 141 150
f 138 136 153
f 134 133 142
f 142 133 152
f 143 134 144
f 143 144 152
f 145 136 146
f 136 144 146
f 144 145 146
f 144 135 145
f 135 136 145
f 144 134 146
f 147 138 148
f 146 147 148
f 146 136 147
f 138 140 148
f 140 138 153
f 138 139 149
f 149 139 150
f 148 138 149
f 138 148 150
f 148 149 150
f 148 140 150
f 152 144 154
f 141 142 152
f 142 150 152
f 134 142 153
f 133 134 143
f 133 143 152
f 150 141 151
f 151 141 152
f 150 151 152
f 144 146 154
f 150 152 154
f 148 150 154

o particle_0008
v -0.5801 7.4211 0.1213
v -0.4397 7.4199 0.0548
v -0.3568 7.4200 0.1894
v -0.3442 7.4201 0.0268
v -0.1942 7.4200 -0.0276
v -0.3449 7.4201 -0.0769
v -0.3632 7.4200 -0.2394
v -0.4402 7.4201 -0.1016
v -0.5802 7.4200 -0.1683
v -0.5046 7.4204 -0.0235
v -0.5801 7.8236 0.1205
v -0.4385 7.8232 0.0553
v -0.3569 7.8214 0.1904
v -0.3421 7.8219 0.0277
v -0.1906 7.8218 -0.0245
v -0.3425 7.8221 -0.0755
v -0.3597 7.8219 -0.2379
v -0.4386 7.8232 -0.1015
v -0.5800 7.8213 -0.1671
v -0.5024 7.8222 -0.0235
v -0.4151 7.4201 -0.0229
v -0.4129 7.8222 -0.0230
f 172 162 174
f 157 156 158
f 158 156 166
f 156 157 166
f 156 158 168
f 158 156 175
f 159 158 160
f 158 159 169
f 159 160 169
f 161 160 162
f 162 160 172
f 161 162 172
f 168 170 176
f 162 164 174
f 164 162 175
f 163 162 164
f 164 162 172
f 162 163 172
f 160 158 175
f 156 155 164
f 164 155 174
f 165 156 166
f 165 166 174
f 167 158 168
f 158 166 168
f 166 167 168
f 166 157 167
f 157 158 167
f 166 156 168
f 169 160 170
f 168 169 170
f 168 158 169
f 160 162 170
f 162 160 175
f 160 161 171
f 171 161 172
f 170 160 171
f 160 170 172
f 170 171 172
f 170 162 172
f 174 166 176
f 163 164 174
f 164 172 174
f 156 164 175
f 155 156 165
f 155 165 174
f 172 163 173
f 173 163 174
f 172 173 174
f 166 168 176
f 172 174 176
f 170 172 176

o particle_0009
v -0.0226 7.4201 0.1922
v -0.0762 7.4202 0.3428
v -0.2387 7.4203 0.3589
v -0.1027 7.4198 0.4389
v -0.1696 7.4200 0.5800
v -0.0251 7.4202 0.5041
v 0.1203 7.4200 0.5801
v 0.0533 7.4200 0.4403
v 0.1884 7.4201 0.3577
v 0.0265 7.4203 0.3441
v -0.0160 7.8220 0.1932
v -0.0750 7.8220 0.3420
v -0.2382 7.8221 0.3522
v -0.1060 7.8223 0.4381
v -0.1722 7.8221 0.5801
v -0.0285 7.8218 0.5040
v 0.1172 7.8222 0.5801
v 0.0486 7.8230 0.4425
v 0.1919 7.8207 0.3838
v 0.0301 7.8223 0.3462
v -0.0253 7.4199 0.4139
v -0.0273 7.8220 0.4134
f 194 184 196
f 179 178 180
f 180 178 188
f 178 179 188
f 178 180 190
f 180 178 197
f 181 180 182
f 180 181 191
f 181 182 191
f 183 182 184
f 184 182 194
f 183 184 194
f 190 192 198
f 184 186 196
f 186 184 197
f 185 184 186
f 186 184 194
f 184 185 194
f 182 180 197
f 178 177 186
f 186 177 196
f 187 178 188
f 187 188 196
f 189 180 190
f 180 188 190
f 188 189 190
f 188 179 189
f 179 180 189
f 188 178 190
f 191 182 192
f 190 191 192
f 190 180 191
f 182 184 192
f 184 182 197
f 182 183 193
f 193 183 194
f 192 182 193
f 182 192 194
f 192 193 194
f 192 184 194
f 196 188 198
f 185 186 196
f 186 194 196
f 178 186 197
f 177 178 187
f 177 187 196
f 194 185 195
f 195 185 196
f 194 195 196
f 188 190 198
f 194 196 198
f 192 194 198

o particle_0010
v -0.1807 8.0499 -0.1780
v -0.3329 7.9984 -0.1778
v -0.3381 7.8369 -0.1781
v -0.4294 7.9683 -0.1776
v -0.5800 7.9153 -0.1784
v -0.4905 8.0495 -0.1778
v -0.5800 8.1839 -0.1777
v -0.4296 8.1310 -0.1778
v -0.3370 8.2617 -0.1780
v -0.3331 8.1004 -0.1779
v -0.1810 8.0505 -0.5800
v -0.3329 7.9985 -0.5800
v -0.3369 7.8370 -0.5800
v -0.4294 7.9675 -0.5800
v -0.5800 7.9145 -0.5800
v -0.4906 8.0487 -0.5799
v -0.5800 8.1833 -0.5800
v -0.4303 8.1298 -0.5801
v -0.3427 8.2628 -0.5800
v -0.3335 8.1010 -0.5801
v -0.4031 8.0494 -0.1778
v -0.4031 8.0489 -0.5800
f 216 206 218
f 201 200 202
f 202 200 210
f 200 201 210
f 200 202 212
f 202 200 219
f 203 202 204
f 202 203 213
f 203 204 213
f 205 204 206
f 206 204 216
f 205 206 216
f 212 214 220
f 206 208 218
f 208 206 219
f 207 206 208
f 208 206 216
f 206 207 216
f 204 202 219
f 200 199 208
f 208 199 218
f 209 200 210
f 209 210 218
f 211 202 212
f 202 210 212
f 210 211 212
f 210 201 211
f 201 202 211
f 210 200 212
f 213 204 214
f 212 213 214
f 212 202 213
f 204 206 214
f 206 204 219
f 204 205 215
f 215 205 216
f 214 204 215
f 204 214 216
f 214 215 216
f 214 206 216
f 218 210 220
f 207 208 218
f 208 216 218
f 200 208 219
f 199 200 209
f 199 209 218
f 216 207 217
f 217 207 218
f 216 217 218
f 210 212 220
f 216 218 220
f 214 216 220

o particle_0011
v 0.1079 7.7292 -0.0733
v 0.0260 7.8424 -0.1530
v 0.1246 7.9131 -0.2586
v -0.0263 7.9138 -0.2030
v -0.1100 8.0264 -0.2815
v -0.1215 7.9137 -0.1673
v -0.2718 7.9129 -0.1103
v -0.1280 7.8423 -0.0953
v -0.1373 7.7290 0.0185
v -0.0369 7.7982 -0.0864
v 0.2118 8.0001 0.2052
v 0.1300 8.1134 0.1255
v 0.2287 8.1840 0.0199
v 0.0778 8.1848 0.0754
v -0.0059 8.2975 -0.0031
v -0.0175 8.1848 0.1110
v -0.1678 8.1838 0.1682
v -0.0240 8.1134 0.1831
v -0.0333 8.0001 0.2969
v 0.0671 8.0692 0.1920
v -0.0573 7.8621 -0.1410
v 0.0467 8.1331 0.1374
f 238 228 240
f 223 222 224
f 224 222 232
f 222 223 232
f 222 224 234
f 224 222 241
f 225 224 226
f 224 225 235
f 225 226 235
f 227 226 228
f 228 226 238
f 227 228 238
f 234 236 242
f 228 230 240
f 230 228 241
f 229 228 230
f 230 228 238
f 228 229 238
f 226 224 241
f 222 221 230
f 230 221 240
f 231 222 232
f 231 232 240
f 233 224 234
f 224 232 234
f 232 233 234
f 232 223 233
f 223 224 233
f 232 222 234
f 235 226 236
f 234 235 236
f 234 224 235
f 226 228 236
f 228 226 241
f 226 227 237
f 237 227 238
f 236 226 237
f 226 236 238
f 236 237 238
f 236 228 238
f 240 232 242
f 229 230 240
f 230 238 240
f 222 230 241
f 221 222 231
f 221 231 240
f 238 229 239
f 239 229 240
f 238 239 240
f 232 234 242
f 238 240 242
f 236 238 242

o particle_0012
v -0.3356 7.7981 0.1779
v -0.3326 7.9595 0.1779
v -0.1806 8.0115 0.1780
v -0.3331 8.0619 0.1779
v -0.3426 8.2238 0.1786
v -0.4298 8.0906 0.1776
v -0.5800 8.1437 0.1780
v -0.4903 8.0093 0.1779
v -0.5800 7.8753 0.1779
v -0.4291 7.9282 0.1780
v -0.3371 7.7978 0.5800
v -0.3329 7.9591 0.5800
v -0.1806 8.0095 0.5800
v -0.3327 8.0611 0.5800
v -0.3365 8.2224 0.5800
v -0.4292 8.0917 0.5800
v -0.5800 8.1441 0.5800
v -0.4900 8.0102 0.5800
v -0.5800 7.8762 0.5800
v -0.4292 7.9287 0.5802
v -0.4029 8.0098 0.1778
v -0.4029 8.0103 0.5800
f 260 250 262
f 245 244 246
f 246 244 254
f 244 245 254
f 244 246 256
f 246 244 263
f 247 246 248
f 246 247 257
f 247 248 257
f 249 248 250
f 250 248 260
f 249 250 260
f 256 258 264
f 250 252 262
f 252 250 263
f 251 250 252
f 252 250 260
f 250 251 260
f 248 246 263
f 244 243 252
f 252 243 262
f 253 244 254
f 253 254 262
f 255 246 256
f 246 254 256
f 254 255 256
f 254 245 255
f 245 246 255
f 254 244 256
f 257 248 258
f 256 257 258
f 256 246 257
f 248 250 258
f 250 248 263
f 248 249 259
f 259 249 260
f 258 248 259
f 248 258 260
f 258 259 260
f 258 250 260
f 262 254 264
f 251 252 262
f 252 260 262
f 244 252 263
f 243 244 253
f 243 253 262
f 260 251 261
f 261 251 262
f 260 261 262
f 254 256 264
f 260 262 264
f 258 260 264

o particle_0013
v 0.3373 8.2086 -0.1781
v 0.4292 8.0775 -0.1777
v 0.5800 8.1299 -0.1778
v 0.4899 7.9960 -0.1779
v 0.5800 7.8621 -0.1784
v 0.4291 7.9147 -0.1776
v 0.3368 7.7838 -0.1780
v 0.3325 7.9452 -0.1778
v 0.1800 7.9960 -0.1779
v 0.3324 8.0472 -0.1779
v 0.3364 8.2083 -0.5800
v 0.4291 8.0776 -0.5801
v 0.5800 8.1298 -0.5800
v 0.4898 7.9960 -0.5800
v 0.5800 7.8622 -0.5800
v 0.4293 7.9144 -0.5800
v 0.3368 7.7836 -0.5800
v 0.3329 7.9449 -0.5800
v 0.1806 7.9951 -0.5800
v 0.3326 8.0469 -0.5800
v 0.4025 7.9963 -0.1778
v 0.4027 7.9961 -0.5800
f 282 272 284
f 267 266 268
f 268 266 276
f 266 267 276
f 266 268 278
f 268 266 285
f 269 268 270
f 268 269 279
f 269 270 279
f 271 270 272
f 272 270 282
f 271 272 282
f 278 280 286
f 272 274 284
f 274 272 285
f 273 272 274
f 274 272 282
f 272 273 282
f 270 268 285
f 266 265 274
f 274 265 284
f 275 266 276
f 275 276 284
f 277 268 278
f 268 276 278
f 276 277 278
f 276 267 277
f 267 268 277
f 276 266 278
f 279 270 280
f 278 279 280
f 278 268 279
f 270 272 280
f 272 270 285
f 270 271 281
f 281 271 282
f 280 270 281
f 270 280 282
f 280 281 282
f 280 272 282
f 284 276 286
f 273 274 284
f 274 282 284
f 266 274 285
f 265 266 275
f 265 275 284
f 282 273 283
f 283 273 284
f 282 283 284
f 276 278 286
f 282 284 286
f 280 282 286

o particle_0014
v -0.1784 8.5605 -0.0622
v -0.3308 8.5803 -0.0151
v -0.3332 8.6421 0.1336
v -0.4275 8.5924 0.0135
v -0.5800 8.6117 0.0596
v -0.4876 8.5610 -0.0621
v -0.5800 8.5105 -0.1840
v -0.4276 8.5294 -0.1378
v -0.3331 8.4794 -0.2577
v -0.3309 8.5412 -0.1091
v -0.1788 8.1890 0.0919
v -0.3312 8.2089 0.1392
v -0.3334 8.2707 0.2880
v -0.4277 8.2210 0.1680
v -0.5800 8.2404 0.2145
v -0.4881 8.1896 0.0924
v -0.5800 8.1390 -0.0299
v -0.4281 8.1581 0.0169
v -0.3355 8.1077 -0.1038
v -0.3314 8.1697 0.0451
v -0.4009 8.5609 -0.0621
v -0.4012 8.1895 0.0924
f 304 294 306
f 289 288 290
f 290 288 298
f 288 289 298
f 288 290 300
f 290 288 307
f 291 290 292
f 290 291 301
f 291 292 301
f 293 292 294
f 294 292 304
f 293 294 304
f 300 302 308
f 294 296 306
f 296 294 307
f 295 294 296
f 296 294 304
f 294 295 304
f 292 290 307
f 288 287 296
f 296 287 306
f 297 288 298
f 297 298 306
f 299 290 300
f 290 298 300
f 298 299 300
f 298 289 299
f 289 290 299
f 298 288 300
f 301 292 302
f 300 301 302
f 300 290 301
f 292 294 302
f 294 292 307
f 292 293 303
f 303 293 304
f 302 292 303
f 292 302 304
f 302 303 304
f 302 294 304
f 306 298 308
f 295 296 306
f 296 304 306
f 288 296 307
f 287 288 297
f 287 297 306
f 304 295 305
f 305 295 306
f 304 305 306
f 298 300 308
f 304 306 308
f 302 304 308

o particle_0015
v 0.5800 8.0051 0.1799
v 0.5800 7.9539 0.3322
v 0.5800 7.7926 0.3360
v 0.5801 7.9234 0.4287
v 0.5800 7.8715 0.5800
v 0.5800 8.0049 0.4894
v 0.5800 8.1384 0.5800
v 0.5800 8.0865 0.4289
v 0.5800 8.2170 0.3355
v 0.5800 8.0558 0.3323
v 0.1780 8.0067 0.1800
v 0.1779 7.9541 0.3319
v 0.1780 7.7928 0.3348
v 0.1778 7.9227 0.4285
v 0.1779 7.8709 0.5800
v 0.1779 8.0042 0.4894
v 0.1780 8.1378 0.5800
v 0.1777 8.0856 0.4294
v 0.1786 8.2182 0.3404
v 0.1778 8.0565 0.3326
v 0.5801 8.0049 0.4023
v 0.1779 8.0044 0.4022
f 326 316 328
f 311 310 312
f 312 310 320
f 310 311 320
f 310 312 322
f 312 310 329
f 313 312 314
f 312 313 323
f 313 314 323
f 315 314 316
f 316 314 326
f 315 316 326
f 322 324 330
f 316 318 328
f 318 316 329
f 317 316 318
f 318 316 326
f 316 317 326
f 314 312 329
f 310 309 318
f 318 309 328
f 319 310 320
f 319 320 328
f 321 312 322
f 312 320 322
f 320 321 322
f 320 311 321
f 311 312 321
f 320 310 322
f 323 314 324
f 322 323 324
f 322 312 323
f 314 316 324
f 316 314 329
f 314 315 325
f 325 315 326
f 324 314 325
f 314 324 326
f 324 325 326
f 324 316 326
f 328 320 330
f 317 318 328
f 318 326 328
f 310 318 329
f 309 310 319
f 309 319 328
f 326 317 327
f 327 317 328
f 326 327 328
f 320 322 330
f 326 328 330
f 324 326 330

o particle_0016
v 0.2488 8.5290 -0.3348
v 0.0879 8.5399 -0.3321
v 0.0366 8.5436 -0.1799
v -0.0140 8.5469 -0.3324
v -0.1752 8.5580 -0.3392
v -0.0434 8.5489 -0.4291
v -0.0954 8.5521 -0.5800
v 0.0379 8.5431 -0.4894
v 0.1708 8.5339 -0.5800
v 0.1191 8.5376 -0.4286
v 0.2215 8.1278 -0.3350
v 0.0607 8.1387 -0.3318
v 0.0099 8.1423 -0.1794
v -0.0410 8.1456 -0.3318
v -0.2018 8.1567 -0.3349
v -0.0717 8.1476 -0.4283
v -0.1227 8.1507 -0.5800
v 0.0099 8.1419 -0.4887
v 0.1424 8.1327 -0.5800
v 0.0915 8.1362 -0.4282
v 0.0375 8.5433 -0.4023
v 0.0098 8.1420 -0.4018
f 348 338 350
f 333 332 334
f 334 332 342
f 332 333 342
f 332 334 344
f 334 332 351
f 335 334 336
f 334 335 345
f 335 336 345
f 337 336 338
f 338 336 348
f 337 338 348
f 344 346 352
f 338 340 350
f 340 338 351
f 339 338 340
f 340 338 348
f 338 339 348
f 336 334 351
f 332 331 340
f 340 331 350
f 341 332 342
f 341 342 350
f 343 334 344
f 334 342 344
f 342 343 344
f 342 333 343
f 333 334 343
f 342 332 344
f 345 336 346
f 344 345 346
f 344 334 345
f 336 338 346
f 338 336 351
f 336 337 347
f 347 337 348
f 346 336 347
f 336 346 348
f 346 347 348
f 346 338 348
f 350 342 352
f 339 340 350
f 340 348 350
f 332 340 351
f 331 332 341
f 331 341 350
f 348 339 349
f 349 339 350
f 348 349 350
f 342 344 352
f 348 350 352
f 346 348 352

o particle_0017
v 0.5800 8.4469 -0.2041
v 0.4287 8.3958 -0.1984
v 0.3353 8.5252 -0.2142
v 0.3322 8.3652 -0.1948
v 0.1799 8.3144 -0.1889
v 0.3322 8.2639 -0.1827
v 0.3356 8.1039 -0.1636
v 0.4286 8.2336 -0.1789
v 0.5800 8.1824 -0.1727
v 0.4892 8.3146 -0.1885
v 0.5800 8.4942 0.1954
v 0.4282 8.4437 0.2011
v 0.3347 8.5731 0.1852
v 0.3315 8.4131 0.2045
v 0.1791 8.3624 0.2104
v 0.3315 8.3119 0.2167
v 0.3348 8.1519 0.2358
v 0.4281 8.2813 0.2206
v 0.5800 8.2308 0.2266
v 0.4885 8.3624 0.2108
v 0.4023 8.3147 -0.1887
v 0.4016 8.3626 0.2107
f 370 360 372
f 355 354 356
f 356 354 364
f 354 355 364
f 354 356 366
f 356 354 373
f 357 356 358
f 356 357 367
f 357 358 367
f 359 358 360
f 360 358 370
f 359 360 370
f 366 368 374
f 360 362 372
f 362 360 373
f 361 360 362
f 362 360 370
f 360 361 370
f 358 356 373
f 354 353 362
f 362 353 372
f 363 354 364
f 363 364 372
f 365 356 366
f 356 364 366
f 364 365 366
f 364 355 365
f 355 356 365
f 364 354 366
f 367 358 368
f 366 367 368
f 366 356 367
f 358 360 368
f 360 358 373
f 358 359 369
f 369 359 370
f 368 358 369
f 358 368 370
f 368 369 370
f 368 360 370
f 372 364 374
f 361 362 372
f 362 370 372
f 354 362 373
f 353 354 363
f 353 363 372
f 370 361 371
f 371 361 372
f 370 371 372
f 364 366 374
f 370 372 374
f 368 370 374

o particle_0018
v -0.1854 8.4332 0.1791
v -0.1631 8.4796 0.3313
v -0.0921 8.6244 0.3346
v -0.1498 8.5076 0.4280
v -0.1277 8.5535 0.5800
v -0.1857 8.4343 0.4885
v -0.2444 8.3154 0.5800
v -0.2216 8.3607 0.4283
v -0.2787 8.2434 0.3347
v -0.2079 8.3881 0.3316
v 0.1755 8.2558 0.1800
v 0.1980 8.3026 0.3321
v 0.2690 8.4473 0.3348
v 0.2116 8.3308 0.4286
v 0.2341 8.3775 0.5800
v 0.1756 8.2577 0.4894
v 0.1165 8.1378 0.5800
v 0.1400 8.1843 0.4293
v 0.0822 8.0657 0.3391
v 0.1531 8.2108 0.3326
v -0.1856 8.4341 0.4015
v 0.1757 8.2573 0.4023
f 392 382 394
f 377 376 378
f 378 376 386
f 376 377 386
f 376 378 388
f 378 376 395
f 379 378 380
f 378 379 389
f 379 380 389
f 381 380 382
f 382 380 392
f 381 382 392
f 388 390 396
f 382 384 394
f 384 382 395
f 383 382 384
f 384 382 392
f 382 383 392
f 380 378 395
f 376 375 384
f 384 375 394
f 385 376 386
f 385 386 394
f 387 378 388
f 378 386 388
f 386 387 388
f 386 377 387
f 377 378 387
f 386 376 388
f 389 380 390
f 388 389 390
f 388 378 389
f 380 382 390
f 382 380 395
f 380 381 391
f 391 381 392
f 390 380 391
f 380 390 392
f 390 391 392
f 390 382 392
f 394 386 396
f 383 384 394
f 384 392 394
f 376 384 395
f 375 376 385
f 375 385 394
f 392 383 393
f 393 383 394
f 392 393 394
f 386 388 396
f 392 394 396
f 390 392 396

