# 0.6mm cylinder: radius 0.3mm, height 0.6mm, centered at origin
# 8 segments, manifold, CCW winding
g cylinder

v 0.3 -0.3 0
v 0.212132034 -0.3 0.212132034
v 1.8369702e-17 -0.3 0.3
v -0.212132034 -0.3 0.212132034
v -0.3 -0.3 3.6739404e-17
v -0.212132034 -0.3 -0.212132034
v -5.5109106e-17 -0.3 -0.3
v 0.212132034 -0.3 -0.212132034
v 0.3 0.3 0
v 0.212132034 0.3 0.212132034
v 1.8369702e-17 0.3 0.3
v -0.212132034 0.3 0.212132034
v -0.3 0.3 3.6739404e-17
v -0.212132034 0.3 -0.212132034
v -5.5109106e-17 0.3 -0.3
v 0.212132034 0.3 -0.212132034
v 0 -0.3 0
v 0 0.3 0

# Side quads -> 2 triangles each (CCW from outside)
f 1 9 10
f 1 10 2
f 2 10 11
f 2 11 3
f 3 11 12
f 3 12 4
f 4 12 13
f 4 13 5
f 5 13 14
f 5 14 6
f 6 14 15
f 6 15 7
f 7 15 16
f 7 16 8
f 8 16 9
f 8 9 1

# Bottom cap (normal -Y)
f 17 2 1
f 17 3 2
f 17 4 3
f 17 5 4
f 17 6 5
f 17 7 6
f 17 8 7
f 17 1 8

# Top cap (normal +Y)
f 18 9 10
f 18 10 11
f 18 11 12
f 18 12 13
f 18 13 14
f 18 14 15
f 18 15 16
f 18 16 9
