# Rhino

mtllib Tri600M.mtl
usemtl Default
v 42402.226050296384 600 -200069.79965886276
v 41952.225305238353 600 -199809.99205271434
v 42402.226050296384 0 -200069.79965886276
v 41952.225305238353 0 -199809.99205271434
v 41952.225305238353 600 -200329.60726501117
v 42402.226050296384 600 -200069.79965886276
v 41952.225305238353 0 -200329.60726501117
v 42402.226050296384 0 -200069.79965886276
v 41952.225305238353 600 -199809.99205271434
v 41952.225305238353 600 -200329.60726501117
v 41952.225305238353 0 -199809.99205271434
v 41952.225305238353 0 -200329.60726501117
v 42402.226050296384 600 -200069.79965886276
v 41952.225305238353 600 -200329.60726501117
v 41952.225305238353 600 -199809.99205271434
v 41952.225305238353 0 -199809.99205271434
v 41952.225305238353 0 -200329.60726501117
v 42402.226050296384 0 -200069.79965886276
vn 0.49999937415122986 0 0.86602574586868286
vn 0.49999937415122986 0 0.86602574586868286
vn 0.49999937415122986 0 0.86602574586868286
vn 0.49999937415122986 0 0.86602574586868286
vn 0.49999937415122986 0 -0.86602574586868286
vn 0.49999937415122986 0 -0.86602574586868286
vn 0.49999937415122986 0 -0.86602574586868286
vn 0.49999937415122986 0 -0.86602574586868286
vn -1 0 0
vn -1 0 0
vn -1 0 0
vn -1 0 0
vn 0 1 0
vn 0 1 0
vn 0 1 0
vn 0 -1 0
vn 0 -1 0
vn 0 -1 0
f 1//1 2//2 3//3
f 3//3 2//2 4//4
f 5//5 6//6 7//7
f 7//7 6//6 8//8
f 9//9 10//10 11//11
f 11//11 10//10 12//12
f 13//13 14//14 15//15
f 16//16 17//17 18//18
